<svg width="150" height="150" xmlns="http://www.w3.org/2000/svg" xmlns:svg="http://www.w3.org/2000/svg">
 <g>
  <path class="ear" stroke="#3d7db8" transform="rotate(165.62649536132812 119.81610870361328,17.933815002441406) " d="m114.75907,32.65689c-1.97018,-3.61552 -3.43475,-17.24712 2.76656,-29.44615c1.57108,6.67654 6.1446,14.55124 9.04846,18.75001c-4.06335,2.25025 -8.79841,6.24517 -11.81502,10.69614z" stroke-width="2" fill="#3d7db8"/>
  <path class="ear" transform="rotate(-1.246721863746643 31.925451278686438,17.127775192260575) " d="m25.57222,31.78333c-2.05,-9 -1.03333,-22.51111 4.57778,-29.31111c2.63333,5.6 6.26111,10.93333 9.10555,13.91111c-5.6,4.7 -9.18333,8.7 -13.68333,15.4z" stroke-width="2" stroke="#3d7db8" fill="#3d7db8"/>
  <ellipse id="body" ry="73.125" rx="61.99999"  cy="73.70833" cx="76.08333" stroke-width="0" fill="#3d7db8"/>
  <path id="bauch" d="m25.46667,70.8c0,0 102.22222,0.53333 102.22222,0.53333c0,0 -6.93334,68.8 -51.02222,70.93334c-48.71112,-1.06667 -51.2,-71.46667 -51.2,-71.46667z" stroke-width="0" fill="#ffffff"/>
  <circle class="eye-contur" stroke="#fb7d7d" r="27.4" cy="52.6" cx="48.3" stroke-width="3" fill="#ffffff"/>
  <circle class="eye-contur" stroke="#fb7d7d" r="27.4" cy="52.6" cx="103.5" stroke-width="3" fill="#ffffff"/>
  <circle class="eye-round" stroke="#ffd3d3" r="22" cy="52.6" cx="48.3" stroke-width="7" fill="#ffffff"/>
  <circle class="eye-round" stroke="#ffd3d3" r="22" cy="52.6" cx="103.5" stroke-width="7" fill="#ffffff"/>
  <circle class="eye" r="11.6" cy="52.6" cx="48.3" fill="#000000"/>
  <circle class="eye-sparkel" r="3.6" cy="48.3" cx="42" fill="#ffffff"/>
  <circle class="eye" r="11.6" cy="52.6" cx="103.5" fill="#000000"/>
  <circle class="eye-sparkel" r="3.6" cy="48.3" cx="97.5" fill="#ffffff"/>
  
  <path class="bauch-rand" d="m132.41111,50.6c0,0 8.78889,45.44445 -32.1,82.95556c25.6,-29.6889 22.22222,-59.73334 22.22222,-59.73334c2.66667,-5.33333 8.27778,-17 9.87778,-23.22222z" fill="#fb7d7d"/>
  <path class="bauch-rand" d="m19.34445,51.02222c0,0 -5.7889,54.8 32.6111,83.24444c-26.48888,-24.35555 -22.93333,-60.08888 -22.93333,-60.08888c0,0 -8.43333,-13.55556 -9.67777,-23.15556z" fill="#fb7d7d"/>
  <path id="nose-area" d="m61.2,78.26667c0,0 12.44445,-6.4 29.15556,-0.35556c-8,-6.57778 -14.4,-16.88889 -14.4,-16.88889c0,0 -6.04445,11.37778 -14.75556,17.24445z" fill="#fb7d7d"/>
  <path id="nose" d="m65.64444,76.48889c0,0 9.6,-5.51111 20.26667,0c0.00001,0.17778 -1.24444,10.66667 -9.77777,13.15555c-8.71111,-2.31111 -10.4889,-13.15555 -10.4889,-13.15555z" fill="#db845c"/>
  <ellipse class="finger" ry="7.6" rx="3.7" cy="142" cx="64" fill="#db845c"/>
  <ellipse class="finger" ry="7.6" rx="3.7" cy="142" cx="56"  fill="#db845c"/>
  <ellipse class="finger" ry="7.6" rx="3.7" cy="142" cx="48" fill="#db845c"/>
  <ellipse class="finger" ry="7.6" rx="3.7" cy="142" cx="103" fill="#db845c"/>
  <ellipse class="finger" ry="7.6" rx="3.7" cy="142" cx="95" fill="#db845c"/>
  <ellipse class="finger" ry="7.6" rx="3.7" cy="142" cx="87" fill="#db845c"/>
  <rect>
    <animate id="o1" begin="0;o1.end" dur="10s"
    attributeName="visibility" from="hide" to="hide"/>
  </rect>
  <path class="eye-s" fill="#6ba3d3" d="m22.7,52.15c6.95,-32.63333 45.05894,-31.76667 51.41667,0c-2.93394,-25.825 -26.16667,-25.1 -26.25,-25.1c-0.08333,0 -22.59167,0.175 -25.16667,25.1z">
    <animate  begin="o1.begin" attributeType="XML" attributeName="d" from="m22.7,52.15c6.95,-32.63333 45.05894,-31.76667 51.41667,0c-2.93394,-25.825 -26.16667,-25.1 -26.25,-25.1c-0.08333,0 -22.59167,0.175 -25.16667,25.1z" to="m22.7,52.08672c0.74727,33.74539 50.383,33.55878 51.12019,0.28477c-0.68394,-15.21837 -12.10183,-25.08477 -26.06016,-25.38477c-12.53333,0.225 -24.58503,10.375 -25.06003,25.1z"
        dur="0.5s" repeatCount="1"/>
    <animate attributeType="XML" attributeName="d" from="m22.7,52.08672c0.74727,33.74539 50.383,33.55878 51.12019,0.28477c-0.68394,-15.21837 -12.10183,-25.08477 -26.06016,-25.38477c-12.53333,0.225 -24.58503,10.375 -25.06003,25.1z" to="m22.7,52.15c6.95,-32.63333 45.05894,-31.76667 51.41667,0c-2.93394,-25.825 -26.16667,-25.1 -26.25,-25.1c-0.08333,0 -22.59167,0.175 -25.16667,25.1z"
        dur="0.5s" begin="o1.begin+0.5s"  repeatCount="1"/>
  </path>
  <path class="eye-s" fill="#6ba3d3" d="m78,52.15c6.95,-32.63333 45.05894,-31.76667 51.41667,0c-2.93394,-25.825 -26.16667,-25.1 -26.25,-25.1c-0.08333,0 -22.59167,0.175 -25.16667,25.1z">
    <animate  begin="o1.begin" attributeType="XML" attributeName="d" from="m78,52.15c6.95,-32.63333 45.05894,-31.76667 51.41667,0c-2.93394,-25.825 -26.16667,-25.1 -26.25,-25.1c-0.08333,0 -22.59167,0.175 -25.16667,25.1z" to="m78,52.08672c0.74727,33.74539 50.383,33.55878 51.12019,0.28477c-0.68394,-15.21837 -12.10183,-25.08477 -26.06016,-25.38477c-12.53333,0.225 -24.58503,10.375 -25.06003,25.1z"
        dur="0.5s" repeatCount="1"/>
    <animate attributeType="XML" attributeName="d" from="m78,52.08672c0.74727,33.74539 50.383,33.55878 51.12019,0.28477c-0.68394,-15.21837 -12.10183,-25.08477 -26.06016,-25.38477c-12.53333,0.225 -24.58503,10.375 -25.06003,25.1z" to="m78,52.15c6.95,-32.63333 45.05894,-31.76667 51.41667,0c-2.93394,-25.825 -26.16667,-25.1 -26.25,-25.1c-0.08333,0 -22.59167,0.175 -25.16667,25.1z"
        dur="0.5s" begin="o1.begin+0.5s"  repeatCount=""/>
  </path>
  <path class="eye-brow" d="m22.64842,51.76475c0,0 -13.1797,-2.92126 -17.5689,-7.82303c6.42482,3.88367 15.02775,5.31879 16.72341,3.15818c-1.62661,-0.44017 -4.94448,0.20089 -12.65658,-5.29804c8.70401,3.11027 12.66286,4.17422 13.70592,2.13224c-1.50794,-0.79611 -7.63047,-1.9083 -10.43262,-5.31714c11.35235,6.04417 14.32804,0.68765 15.12158,0.78718c-1.8359,2.44829 -4.71592,9.98502 -4.89281,12.36061z" fill="#000000">
    <animate  begin="o1.begin" attributeType="XML" attributeName="d" from="m22.64842,51.76475c0,0 -13.1797,-2.92126 -17.5689,-7.82303c6.42482,3.88367 15.02775,5.31879 16.72341,3.15818c-1.62661,-0.44017 -4.94448,0.20089 -12.65658,-5.29804c8.70401,3.11027 12.66286,4.17422 13.70592,2.13224c-1.50794,-0.79611 -7.63047,-1.9083 -10.43262,-5.31714c11.35235,6.04417 14.32804,0.68765 15.12158,0.78718c-1.8359,2.44829 -4.71592,9.98502 -4.89281,12.36061z" to="m22.64842,51.76475c0,0 -13.1797,3.64753 -17.5689,9.76795c6.42482,-4.84921 15.02775,-6.64112 16.72341,-3.94335c-1.62661,0.5496 -4.94448,-0.25083 -12.65658,6.61521c8.70401,-3.88353 12.66286,-5.21199 13.70592,-2.66235c-1.50794,0.99403 -7.63047,2.38273 -10.43262,6.63906c11.35235,-7.54684 14.32804,-0.85861 15.12158,-0.98288c-1.8359,-3.05697 -4.71592,-12.46744 -4.89281,-15.43363z"
        dur="0.5s" repeatCount="1"/>
    <animate attributeType="XML" attributeName="d" from="m22.64842,51.76475c0,0 -13.1797,3.64753 -17.5689,9.76795c6.42482,-4.84921 15.02775,-6.64112 16.72341,-3.94335c-1.62661,0.5496 -4.94448,-0.25083 -12.65658,6.61521c8.70401,-3.88353 12.66286,-5.21199 13.70592,-2.66235c-1.50794,0.99403 -7.63047,2.38273 -10.43262,6.63906c11.35235,-7.54684 14.32804,-0.85861 15.12158,-0.98288c-1.8359,-3.05697 -4.71592,-12.46744 -4.89281,-15.43363z" to="m22.64842,51.76475c0,0 -13.1797,-2.92126 -17.5689,-7.82303c6.42482,3.88367 15.02775,5.31879 16.72341,3.15818c-1.62661,-0.44017 -4.94448,0.20089 -12.65658,-5.29804c8.70401,3.11027 12.66286,4.17422 13.70592,2.13224c-1.50794,-0.79611 -7.63047,-1.9083 -10.43262,-5.31714c11.35235,6.04417 14.32804,0.68765 15.12158,0.78718c-1.8359,2.44829 -4.71592,9.98502 -4.89281,12.36061z"
        dur="0.5s" begin="o1.begin+0.5s"  repeatCount=""/>
  
  </path>
  <path class="eye-brow" d="m129.47894,51.76475c0,0 13.2048,-2.92126 17.60236,-7.82303c-6.43706,3.88367 -15.05637,5.31879 -16.75526,3.15818c1.62971,-0.44017 4.9539,0.20089 12.68069,-5.29804c-8.72059,3.11027 -12.68698,4.17422 -13.73203,2.13224c1.51081,-0.79611 7.645,-1.9083 10.45249,-5.31714c-11.37397,6.04417 -14.35533,0.68765 -15.15038,0.78718c1.8394,2.44829 4.7249,9.98502 4.90213,12.36061z" fill="#000000">
    <animate  begin="o1.begin" attributeType="XML" attributeName="d" from="m129.47894,51.76475c0,0 13.2048,-2.92126 17.60236,-7.82303c-6.43706,3.88367 -15.05637,5.31879 -16.75526,3.15818c1.62971,-0.44017 4.9539,0.20089 12.68069,-5.29804c-8.72059,3.11027 -12.68698,4.17422 -13.73203,2.13224c1.51081,-0.79611 7.645,-1.9083 10.45249,-5.31714c-11.37397,6.04417 -14.35533,0.68765 -15.15038,0.78718c1.8394,2.44829 4.7249,9.98502 4.90213,12.36061z" to="m129.05033,51.76475c0,0 13.21073,3.64753 17.61026,9.76795c-6.43995,-4.84921 -15.06313,-6.64112 -16.76278,-3.94335c1.63044,0.5496 4.95612,-0.25083 12.68638,6.61521c-8.7245,-3.88353 -12.69267,-5.21199 -13.73819,-2.66235c1.51149,0.99404 7.64843,2.38273 10.45718,6.63906c-11.37908,-7.54684 -14.36177,-0.85861 -15.15718,-0.98288c1.84022,-3.05697 4.72702,-12.46744 4.90433,-15.43364z"
        dur="0.5s" repeatCount="1"/>
    <animate attributeType="XML" attributeName="d" from="m129.05033,51.76475c0,0 13.21073,3.64753 17.61026,9.76795c-6.43995,-4.84921 -15.06313,-6.64112 -16.76278,-3.94335c1.63044,0.5496 4.95612,-0.25083 12.68638,6.61521c-8.7245,-3.88353 -12.69267,-5.21199 -13.73819,-2.66235c1.51149,0.99404 7.64843,2.38273 10.45718,6.63906c-11.37908,-7.54684 -14.36177,-0.85861 -15.15718,-0.98288c1.84022,-3.05697 4.72702,-12.46744 4.90433,-15.43364z" to="m129.47894,51.76475c0,0 13.2048,-2.92126 17.60236,-7.82303c-6.43706,3.88367 -15.05637,5.31879 -16.75526,3.15818c1.62971,-0.44017 4.9539,0.20089 12.68069,-5.29804c-8.72059,3.11027 -12.68698,4.17422 -13.73203,2.13224c1.51081,-0.79611 7.645,-1.9083 10.45249,-5.31714c-11.37397,6.04417 -14.35533,0.68765 -15.15038,0.78718c1.8394,2.44829 4.7249,9.98502 4.90213,12.36061z"
        dur="0.5s" begin="o1.begin+0.5s"  repeatCount=""/>
  
  </path>
 </g>
</svg>