<?xml version="1.0" standalone="no"?>
<!DOCTYPE svg PUBLIC "-//W3C//DTD SVG 1.1//EN" "http://www.w3.org/Graphics/SVG/1.1/DTD/svg11.dtd" >
<svg xmlns="http://www.w3.org/2000/svg" xmlns:xlink="http://www.w3.org/1999/xlink" version="1.1">
<metadata>
Created by FontForge 20170910 at Mon Mar 26 15:10:05 2018
 By Jimmy Wärting
Copyright \(c\) 2018 by Jamaludin . All rights reserved.
</metadata>
<defs>
<font id="Rhesmanisa-Regular" horiz-adv-x="213" >
  <font-face 
    font-family="Rhesmanisa Regular"
    font-weight="400"
    font-stretch="normal"
    units-per-em="1000"
    panose-1="0 0 0 0 0 0 0 0 0 0"
    ascent="773"
    descent="-227"
    x-height="290"
    cap-height="770"
    bbox="-357 -657 1353 1269.64"
    underline-thickness="50"
    underline-position="-100"
    stemh="30"
    unicode-range="U+000D-FB02"
  />
<missing-glyph horiz-adv-x="176" 
 />
    <glyph glyph-name="C_h" unicode="Ch" horiz-adv-x="877" 
d="M896 221c6 -4 8 -12 5 -19c0 0 -1 -3 -2 -4c-19 -34 -103 -184 -151 -234c-4 -4 -10 -6 -15 -3c-7 3 -9 9 -7 14c18 54 24 100 24 136c0 47 -11 76 -28 81c-29 9 -101 -53 -179 -266c-2 -5 -7 -8 -12 -8c-6 0 -10 3 -12 8c-4 10 18 110 47 233l-3 2
c-147 -202 -321 -289 -440 -289c-16 0 -20 0 -24 1c-60 7 -107 42 -129 92c-8 22 -14 49 -14 75c0 109 75 262 204 426c190 237 332 359 407 344c20 -3 43 -17 55 -56c3 -12 5 -31 5 -53c0 -131 -88 -344 -187 -439c-5 -5 -13 -4 -18 1s-4 12 1 17c101 97 179 304 179 422
c0 18 -1 33 -5 46c-6 20 -19 33 -35 36c-34 4 -136 -22 -383 -333c-161 -203 -198 -334 -198 -410c0 -30 6 -52 14 -67c17 -41 56 -69 106 -75c111 -11 292 71 443 279l28 40l14 21c40 162 85 338 102 398c17 65 47 140 81 145c10 2 21 -4 26 -14s9 -26 9 -52
c0 -91 -49 -268 -194 -487l-15 -65c-8 -32 -16 -64 -22 -92l4 -2c55 109 109 162 153 146c30 -10 45 -50 45 -106c0 -25 -2 -51 -6 -72l3 -1c49 75 106 176 107 178c3 7 11 9 17 6zM713 631c-22 -76 -51 -193 -80 -310l4 -2c112 190 143 336 143 402c0 18 -3 30 -7 36
c-9 -5 -34 -34 -60 -126z" />
    <glyph glyph-name="C_l" unicode="Cl" horiz-adv-x="799" 
d="M818 221c6 -4 7 -11 5 -17l-2 -6c-18 -36 -99 -203 -185 -203c-16 0 -29 7 -39 19v-1c-12 17 -18 43 -18 77s6 75 15 121l-3 1l-28 -35v1c-122 -159 -327 -271 -466 -271c-39 0 -74 9 -98 29c-25 17 -47 49 -47 105c0 81 48 213 207 426c185 247 318 366 396 352
c18 -3 44 -21 57 -58c4 -16 7 -37 7 -61c0 -132 -85 -343 -180 -438c-5 -2 -13 -3 -18 1c-5 5 -4 12 1 17c99 94 171 300 171 421c0 21 -2 39 -6 53c-7 23 -20 36 -37 39c-30 5 -136 -28 -371 -342c-129 -173 -202 -322 -202 -411c0 -38 13 -67 37 -85c20 -15 49 -22 83 -22
c121 0 320 104 446 260c24 31 47 61 67 90c18 75 47 175 74 267c10 31 19 62 26 88c36 118 81 201 118 205c13 2 24 -4 30 -16c5 -9 9 -24 9 -44c0 -90 -67 -274 -233 -510c-18 -74 -30 -141 -30 -186c0 -26 4 -47 13 -59c4 -5 11 -8 19 -8c58 0 122 117 156 179l9 16
c3 7 11 9 17 6zM709 543l-8 -27c-14 -48 -31 -103 -45 -158l4 -2c149 229 191 391 179 448v-1c-2 12 -8 16 -8 16c-11 0 -54 -48 -95 -188c-8 -25 -17 -55 -27 -88z" />
    <glyph glyph-name="A_t" unicode="At" horiz-adv-x="505" 
d="M711 601c6 0 12 -5 12 -13c0 -6 -6 -12 -12 -12c-76 0 -160 -26 -248 -69c-81 -267 -146 -504 -144 -561c36 22 111 149 154 221c2 4 7 13 10 17l17 26l5 8c3 6 9 9 12 6c9 -7 13 -17 8 -23l-19 -31c-99 -169 -154 -250 -193 -250c-6 0 -10 3 -14 8c-9 11 -25 34 107 475
c8 28 18 62 27 89c-50 -26 -103 -59 -157 -95c-64 -200 -103 -387 -103 -497c0 -23 2 -45 7 -64c2 -7 -3 -13 -10 -15s-13 3 -15 10c-5 18 -7 42 -7 69c0 108 34 284 94 474c-76 -54 -153 -114 -219 -169c-134 -252 -219 -471 -222 -480c-2 -4 -8 -8 -12 -8c-1 0 -2 1 -3 1
l1 -1c-9 2 -13 10 -10 17c1 3 71 189 189 417l-3 3l-86 -74c-23 -22 -43 -39 -61 -54l-14 -12c-2 -2 -6 -3 -8 -3c-3 0 -7 2 -9 4c-3 4 -2 14 1 18c15 12 32 26 50 43c8 7 16 15 25 22c40 36 88 77 141 121c107 198 263 435 420 595c5 2 13 4 17 1h-1c5 -4 6 -12 4 -17
c-55 -106 -111 -238 -152 -361c48 32 100 61 153 88l87 277c6 20 10 31 10 31c2 7 10 12 16 9c7 -3 11 -9 9 -16l-70 -219l-22 -66c85 37 167 60 238 60zM62 275l4 -3c59 47 122 98 188 142c34 105 75 210 122 308l-4 3c-116 -129 -221 -292 -310 -450z" />
    <glyph glyph-name="C_t" unicode="Ct" horiz-adv-x="743" 
d="M960 570c2 -7 -3 -13 -10 -15l-275 -78c-87 -283 -156 -533 -154 -593c40 24 127 172 165 238c24 43 43 76 55 89c7 10 17 14 23 8h-1c5 -4 6 -12 2 -17c-9 -11 -32 -49 -57 -93c-99 -170 -153 -251 -193 -251c-5 0 -10 3 -14 7v-1c-6 10 -19 27 47 271l-3 3
c-122 -147 -302 -232 -426 -232h-16v-1c-61 4 -108 34 -130 78c-8 18 -14 42 -14 69c0 78 59 222 200 414c173 223 325 365 399 352c18 -3 43 -17 56 -58c4 -14 6 -35 6 -60c0 -64 -18 -146 -50 -226l86 23c31 102 59 190 74 237c7 23 13 38 13 38v-1c3 7 10 10 16 8
s9 -10 9 -15c-29 -84 -57 -174 -83 -258l259 74c6 0 14 -4 16 -10zM608 341c10 33 20 64 29 95l9 32l-80 -23l1 1h-8c-32 -72 -73 -140 -120 -183c-5 -5 -13 -5 -17 0c-5 5 -5 13 0 17c100 94 172 300 172 421c0 21 -2 39 -6 53c-7 23 -19 35 -35 37
c-34 4 -136 -24 -374 -339c-156 -207 -195 -331 -195 -401c0 -23 5 -43 12 -57c23 -44 72 -60 109 -62c134 -9 350 97 465 284z" />
    <glyph glyph-name="I_t" unicode="It" horiz-adv-x="596" 
d="M669 525c6 4 15 2 19 -4c3 -6 2 -15 -5 -18l-185 -115c-72 -243 -127 -449 -125 -503c41 24 126 172 164 239c7 12 17 27 24 39c15 25 28 45 36 56v-1c4 6 12 8 15 5c7 -6 10 -15 5 -21v1c-7 -8 -23 -36 -42 -68l-15 -25c-94 -161 -154 -250 -193 -250c-5 0 -10 3 -14 7
v-1c-8 11 -25 34 104 471l8 32l-139 -87h-4c-4 0 -9 3 -11 6v-1c-4 6 -2 15 4 18l162 101c40 136 83 268 102 327l-221 -120c-69 -264 -169 -656 -189 -765l110 66c6 5 14 3 18 -4c3 -6 2 -14 -4 -17l-129 -79c-2 -3 -4 -4 -7 -5l1 1l-137 -85c-2 -1 -3 -2 -7 -2s-9 3 -11 6
v-1c-4 6 -2 15 4 18l134 84c3 28 20 114 92 400c38 151 78 306 94 365c-83 -44 -169 -93 -252 -137c-2 -1 -5 -1 -7 -1c-4 0 -9 2 -11 6c-3 6 0 14 5 17l532 290h-1l5 1c3 1 5 1 6 0l3 -2c1 0 2 0 3 -1l1 -2l1 -6v-6l1 1c-35 -108 -71 -224 -104 -329z" />
    <glyph glyph-name="S_t" unicode="St" horiz-adv-x="949" 
d="M1163 694c3 -6 6 -16 6 -27c0 -18 -8 -42 -32 -68c-48 -54 -152 -114 -264 -162c-76 -251 -144 -491 -143 -552c39 23 124 169 165 238c5 5 8 13 11 18c20 33 34 58 48 76c4 5 11 8 17 2c5 -4 6 -12 2 -18v1c-9 -10 -31 -50 -56 -93c-98 -165 -154 -250 -194 -250
c-5 0 -11 4 -15 10c-7 8 -18 25 68 326c-104 -6 -200 -20 -289 -39v-4c105 -29 187 -68 201 -119c-1 -55 -71 -125 -227 -204c-267 -138 -459 -186 -577 -186c-51 0 -92 10 -115 24c-22 15 -35 45 -36 71c13 92 157 217 384 322c79 37 161 67 251 93v4
c-159 39 -319 85 -348 172c-10 44 11 93 65 147c200 203 577 301 823 301c15 0 32 0 46 -1l19 59c2 6 10 9 16 9c6 -3 10 -10 8 -16l-4 -11c-4 -14 -8 -30 -13 -43l30 -3c77 -12 133 -40 153 -77zM827 374l16 49c-129 -52 -262 -90 -333 -90c-16 0 -27 2 -34 4
c-6 3 -10 11 -7 16c3 7 10 11 16 8c43 -17 211 27 367 94c36 114 71 226 94 297c-11 0 -26 1 -38 1c-241 0 -609 -96 -806 -294c-47 -47 -66 -88 -57 -124c22 -77 192 -120 341 -157l40 -9c111 27 231 45 357 54zM662 29c-6 50 -117 83 -236 113c-88 -23 -218 -72 -298 -105
c-243 -118 -364 -241 -369 -301c-1 -21 6 -35 24 -48c21 -14 54 -21 100 -21c117 0 311 52 567 184c181 94 215 149 212 178zM1119 615c24 26 30 50 21 67c-16 29 -68 52 -134 63l-34 4c-28 -85 -60 -186 -90 -280c102 46 194 99 237 146z" />
    <glyph glyph-name="f_f" unicode="ff" horiz-adv-x="345" 
d="M352 229c7 2 13 -3 15 -10c2 -6 -5 -12 -10 -15l-175 -39c20 -21 30 -43 33 -68c16 -109 -98 -245 -103 -251c-3 -5 -9 -7 -14 -5c-5 4 -9 9 -8 14c5 69 32 182 66 300l-9 7c-4 2 -6 8 -5 13c1 4 6 8 9 10l14 2c6 22 13 46 20 68l9 31c-48 -38 -106 -67 -172 -86l-16 -56
c16 -19 27 -40 32 -62c2 -12 4 -25 4 -43c0 -125 -110 -256 -115 -262c-2 -4 -6 -5 -10 -5h-5c-6 2 -10 7 -9 13c7 69 36 206 76 353c-18 18 -39 33 -67 45c-5 2 -9 9 -9 14c2 4 8 10 13 10c32 4 60 9 85 14c60 211 132 414 166 439c6 6 12 6 16 5c5 -1 12 -6 16 -17
c11 -50 -58 -259 -147 -345c-6 -22 -14 -51 -21 -73c78 24 136 61 178 100c43 123 92 230 120 260c8 5 15 6 19 5c12 -3 18 -16 16 -37c-2 -39 -35 -148 -129 -239c-14 -38 -29 -84 -42 -125zM12 77c-3 11 -8 23 -15 35c-26 -98 -48 -196 -60 -274l3 -1c33 50 77 130 77 202
c0 13 -1 26 -5 38zM190 93c-2 14 -7 27 -15 41c-22 -78 -40 -156 -51 -225l3 -1c30 49 71 123 63 185zM174 623l-4 1c-21 -34 -57 -128 -93 -242l4 -2c53 81 88 195 93 243zM338 555l-4 1c-18 -25 -44 -86 -73 -163l4 -2l20 31c34 55 50 107 53 133zM-41 187l27 -20
c1 6 4 16 7 25z" />
    <glyph glyph-name="l_l" unicode="ll" horiz-adv-x="353" 
d="M195 167l-15 -27c-20 -89 -21 -146 -16 -162c34 8 100 109 138 167c-2 -4 6 7 8 10l12 18c10 15 14 23 30 43c4 7 12 9 18 3h-1c5 -4 7 -12 4 -15l-42 -63c-68 -103 -126 -188 -170 -188c-9 0 -14 3 -18 9c-6 8 -9 24 -9 45c0 16 2 34 4 53l-3 1
c-118 -202 -154 -203 -168 -203c-7 0 -14 2 -17 8c-6 9 -9 25 -9 47c0 63 22 178 62 319c0 1 0 2 1 4c25 87 58 188 93 290c74 204 103 222 113 223c6 1 13 -3 16 -9c24 -39 -55 -309 -198 -515c-55 -198 -67 -314 -58 -342c14 6 62 45 185 266c17 68 41 149 71 231
c10 28 102 262 148 274c5 0 13 -3 17 -8c21 -40 -83 -271 -196 -479zM121 518c-23 -67 -43 -128 -61 -185l4 -2c88 155 132 312 140 374l-4 1c-14 -23 -37 -75 -79 -188zM250 372c-13 -37 -24 -70 -34 -101l4 -2c95 181 136 292 146 340l-3 2c-23 -33 -64 -109 -113 -239z
" />
    <glyph glyph-name="t_t" unicode="tt" horiz-adv-x="346" 
d="M407 576c6 2 13 -3 16 -9c0 -5 -5 -13 -10 -16l-126 -35c-75 -250 -137 -489 -131 -539c37 13 110 123 147 179c16 25 32 47 42 60c4 7 12 9 18 3h-1c4 -4 5 -12 2 -17c-19 -24 -14 -20 -22 -33l-18 -27c-71 -109 -129 -190 -172 -190c-7 0 -13 2 -16 7c-3 4 -7 9 -7 27
c0 22 5 63 25 144l-4 2l-6 -9v1c-2 -2 -6 -10 -8 -15c-97 -166 -154 -251 -193 -251c-5 0 -10 3 -14 7v-1c-8 12 -9 82 107 476l34 113l-175 -49l1 1h-4c-6 0 -11 4 -12 9c-2 6 2 13 9 15l191 53l78 247l13 42c3 5 10 10 16 8s9 -11 9 -16c-29 -88 -60 -183 -87 -272l159 45
c21 70 37 118 38 119c2 8 10 14 16 11s10 -10 8 -17c-4 -14 -8 -29 -13 -43l-19 -61zM207 330l38 132l13 44l-159 -44c-84 -276 -151 -520 -150 -578c39 22 125 169 165 238c25 42 62 96 63 97c8 33 18 70 30 111z" />
    <glyph glyph-name="g_j" unicode="gj" horiz-adv-x="399" 
d="M362 100c7 3 15 0 17 -7s-1 -13 -7 -16c-35 -16 -65 -30 -88 -43c-51 -141 -102 -257 -154 -286c-13 -6 -23 -9 -34 -9c-10 0 -17 3 -21 6c-15 9 -23 30 -20 57c7 70 75 169 208 248c12 32 22 63 30 88l10 31c1 2 2 3 2 4l4 16c-76 -26 -142 -63 -200 -104
c-46 -150 -128 -326 -220 -378c-10 -4 -24 -8 -34 -8c-9 0 -16 3 -21 7c-14 10 -18 28 -13 52c18 80 117 231 267 343c1 5 4 11 5 16l20 74l-3 2c-25 -35 -51 -56 -73 -61c-12 -1 -27 2 -34 10s-10 18 -10 32c0 16 5 38 15 66c25 65 70 91 101 81c6 -2 18 -9 26 -27
c7 16 11 30 15 45c2 6 9 10 15 10c5 -3 11 -10 9 -18v-2c-5 -22 -23 -107 -52 -204c61 40 134 75 205 97l2 1c1 -1 4 -1 5 -1s2 -1 3 -1h-2c2 -3 1 -3 3 -3l1 -2l3 -4c1 -3 0 -2 0 -2c0 -1 -1 -3 -1 -4l1 1l-7 -25l-7 -20l-30 -91l14 7c16 8 33 15 50 22zM-121 -269
c78 36 146 183 195 326c-134 -110 -215 -242 -227 -305c-3 -18 -1 -24 1 -26c3 -1 13 -4 31 5zM117 -229c42 24 91 134 131 242c-121 -81 -163 -170 -167 -213c-2 -22 1 -29 3 -31c8 -5 20 -6 33 2zM105 232c12 38 5 61 -7 66h-3c-15 0 -45 -21 -63 -67
c-15 -41 -13 -66 -10 -74h7c18 4 48 28 76 75zM357 293c-5 -13 -11 -16 -19 -18c-9 -2 -25 -3 -19 7v-1l2 4c2 6 4 12 12 14h-1c9 2 28 2 25 -6z" />
    <glyph glyph-name="y_j" unicode="yj" horiz-adv-x="397" 
d="M352 101c7 3 15 0 17 -7c2 -6 -2 -13 -7 -16c-36 -16 -67 -32 -94 -47c-71 -185 -131 -292 -176 -319c-10 -5 -22 -9 -30 -9c-9 0 -15 2 -19 5c-11 9 -19 35 -19 56c10 72 75 193 223 283l3 9c15 39 33 86 49 133c-55 -23 -126 -69 -198 -124c-15 -37 -32 -76 -50 -114
c-91 -201 -168 -298 -232 -298c-9 0 -15 1 -19 2c-26 8 -40 26 -40 51c1 84 155 232 222 291c30 27 63 54 97 82c11 26 22 55 33 81l-3 3c-43 -49 -85 -78 -112 -80c-14 -1 -24 5 -31 14c-13 21 -4 61 25 118c3 7 11 9 17 6c6 -4 8 -12 5 -18c-32 -60 -29 -84 -27 -90
c0 -2 2 -4 9 -4c32 2 108 64 161 173c3 5 10 8 16 7c5 -3 8 -11 6 -19c0 -1 -23 -69 -59 -160c72 53 147 97 198 113l3 1c1 -1 3 -1 4 -1c2 -1 2 -2 2 -2l2 -2l2 -4l2 -3v-5l1 1c-1 -3 -4 -9 -5 -13l-45 -128c25 15 48 26 69 34zM-193 -320c68 -21 166 152 249 344l-3 3
c-138 -115 -268 -255 -268 -321c0 -10 2 -21 22 -26zM79 -266c28 15 75 78 152 272c-121 -86 -176 -188 -181 -244c-1 -19 2 -30 6 -33c4 -2 13 0 23 5zM342 293c-5 -13 -11 -16 -19 -18c-9 -2 -25 -3 -19 7v-1l2 4c2 6 4 12 12 14h-1c9 2 28 2 25 -6z" />
    <glyph glyph-name="a_r" unicode="ar" horiz-adv-x="445" 
d="M460 218c5 -5 5 -12 0 -17c-112 -115 -123 -115 -130 -115c-5 0 -9 2 -12 5v-1c-5 7 -11 15 51 192c-12 -2 -25 -4 -36 -3c-13 1 -28 5 -44 11c-35 -96 -126 -226 -194 -226c-6 0 -14 4 -18 15c-1 10 0 37 7 63l-3 3c-20 -21 -44 -35 -71 -35c-17 0 -30 9 -34 25
c-10 35 25 100 64 126c12 6 27 11 38 11c13 0 26 -4 40 -15l8 18c1 3 1 4 1 5c3 5 5 7 6 8h-1c4 2 9 4 11 2c12 -7 10 -15 9 -20v1l-5 -11c-1 -4 -3 -9 -5 -13c-15 -46 -42 -129 -42 -157c54 11 135 122 165 210c-32 16 -58 39 -67 60c-2 3 -2 9 1 12c2 4 22 33 48 41
c11 2 25 0 35 -8c10 -6 19 -20 19 -47c0 -13 -1 -26 -6 -43c13 -5 26 -9 40 -10c24 -2 39 4 49 18v-1c5 5 12 7 17 5c5 -3 9 -9 6 -16c-23 -65 -49 -147 -60 -187c22 20 65 62 96 94c5 4 13 5 17 0zM10 135c38 0 73 47 98 99c-11 8 -21 13 -31 13c-6 0 -16 -3 -24 -8
c-33 -22 -56 -76 -52 -98c1 -4 2 -6 9 -6zM270 327l3 1c6 29 1 50 -4 56c-6 4 -11 5 -17 3c-11 -2 -21 -13 -28 -22c9 -13 26 -27 46 -38z" />
    <glyph glyph-name="e_r" unicode="er" horiz-adv-x="411" 
d="M415 219c4 5 13 4 18 2c4 -6 5 -14 0 -19c-114 -115 -125 -115 -131 -115c-5 0 -10 2 -11 5c-5 6 -11 14 52 192c-12 -4 -26 -4 -39 -3s-31 6 -49 13c-12 -25 -29 -57 -48 -90c-49 -76 -109 -112 -151 -112c-14 0 -26 3 -35 7c-24 12 -37 36 -37 64c0 12 3 26 9 41l4 12
c40 84 98 118 125 114c14 -2 23 -10 24 -22c5 -31 -43 -71 -128 -108c-1 -1 -2 -3 -2 -6l1 1c-6 -13 -8 -23 -8 -32c0 -19 9 -33 25 -41c33 -17 99 22 151 96c22 34 36 63 46 87c-27 17 -52 38 -61 56c-2 4 -2 10 0 13c6 10 26 36 49 40c12 3 25 1 36 -7
c12 -8 17 -21 17 -39c0 -15 -3 -31 -9 -50c16 -6 31 -10 44 -11c24 -2 40 4 50 18c4 3 12 6 16 3c5 -2 8 -10 7 -15c-24 -65 -50 -147 -63 -188c25 22 67 62 98 94zM238 331l3 1c9 29 8 48 -1 54c-4 3 -10 4 -15 3h1c-12 -2 -23 -13 -29 -21c8 -13 24 -27 41 -37zM104 302
c-17 -7 -41 -26 -65 -64c62 31 80 58 82 67c-5 0 -9 0 -17 -3z" />
    <glyph glyph-name="i_r" unicode="ir" horiz-adv-x="366" 
d="M366 218c3 5 12 4 17 1c4 -5 5 -14 0 -18c-114 -115 -125 -115 -131 -115c-5 0 -10 2 -11 5c-4 6 -10 14 51 192c-11 -4 -27 -4 -38 -3c-18 2 -40 8 -61 19c-47 -103 -149 -268 -203 -268c-6 0 -13 2 -16 7c-4 6 -6 16 -6 28c0 51 29 148 50 210c3 6 10 10 16 8
c7 -2 11 -9 8 -16c-28 -83 -52 -181 -49 -211c17 8 57 47 102 117c32 50 60 102 75 137c-24 16 -43 34 -50 49c-2 4 -2 10 1 13c2 4 21 34 49 40c12 2 24 0 35 -7c8 -5 10 -15 10 -26c0 -15 -3 -28 -5 -37l-8 -21c18 -9 37 -15 55 -16c23 -2 39 4 49 18c5 3 13 6 17 3
c5 -2 8 -10 7 -15c-25 -65 -51 -147 -63 -188c24 22 67 62 99 94zM178 337l3 1c8 23 11 41 9 48c-5 2 -10 3 -15 2c-10 -2 -22 -13 -29 -23c6 -9 18 -20 32 -28zM50 333h1c-7 -1 -20 -2 -15 5c0 1 1 3 2 4c2 4 3 8 9 10h-1c6 1 19 0 20 -5c-5 -9 -8 -12 -16 -14z" />
    <glyph glyph-name="o_r" unicode="or" horiz-adv-x="433" 
d="M433 216c5 6 13 6 17 1c4 -4 3 -13 1 -18c-84 -84 -126 -115 -132 -115c-4 0 -9 3 -11 6v-1c-4 7 -11 16 52 192c-11 -4 -26 -4 -38 -3c-19 2 -43 9 -65 20c-30 -39 -82 -91 -125 -110c-27 -38 -69 -72 -108 -72c-17 0 -26 7 -32 13c-7 8 -10 18 -10 31
c0 53 66 156 123 156c17 -1 31 -4 42 -15c9 -9 14 -21 14 -35c0 -10 -2 -21 -6 -34c28 21 57 47 80 79c-22 15 -39 33 -47 47c-1 4 -1 11 1 13c7 10 26 36 51 42c10 1 23 -2 33 -10c7 -6 14 -15 14 -32c0 -15 -4 -31 -16 -52c17 -8 36 -14 54 -15c24 -2 40 3 50 18
c3 5 10 6 16 3s8 -10 6 -15c-23 -65 -47 -139 -58 -180l3 -3l10 10c23 22 54 51 81 79zM11 145v1c2 -4 7 -5 13 -5c22 0 47 16 68 38c-6 2 -9 2 -9 3c-13 8 -18 20 -18 34c0 18 7 42 17 68c-36 -28 -75 -91 -75 -124c0 -7 1 -12 4 -15zM136 266c0 8 -1 13 -6 17h1
c-3 3 -8 5 -18 6c-32 -72 -22 -82 -22 -82c6 -4 14 -3 23 1c14 21 22 41 22 58zM247 333l3 1c14 24 16 42 8 50c-6 5 -7 5 -8 5c-16 -3 -28 -15 -35 -25c8 -11 19 -22 32 -31z" />
    <glyph glyph-name="u_r" unicode="ur" horiz-adv-x="484" 
d="M481 217c4 5 13 4 18 1c3 -5 5 -14 1 -18c-114 -115 -125 -115 -132 -115c-4 0 -9 3 -11 6v-1c-4 7 -10 15 51 192c-13 -4 -25 -4 -37 -3c-14 1 -33 6 -51 13c-11 -26 -26 -55 -48 -90c-42 -71 -71 -98 -97 -90c-19 7 -27 39 -28 75c-49 -83 -93 -128 -126 -128
c-7 0 -12 1 -15 2c-16 8 -25 29 -25 59c0 43 17 108 51 183c3 7 11 10 18 7s10 -11 7 -17c-39 -85 -51 -142 -51 -174c0 -18 5 -30 11 -34c13 -6 66 28 135 168c2 6 9 9 15 7s9 -8 9 -14h1c-3 -27 -4 -45 -4 -56c0 -27 2 -48 10 -53c0 0 20 1 68 79c21 36 36 65 46 87
c-28 15 -51 38 -61 56c-1 4 -1 10 1 13c2 4 21 34 49 40c10 3 25 -1 35 -7c11 -8 17 -22 17 -41c0 -14 -3 -30 -9 -48c15 -6 30 -10 45 -11c23 -2 39 3 49 18c3 5 10 6 16 3s8 -10 6 -15c-23 -65 -47 -139 -58 -180l3 -3l10 10c23 22 54 51 81 79zM304 329l3 1
c13 43 1 53 -1 54c-5 3 -10 4 -15 3c-12 -3 -22 -13 -28 -22c8 -12 23 -26 41 -36z" />
    <glyph glyph-name="l_t" unicode="lt" horiz-adv-x="336" 
d="M382 407c6 1 14 -2 16 -9c1 -7 -2 -14 -9 -16l-161 -47c-51 -180 -87 -330 -82 -369c38 15 110 128 146 184c17 25 32 48 46 66c4 7 12 9 18 3h-1c5 -4 6 -13 2 -18c-8 -11 -20 -29 -34 -51v1l-9 -15c-71 -112 -128 -196 -173 -196c-5 0 -12 4 -15 8s-6 9 -6 26
c0 22 5 63 24 145l-4 2l-7 -12c-98 -170 -154 -251 -192 -251c-6 0 -10 3 -14 7v-1c-15 21 8 129 70 346c0 1 0 2 1 3l89 301l30 97c50 164 68 166 78 167c7 1 13 -3 17 -10c2 -5 4 -16 4 -32c0 -101 -73 -375 -194 -531c-41 -144 -76 -277 -75 -321c38 23 124 169 164 238
c2 2 4 7 6 10c21 36 41 67 52 82l27 100l4 13l-41 -12l1 1c-1 0 -2 -1 -3 -1c-7 0 -13 5 -15 9c-1 5 4 13 9 16l57 16c42 146 84 278 85 279c2 7 10 12 16 10c7 -2 12 -9 9 -16c-28 -86 -57 -180 -81 -265zM112 506c-18 -58 -40 -131 -62 -207l4 -2c89 157 136 365 138 437
l-4 1c-9 -18 -24 -55 -47 -130z" />
    <glyph glyph-name="t_l" unicode="tl" horiz-adv-x="347" 
d="M369 690c3 -5 4 -17 4 -33c0 -86 -58 -297 -169 -444c-43 -162 -51 -225 -46 -248c34 14 120 136 187 250c3 7 11 9 17 6c7 -5 7 -12 5 -19c-40 -68 -158 -262 -213 -262c-6 0 -12 4 -17 9v-1c-4 6 -7 15 -7 31c0 28 8 77 29 160l-4 2c-89 -162 -178 -283 -212 -283
c-6 0 -10 3 -14 7c-9 12 -26 35 107 475c16 56 33 114 49 164l-178 -50l1 1h-4c-6 0 -11 3 -12 9c-3 6 2 13 9 15l194 55c19 62 40 132 61 194l14 43c2 6 9 10 16 8c6 -2 9 -11 9 -16l-18 -54c-17 -54 -36 -112 -53 -166l90 25c6 1 13 -2 15 -9c2 -6 -3 -13 -9 -16l-106 -29
c-91 -297 -167 -568 -166 -631c45 39 98 127 145 205c27 44 55 88 87 133c20 74 48 175 83 294c53 168 78 184 88 185c7 1 14 -3 18 -10zM289 507c-5 -12 -8 -24 -11 -35c-19 -62 -35 -119 -49 -168l4 -2c80 139 116 301 116 357l-3 2c-10 -20 -30 -62 -57 -154z" />
    <glyph glyph-name="t_h" unicode="th" horiz-adv-x="457" 
d="M474 221c6 -4 8 -12 5 -18c-4 -8 -101 -182 -153 -239c-4 -3 -12 -5 -17 -3c-5 3 -6 9 -5 15c15 50 24 101 24 135c0 46 -12 75 -29 81c-28 8 -103 -73 -178 -266c-2 -4 -7 -7 -12 -7c-6 0 -10 3 -12 9c-4 10 18 107 45 223l-4 2c-99 -195 -160 -295 -195 -295
c-6 0 -10 3 -14 7c-9 12 -26 35 107 475c16 56 33 114 49 164l-178 -50l1 1h-4c-6 0 -11 3 -12 9c-3 6 2 13 9 15l194 55c19 62 40 132 60 194l15 43c2 6 9 10 16 8c6 -2 9 -11 9 -16l-18 -54c-18 -54 -37 -112 -53 -166l66 18c6 2 13 -3 16 -9c0 -5 -5 -12 -10 -15l-82 -23
c-91 -296 -167 -566 -167 -631c47 39 161 265 206 356l22 41c20 83 40 164 55 219c27 107 67 184 102 190c9 2 18 -2 24 -10c4 -6 6 -15 6 -31c0 -55 -39 -168 -137 -327l-26 -49c-16 -64 -32 -134 -45 -185l-3 -11l4 -2c54 106 108 156 152 143c28 -13 45 -53 45 -107
c0 -25 -2 -51 -5 -72l3 -1c43 67 95 159 105 178c3 6 13 10 19 6zM255 494c-10 -37 -19 -75 -28 -112l4 -2c98 171 111 262 104 284c-14 -10 -52 -58 -80 -170z" />
    <glyph glyph-name=".notdef" horiz-adv-x="176" 
 />
    <glyph glyph-name="NULL" horiz-adv-x="0" 
 />
    <glyph glyph-name="NULL" horiz-adv-x="0" 
 />
    <glyph glyph-name="CR" unicode="&#xd;" horiz-adv-x="176" 
 />
    <glyph glyph-name="space" unicode=" " horiz-adv-x="176" 
 />
    <glyph glyph-name="e" unicode="e" horiz-adv-x="149" 
d="M34 93c-11 0 -18 2 -23 4c-17 10 -29 30 -29 55c0 16 3 34 12 53l5 11c40 87 98 118 125 114c13 -1 22 -9 24 -21c4 -31 -44 -73 -129 -108c0 -1 -1 -3 -1 -4l1 1c-8 -19 -11 -34 -11 -45c0 -17 6 -29 15 -33c19 -9 70 15 125 98c4 5 12 7 18 4c6 -4 6 -12 4 -18
c-51 -77 -103 -111 -136 -111zM122 302l-4 4c-1 0 -5 -1 -13 -4c-18 -6 -41 -25 -63 -58l3 -3c57 30 74 53 77 61z" />
    <glyph glyph-name="f" unicode="f" horiz-adv-x="153" 
d="M154 223h1c6 2 13 -4 14 -12c2 -6 -4 -12 -10 -13l-148 -27c0 -1 -1 -4 -1 -5c22 -24 37 -47 43 -74c2 -9 3 -21 3 -36c0 -123 -120 -270 -125 -276c-3 -3 -7 -5 -10 -5s-4 0 -5 1c-5 2 -9 7 -8 13c6 77 35 217 72 362l-22 13c-4 3 -8 9 -8 14c2 3 6 9 10 11l32 5
c58 222 131 445 165 470c8 6 13 6 16 5c5 -1 14 -5 17 -17c14 -50 -52 -259 -141 -345l-10 -37l-19 -70zM165 627l-4 1c-20 -36 -54 -131 -89 -246l4 -2c52 81 84 198 89 247zM28 86v1c-4 18 -12 33 -25 47c-27 -107 -51 -212 -62 -293l3 -1c36 54 87 143 87 216
c0 10 -1 20 -3 30z" />
    <glyph glyph-name="g" unicode="g" horiz-adv-x="247" 
d="M268 216c3 -6 1 -14 -5 -17c-53 -28 -104 -63 -148 -99c-49 -159 -126 -347 -226 -393c-14 -6 -26 -9 -36 -9c-18 0 -25 9 -29 16c-27 57 100 253 268 397c8 27 16 57 22 81l-3 2c-25 -34 -53 -56 -75 -61c-13 -3 -24 1 -33 10c-7 8 -10 19 -10 33c0 16 5 38 15 65
c24 65 72 92 102 81c6 -2 17 -8 25 -27c7 18 11 32 15 45c2 7 8 12 15 10s12 -8 10 -13c-1 -10 -18 -93 -47 -197c43 35 86 63 123 82c7 2 15 1 17 -6zM106 233c13 39 5 62 -7 66l-1 1c-17 0 -48 -19 -66 -68c-18 -47 -14 -68 -10 -73c1 -3 6 -2 9 0c16 4 48 29 75 74z
M-121 -270c81 38 148 187 195 329l-3 3c-148 -139 -239 -306 -223 -339c1 -1 9 -2 31 7z" />
    <glyph glyph-name="h" unicode="h" horiz-adv-x="282" 
d="M285 222c6 3 14 1 17 -5c4 -6 1 -15 -5 -18l1 1c-1 0 -64 -35 -115 -87c-3 -4 -10 -5 -15 -2s-7 9 -6 14c8 25 13 51 13 71c0 33 -11 55 -27 61c-24 10 -87 -17 -155 -181c-2 -4 -7 -7 -12 -7c-6 0 -10 3 -12 8c-3 8 -6 17 91 359c46 168 95 335 96 337c1 7 9 12 16 9
c5 -2 9 -10 9 -15c-52 -180 -123 -429 -160 -571l4 -2c51 79 99 100 132 89c33 -15 48 -62 41 -122c47 39 85 60 87 61z" />
    <glyph glyph-name="i" unicode="i" horiz-adv-x="137" 
d="M153 199h-1c-4 -4 -14 -15 -24 -28l-11 -15c-61 -78 -103 -125 -125 -126v1c-7 0 -15 2 -18 7c-4 6 -6 16 -6 28c0 50 30 148 50 211c2 7 9 11 16 8c7 -2 11 -9 8 -16c-26 -82 -50 -181 -48 -212c26 16 69 70 96 104l8 11v-1c36 47 41 53 50 53c6 0 12 -6 12 -13
c0 -5 -3 -10 -7 -12zM50 334h1c-8 -2 -24 -3 -18 7l3 6c2 4 5 9 9 10c8 2 23 0 24 -6c-6 -11 -11 -15 -19 -17z" />
    <glyph glyph-name="j" unicode="j" horiz-adv-x="82" 
d="M55 94c2 -7 -1 -13 -7 -17c-32 -13 -64 -30 -94 -49c-91 -241 -160 -376 -206 -403c-9 -5 -18 -7 -25 -7c-8 0 -14 2 -18 4c-13 11 -20 37 -18 67c12 96 94 255 246 356c1 4 2 9 4 13c16 43 34 90 53 144l4 13c2 4 11 8 16 8c6 -3 10 -10 8 -16l-4 -13l-46 -127
c26 14 49 25 71 34c6 2 14 0 16 -7zM-265 -352c23 13 76 78 182 356c-136 -105 -196 -248 -204 -318c-2 -26 3 -40 7 -42c2 -2 8 -1 15 4zM45 294c-5 -13 -11 -16 -19 -18c-9 -2 -25 -3 -19 7v-1l2 4c2 6 4 12 12 14h-1c9 2 28 2 25 -6z" />
    <glyph glyph-name="A" unicode="A" horiz-adv-x="308" 
d="M430 520c7 1 14 -4 15 -13h-1c0 -6 -6 -12 -11 -14c-20 -3 -74 -37 -156 -98c-65 -200 -103 -387 -103 -496c0 -23 2 -44 7 -63c0 -5 -5 -13 -10 -16c-5 0 -12 5 -15 10c-5 18 -7 42 -7 68c0 109 34 283 91 472c-61 -47 -139 -109 -222 -177
c-134 -252 -216 -465 -217 -468c-2 -5 -7 -8 -12 -8c-2 0 -3 0 -2 -1c-8 3 -12 10 -10 17c1 4 71 185 184 408l-3 3c-49 -40 -101 -85 -156 -131h1c-2 -1 -6 -2 -9 -2s-7 1 -9 4c-5 5 -4 13 1 17l28 24c60 51 121 101 183 150c107 205 262 444 426 607c4 2 12 4 16 1
c5 -4 6 -12 4 -17c-56 -105 -110 -235 -152 -360c68 49 118 81 139 83zM55 261l4 -3c71 57 137 111 195 154c35 105 76 212 122 310l-4 3c-119 -133 -226 -302 -317 -464z" />
    <glyph glyph-name="B" unicode="B" horiz-adv-x="513" 
d="M570 918c39 -24 58 -68 52 -124c-9 -88 -82 -206 -200 -306c16 -5 31 -11 40 -17c30 -20 45 -62 40 -111c-23 -123 -163 -305 -355 -373l1 1h-5c-5 0 -11 2 -12 8c-3 5 2 13 8 16c184 69 321 236 336 352c3 27 0 66 -28 86c-10 7 -27 14 -54 15
c-63 -49 -140 -92 -220 -122c-9 -3 -21 -5 -33 -5c-15 0 -30 4 -34 15c-11 25 29 47 43 55c91 49 178 81 238 82c123 97 200 217 209 308c3 30 -4 74 -40 99c-15 9 -41 20 -84 20c-89 0 -264 -49 -558 -231c-7 -2 -15 -2 -19 4c-3 6 -1 14 4 18c245 150 449 234 573 234
c40 0 73 -8 98 -24zM119 748h1c6 -1 11 -8 9 -16l-163 -823v1c-2 -7 -7 -11 -13 -11h-1c-7 1 -12 9 -12 15l164 824c1 6 8 12 15 10zM164 368c64 23 121 53 170 85l-2 4c-43 -11 -98 -33 -171 -71c-15 -9 -25 -16 -30 -22c9 -2 22 -1 33 4z" />
    <glyph glyph-name="C" unicode="C" horiz-adv-x="708" 
d="M727 221c6 -5 8 -13 4 -19c-118 -190 -387 -313 -571 -313c-5 0 -10 1 -14 1h-12v-1c-84 6 -142 40 -166 97c-9 21 -14 44 -14 69c0 98 76 246 205 411c189 237 332 360 409 345c19 -3 42 -17 52 -56c4 -14 6 -32 6 -54c0 -130 -87 -343 -187 -438c-4 -4 -12 -3 -17 0
c-2 5 -3 14 1 17c101 97 178 305 178 422c0 18 -1 33 -5 46c-6 21 -18 34 -34 37c-35 4 -143 -34 -383 -333c-129 -162 -200 -305 -200 -398c0 -20 4 -40 12 -58c26 -60 92 -77 145 -81c176 -12 455 109 574 301c3 7 11 8 17 5z" />
    <glyph glyph-name="D" unicode="D" horiz-adv-x="774" 
d="M952 801c72 -43 113 -100 120 -169c11 -89 -83 -201 -250 -306c-150 -91 -351 -173 -512 -206l-76 -229c-2 -4 -8 -8 -12 -8h-5l1 -1c-6 3 -10 10 -9 16l72 217c-39 -7 -78 -11 -114 -11c-49 0 -94 10 -123 26c-31 22 -48 56 -43 99c5 45 36 86 91 120
c78 50 193 79 301 94l92 278c4 6 11 10 17 8s9 -11 9 -16l-90 -266c43 5 85 7 122 7c48 0 88 -4 109 -12c7 -2 11 -9 8 -16c-2 -7 -9 -11 -16 -8c-20 7 -55 11 -97 11c-35 0 -83 -3 -136 -10l-91 -270c152 34 337 106 488 199c160 99 247 202 239 281
c-7 61 -44 111 -109 150c-112 67 -284 92 -443 92c-148 0 -288 -22 -361 -52c-7 -3 -14 0 -17 7c-3 6 2 13 7 16c76 30 222 53 371 53c165 0 342 -26 457 -94zM59 152c23 -15 60 -22 106 -22c38 0 81 5 126 13l92 272c-102 -16 -208 -43 -277 -87c-47 -31 -75 -65 -79 -103
c-3 -33 7 -58 32 -73z" />
    <glyph glyph-name="E" unicode="E" horiz-adv-x="530" 
d="M979 969c7 -3 11 -10 8 -17s-10 -11 -16 -8c-30 8 -290 -43 -550 -99c0 -5 0 -10 -1 -13c0 -1 -6 -14 -15 -36c-32 -76 -111 -260 -187 -435l345 92c5 0 13 -5 16 -10c0 -5 -5 -12 -10 -15l-364 -98c-54 -120 -105 -234 -140 -305c-53 -105 -39 -134 -30 -141
c19 -18 120 -7 417 175c6 2 16 2 19 -4s2 -14 -4 -17c-204 -126 -332 -186 -404 -186c-20 0 -34 5 -45 14c-12 11 -18 25 -18 44c0 30 13 72 42 126c33 66 82 174 132 286l-138 -36h-2c-5 0 -12 5 -14 9c0 5 5 13 11 16l156 41c91 208 187 436 208 487
c-100 -22 -202 -46 -286 -66l1 1h-4c-6 0 -11 5 -12 11c-2 5 5 11 10 14c159 37 822 189 875 170z" />
    <glyph glyph-name="F" unicode="F" horiz-adv-x="356" 
d="M662 816c2 -6 -2 -14 -9 -16l1 1s-4 -2 -5 -2c-29 -9 -253 -79 -457 -155l-38 -14c0 -1 -1 -3 -1 -4c0 -4 -1 -6 -2 -11c-12 -44 -59 -220 -108 -413c144 72 271 101 294 107c1 0 4 1 4 1c6 2 12 -5 15 -10c0 -6 -5 -14 -10 -15v1l-6 -2c-30 -8 -166 -41 -306 -115
c-55 -212 -111 -447 -127 -553c-2 -4 -8 -10 -13 -10v-1c-8 1 -12 9 -13 15c15 102 68 325 121 531c-54 -31 -107 -65 -151 -104h1c-2 -1 -5 -2 -9 -2c-3 0 -7 1 -9 4c-4 5 -4 12 2 17c55 48 115 88 175 120c44 168 85 325 105 401l9 33c-346 -136 -386 -199 -386 -220
c0 -16 30 -28 48 -35c7 -2 11 -8 9 -15c-2 -6 -6 -9 -12 -9h-2c-45 13 -69 34 -69 59c0 40 50 111 471 269c228 85 460 156 462 156c7 2 13 -2 16 -9z" />
    <glyph glyph-name="G" unicode="G" horiz-adv-x="694" 
d="M418 617c214 94 307 194 304 251c-1 25 -20 35 -35 39c-12 4 -24 6 -36 6c-90 0 -262 -76 -441 -306c-121 -156 -184 -292 -184 -392c0 -38 10 -72 31 -100c30 -41 81 -60 129 -60c21 0 42 4 59 10c120 50 254 146 338 230c33 80 68 156 92 206l-3 3
c-148 -105 -350 -159 -393 -142c-6 3 -12 12 -11 18c0 12 2 38 238 118c69 25 121 36 159 33c15 12 30 24 45 37c4 4 11 4 16 1s6 -10 3 -16l-19 -38c7 -6 12 -14 14 -21c16 -44 -36 -126 -118 -211c-61 -147 -109 -291 -109 -368c0 -18 4 -37 11 -48c3 -6 1 -15 -3 -18
c-2 -1 -5 -2 -8 -2c-4 0 -8 3 -10 6v-1c-10 15 -14 37 -14 62c0 79 37 200 84 317l-3 3c-88 -78 -202 -153 -300 -193c-20 -7 -42 -12 -68 -12c-53 0 -113 22 -149 71c-18 24 -36 62 -36 116c0 86 46 221 189 406c177 218 366 316 462 316c15 0 30 -2 42 -6
c33 -10 53 -33 54 -62c4 -65 -79 -171 -320 -276c-6 -3 -14 0 -16 6c-3 7 0 14 6 17zM307 388l1 -4c51 3 189 41 306 112l-1 4c-24 -5 -63 -14 -99 -26c-129 -44 -186 -72 -207 -86zM701 486h-5c-18 -37 -36 -77 -54 -117l4 -3c40 52 62 96 55 120z" />
    <glyph glyph-name="H" unicode="H" horiz-adv-x="771" 
d="M974 429c2 -7 -3 -13 -10 -15h1c-103 -21 -191 -45 -271 -71c-105 -304 -203 -610 -193 -648c2 -6 0 -14 -7 -16h-5c-5 0 -10 2 -12 7c-5 13 -18 44 150 539l15 45l22 64c-181 -59 -318 -127 -419 -185c-78 -230 -136 -425 -127 -454c2 -6 0 -14 -7 -16h-5
c-5 0 -10 2 -12 7c-5 12 -16 38 118 442c-126 -78 -185 -136 -190 -140c-2 -2 -6 -3 -9 -3c-4 0 -8 1 -10 5c-4 4 -4 10 1 15c6 6 76 78 221 163l4 14l15 43c40 118 82 237 113 327l30 85l-3 3l-134 -149c-3 -4 -12 -3 -17 -1c-4 5 -6 13 -1 18l184 205c4 4 11 6 16 2
c5 -3 7 -9 5 -15c-53 -148 -120 -341 -179 -514c106 59 243 122 417 178c65 189 120 343 121 345c2 5 11 8 16 8c6 -4 11 -12 8 -17l-14 -39c-31 -87 -67 -188 -101 -286c77 23 162 46 254 65c6 0 13 -5 15 -11z" />
    <glyph glyph-name="I" unicode="I" horiz-adv-x="390" 
d="M594 770c7 3 15 1 18 -5c3 -7 1 -15 -5 -18l-249 -135c-69 -264 -169 -656 -189 -765l192 119c6 2 15 2 19 -4c3 -6 1 -14 -4 -18l-214 -132l-3 -3l-3 -1c-43 -26 -92 -58 -135 -84c-2 -1 -5 -1 -7 -1c-4 0 -9 1 -11 5c-3 6 -1 14 4 18l134 84c3 28 20 114 93 400
c37 150 77 305 93 365l-252 -137c-2 -1 -4 -1 -7 -1c-4 0 -9 2 -11 6c-3 6 0 14 5 17z" />
    <glyph glyph-name="J" unicode="J" horiz-adv-x="753" 
d="M777 435c6 3 13 0 17 -6c3 -6 0 -14 -6 -17l-182 -86c-17 -65 -36 -137 -56 -197c87 52 163 86 211 93c5 2 11 -6 13 -11c0 -6 -6 -13 -11 -15c-50 -8 -134 -48 -224 -105c-134 -422 -296 -707 -420 -717v1h-7c-40 0 -74 33 -100 89c-6 16 -11 38 -11 56
c0 39 15 86 44 138c89 157 295 336 472 450c20 63 40 135 59 203l-358 -169h-6c-5 0 -10 2 -11 7c-3 6 0 13 6 17zM117 -600c107 8 261 281 388 667c-167 -113 -356 -282 -438 -422c-24 -44 -41 -93 -41 -125c0 -14 4 -32 10 -47c21 -48 50 -75 81 -73z" />
    <glyph glyph-name="K" unicode="K" horiz-adv-x="452" 
d="M938 927c3 -6 2 -14 -3 -18c-282 -188 -495 -424 -634 -627c62 -272 159 -564 211 -564c6 0 12 -6 12 -13s-6 -12 -12 -12c-29 0 -81 40 -161 299c-30 102 -58 207 -70 260c-189 -287 -253 -514 -254 -517c-2 -6 -7 -9 -14 -9c-6 0 -11 6 -13 10c0 124 206 894 230 983
c3 6 10 11 16 9s9 -10 9 -15c-51 -187 -164 -615 -209 -838l4 -1c42 101 114 250 224 414c1 2 3 6 6 8c143 209 350 443 640 634c6 5 14 3 18 -3z" />
    <glyph glyph-name="L" unicode="L" horiz-adv-x="289" 
d="M824 -22c6 -1 11 -7 11 -15h1c-1 -7 -8 -12 -15 -11c-27 3 -40 3 -53 3c-280 0 -544 -202 -660 -290c-42 -33 -53 -42 -63 -42v-1c-16 2 -27 11 -34 25c-7 13 -10 31 -10 53c0 191 218 725 395 1063c3 5 11 8 17 5s8 -11 5 -17c-194 -370 -393 -884 -393 -1050
c0 -18 2 -32 8 -42c3 -6 7 -8 11 -9c11 6 34 23 49 35c121 92 393 296 676 296c18 0 37 -1 55 -3z" />
    <glyph glyph-name="M" unicode="M" horiz-adv-x="787" 
d="M823 898c8 -3 19 -9 27 -24c6 -13 9 -33 9 -60c0 -256 -297 -1032 -348 -1163c-2 -4 -7 -7 -12 -7c-2 0 -3 0 -2 -1c-8 3 -13 11 -10 17c104 266 348 941 348 1153c0 22 -3 39 -8 50c-3 7 -8 9 -10 10c-26 7 -98 -55 -207 -236c-47 -77 -98 -173 -141 -264
c-30 -81 -65 -158 -95 -217c-36 -97 -41 -97 -49 -98v1c-5 0 -10 2 -14 9c-3 4 -5 8 40 98c26 69 58 143 95 219c40 110 66 216 66 291c0 32 -5 58 -15 76c-10 19 -27 28 -49 29c-99 1 -262 -458 -342 -687c-61 -177 -74 -206 -90 -206c-5 0 -11 3 -14 9
c-16 64 164 687 219 879c2 7 9 11 15 9c7 -2 12 -9 9 -16c-70 -242 -170 -607 -206 -774l4 -2c9 24 28 78 38 109c127 360 260 707 365 707l1 -1c33 -1 58 -17 72 -43c13 -22 18 -54 18 -91c0 -43 -6 -88 -16 -133l4 -2c20 39 41 77 63 111c106 179 186 262 235 248z" />
    <glyph glyph-name="N" unicode="N" horiz-adv-x="601" 
d="M857 1264c11 -22 17 -51 17 -87c0 -124 -62 -307 -106 -421c-85 -220 -209 -465 -315 -621c-80 -117 -140 -174 -187 -174h-5c-16 2 -30 11 -41 26c-19 27 -26 76 -26 139c0 166 54 431 109 658l-4 2c-96 -217 -273 -652 -273 -812c0 -7 -6 -12 -12 -12
c-7 0 -13 5 -13 12c0 117 90 371 165 562c48 120 92 223 114 275c53 115 59 124 69 124c6 0 12 -6 12 -13s-1 -12 -4 -25l-9 -36c-87 -354 -130 -601 -130 -739c0 -57 8 -98 23 -120c6 -8 14 -14 21 -16c12 -1 62 5 169 164c185 271 418 802 418 1026c0 31 -5 57 -14 75
c-2 6 -1 14 5 17s14 2 17 -4z" />
    <glyph glyph-name="k" unicode="k" horiz-adv-x="280" 
d="M278 220c6 4 13 1 17 -4c3 -6 2 -14 -4 -17c-35 -21 -71 -29 -107 -29c-59 0 -111 23 -142 41c-28 -63 -54 -132 -75 -197l-30 -102c-2 -6 -7 -9 -12 -9h-2c-7 2 -13 8 -11 15c1 6 4 13 5 19c5 20 14 48 25 83c20 73 44 153 66 225l182 626c1 5 10 9 16 9
c7 -3 12 -10 10 -16l-167 -571l4 -1c43 78 94 135 147 129c27 -3 36 -15 40 -25c7 -19 -13 -51 -45 -82c-33 -30 -88 -69 -134 -84c29 -16 75 -35 125 -35c31 0 62 7 92 25zM215 388c-1 2 -11 6 -26 8c-39 -3 -83 -59 -124 -137c36 15 83 45 113 73c35 31 38 51 37 56z" />
    <glyph glyph-name="l" unicode="l" horiz-adv-x="175" 
d="M193 219h-1c4 -4 8 -10 6 -12c-13 -16 -36 -56 -61 -99c-100 -171 -153 -251 -193 -251c-6 0 -12 3 -15 10c-8 10 -24 32 107 474c48 160 99 317 122 390l13 41c2 5 11 9 16 9c7 -3 12 -10 10 -16c-126 -379 -250 -805 -248 -882c41 24 127 173 166 238
c26 46 47 81 59 97v-1c4 5 12 6 19 2z" />
    <glyph glyph-name="m" unicode="m" horiz-adv-x="286" 
d="M241 301h1c3 -1 7 -5 10 -8c3 -7 9 -34 -72 -254c-2 -5 -10 -8 -16 -8c-6 4 -11 12 -8 17c26 71 53 152 66 199l-4 2l-58 -87l-5 -8c-41 -63 -46 -71 -57 -71c-4 0 -8 2 -11 5v-1c-6 9 -4 16 12 62c10 28 29 88 33 125c-33 -39 -105 -173 -166 -296c-2 -4 -6 -7 -11 -7
c-4 0 -4 1 -5 1l1 -1c-5 2 -9 9 -9 15c21 90 46 186 69 275c3 6 9 13 15 11c7 -2 12 -9 10 -16l-35 -143l4 -2c100 193 124 191 132 191c6 -1 11 -3 15 -9c11 -15 5 -49 -15 -111l4 -2c70 106 85 124 100 121z" />
    <glyph glyph-name="n" unicode="n" horiz-adv-x="234" 
d="M251 221c5 -4 7 -12 5 -18c-22 -37 -87 -142 -130 -142c-5 0 -10 3 -12 6c-8 11 -3 29 21 99l4 13c14 42 36 103 32 124c-52 -6 -155 -177 -212 -298c-3 -4 -7 -7 -12 -7h-5c-6 3 -9 9 -7 16c28 91 61 188 89 279c3 6 10 10 16 8c7 -2 11 -9 9 -15l-37 -117l4 -1
c48 79 109 161 156 161c8 0 14 -4 19 -10v1c16 -21 -3 -82 -31 -161c-8 -22 -19 -54 -24 -71c28 22 69 78 98 128c3 6 11 8 17 5z" />
    <glyph glyph-name="o" unicode="o" horiz-adv-x="211" 
d="M215 221c6 0 12 -5 12 -13c0 -6 -6 -12 -12 -12c-29 0 -52 4 -71 10c-26 -46 -76 -90 -119 -90c-17 0 -28 6 -33 13c-7 8 -10 18 -10 31c0 53 65 155 122 156c21 0 34 -5 44 -14c9 -9 14 -21 14 -36c0 -12 -2 -24 -7 -36c17 -6 37 -9 60 -9zM25 141c32 0 73 38 97 77
c-8 6 -15 13 -21 22c-10 14 -12 32 -12 47c-37 -21 -81 -91 -81 -127c0 -6 2 -12 6 -18c1 -1 5 -1 11 -1zM137 266c0 8 -1 14 -3 16c-4 2 -9 5 -18 7c-1 -10 -1 -27 8 -38c0 0 8 -9 9 -10c3 10 4 17 4 25z" />
    <glyph glyph-name="p" unicode="p" horiz-adv-x="198" 
d="M136 327c11 -2 37 -22 38 -66c-11 -69 -72 -188 -124 -186c-17 1 -30 16 -39 44c-26 -62 -56 -141 -81 -218l-44 -143c-2 -6 -7 -9 -12 -9h-2c-8 2 -13 9 -10 15c0 1 14 50 36 118l160 524c4 6 11 11 17 9c7 -2 12 -9 9 -16l-50 -163l4 -1c48 85 78 95 98 92zM147 263
c3 37 -10 39 -16 39v-1c-16 3 -98 -95 -98 -160c0 -16 5 -30 17 -40c26 0 90 92 97 162z" />
    <glyph glyph-name="q" unicode="q" horiz-adv-x="250" 
d="M254 220c6 4 13 1 17 -4c4 -6 0 -14 -6 -18l-1 -1c-18 -11 -104 -69 -140 -117c8 -29 12 -56 12 -83c0 -137 -101 -237 -116 -252c-4 -3 -8 -4 -11 -4s-5 0 -4 -1c-7 4 -10 11 -8 16l100 329l35 115l-4 2c-41 -61 -77 -86 -101 -89c-14 -2 -27 3 -35 13c-6 8 -9 19 -9 31
c0 19 6 42 19 69c42 91 78 103 100 97c20 -8 33 -31 30 -57l4 -1c14 25 30 60 46 99c3 6 10 10 16 8c5 -2 8 -11 8 -16l-68 -224c54 49 112 86 116 88zM23 139c21 2 62 37 108 115c-6 -3 -11 -3 -16 -3l2 -1c-7 2 -12 8 -12 16c3 15 -5 31 -13 33c-13 0 -36 -16 -66 -83
c-21 -44 -17 -70 -11 -77c0 0 1 -1 8 0zM43 -183l4 -2c32 46 70 119 61 207l-4 1z" />
    <glyph glyph-name="r" unicode="r" horiz-adv-x="200" 
d="M-13 73h-4l1 -1c-6 2 -10 10 -10 15l50 249c1 7 7 12 14 10c7 -1 13 -8 11 -15l-25 -132l4 -1c45 87 110 189 157 185c22 -2 39 -23 48 -60c2 -6 -2 -13 -9 -15s-15 3 -17 10c-6 24 -15 39 -24 39c-40 0 -125 -144 -183 -277c-4 -4 -8 -7 -13 -7z" />
    <glyph glyph-name="s" unicode="s" horiz-adv-x="160" 
d="M161 222h1c7 2 13 -5 15 -11c0 -5 -6 -12 -11 -14c-46 -9 -94 -38 -129 -71c1 -7 2 -17 2 -32c0 -35 -14 -70 -71 -93l1 1c-1 0 -1 -1 -2 -1c-5 -2 -9 -3 -14 -3s-10 2 -13 5c-6 6 -8 15 -5 28c7 23 34 64 73 101c0 1 -1 4 -1 5v5c-4 20 -7 40 -7 59c0 46 28 97 123 132
c5 0 14 -3 16 -9c3 -5 -2 -13 -8 -16c-84 -30 -107 -67 -107 -107c0 -10 3 -27 7 -48c40 35 87 62 130 69zM-38 30l3 -3c40 17 49 44 48 75c-25 -29 -45 -57 -51 -72z" />
    <glyph glyph-name="t" unicode="t" horiz-adv-x="173" 
d="M310 569l-194 -54c-93 -297 -168 -572 -167 -632c41 24 128 173 166 238c26 46 47 81 59 97v-1c4 5 13 6 19 2h-1c4 -4 8 -10 6 -12c-12 -16 -36 -56 -61 -99c-100 -171 -153 -251 -193 -251c-6 0 -12 3 -15 10c-8 10 -9 78 107 474l51 165l-298 -84h-2
c-6 0 -11 4 -12 10c-2 5 3 12 9 15l313 88c27 89 51 165 64 205c6 20 10 32 10 32c2 6 11 10 17 9c5 -3 9 -11 9 -16c-25 -71 -49 -149 -71 -221l178 51c5 0 13 -5 16 -10c0 -6 -5 -13 -10 -16z" />
    <glyph glyph-name="u" unicode="u" horiz-adv-x="249" 
d="M270 221c6 -3 7 -11 3 -17c-45 -72 -74 -98 -98 -90c-19 7 -26 39 -27 74c-50 -84 -94 -128 -126 -128c-7 0 -12 1 -16 3c-16 8 -25 28 -25 58c0 44 17 108 52 184c3 6 11 9 17 6c7 -2 10 -10 7 -17c-38 -83 -51 -142 -51 -174c0 -18 6 -30 12 -34c13 -6 65 28 135 168
c2 5 9 8 15 6s9 -8 9 -14h1c-4 -24 -5 -43 -5 -57c0 -26 3 -47 9 -51c0 0 20 1 70 79c3 6 12 8 18 4z" />
    <glyph glyph-name="v" unicode="v" 
d="M211 221c7 3 15 1 18 -6c3 -6 1 -14 -6 -17c-6 -3 -53 -24 -84 -8l-37 -60c-30 -53 -49 -85 -68 -89v1h-5c-4 0 -9 1 -12 3h1c-15 12 -20 50 -20 100c0 47 4 105 10 155c2 6 8 12 14 12c8 -1 13 -8 12 -15c-6 -60 -10 -121 -10 -159c0 -28 3 -53 7 -70c12 12 31 45 46 70
v-1l2 4c15 26 30 54 49 76c3 3 7 6 10 5c4 0 7 -2 10 -5c10 -16 48 -3 63 4z" />
    <glyph glyph-name="w" unicode="w" horiz-adv-x="300" 
d="M272 288c7 -1 12 -7 12 -14h1c-2 -49 -100 -163 -139 -187c-3 -2 -10 -7 -19 -2c-10 4 -14 14 -14 33c0 18 3 43 8 76l-3 2c-104 -132 -131 -153 -146 -153h-5l1 -1c-5 2 -11 10 -13 16c1 53 93 293 102 312c3 6 11 9 17 6c7 -3 9 -12 6 -18c-15 -33 -82 -213 -98 -283
c20 20 60 63 128 151c4 5 11 13 13 16v-1l3 4c6 7 13 7 17 6c13 -5 11 -19 4 -62c-3 -21 -9 -58 -9 -78c33 24 120 129 121 164c0 7 6 13 13 13z" />
    <glyph glyph-name="x" unicode="x" horiz-adv-x="236" 
d="M211 262c5 -4 5 -12 0 -17l-124 -126l8 -9v1c45 -61 87 -88 103 -85c5 1 14 -4 17 -9c0 -6 -4 -14 -11 -16c-2 -1 -4 -1 -10 -1c-43 0 -96 65 -120 96c0 2 -2 3 -4 5l-73 -76c-2 -2 -7 -4 -10 -4c-4 0 -8 1 -10 5c-4 4 -4 11 1 15l78 80c-28 45 -60 103 -60 146
c0 11 3 21 8 29c3 6 11 7 17 3c6 -3 6 -12 4 -18c-9 -16 8 -75 49 -141l118 122c5 5 14 5 19 0z" />
    <glyph glyph-name="y" unicode="y" horiz-adv-x="257" 
d="M276 218c3 -6 1 -14 -6 -17c-36 -22 -97 -70 -164 -125c-16 -39 -35 -85 -54 -125c-90 -195 -170 -298 -234 -298c-8 0 -14 1 -18 2c-29 9 -38 28 -40 42c-9 84 173 265 324 392l28 72l-3 3c-42 -50 -85 -78 -112 -80c-14 -1 -24 5 -31 14c-13 21 -4 62 25 118
c3 7 11 8 17 6c7 -3 8 -11 6 -18c-33 -64 -27 -91 -26 -94h7c32 2 109 65 161 174c3 6 10 8 17 6c6 -3 9 -10 6 -17c0 -1 -22 -65 -54 -150c64 51 112 87 132 99c6 4 14 2 19 -4zM-193 -321c68 -19 169 155 251 349l-3 3c-137 -120 -276 -269 -269 -330c1 -8 4 -17 21 -22z
" />
    <glyph glyph-name="z" unicode="z" horiz-adv-x="187" 
d="M169 153c6 0 12 -6 12 -13s-6 -12 -12 -12c-25 0 -59 -9 -94 -26c-9 -21 -19 -41 -28 -58c-66 -108 -197 -266 -280 -266h-6c-2 0 -3 1 -5 1v-1c-24 4 -37 19 -35 41c6 73 187 232 335 302c18 46 20 74 11 85c-7 8 -26 5 -50 -2c-5 -1 -13 2 -15 7s0 12 4 16
c103 68 130 125 126 147c-1 8 -6 15 -13 17c-29 8 -90 -14 -157 -83c-3 -4 -12 -3 -17 -1c-4 5 -5 13 0 18c79 83 147 100 181 91c15 -7 31 -23 33 -38c5 -40 -32 -90 -97 -143c10 -3 19 -9 25 -14c6 -9 10 -22 10 -35c0 -17 -3 -35 -8 -52c31 12 59 19 80 19zM24 58l14 26
c-136 -75 -288 -215 -292 -267c0 -7 0 -11 15 -13c63 -10 191 125 263 254z" />
    <glyph glyph-name="O" unicode="O" horiz-adv-x="648" 
d="M617 988c59 -12 102 -54 120 -117c5 -24 10 -57 10 -89c0 -253 -217 -669 -416 -853c-66 -58 -135 -93 -190 -93c-20 0 -38 4 -53 10c-55 22 -85 73 -87 148c-1 45 8 97 24 150c-5 23 -7 48 -7 75c0 96 32 214 71 310c99 228 287 463 483 463c15 0 30 -1 45 -4zM315 -53
c194 173 407 587 407 834c0 32 -3 60 -10 84c-17 53 -50 87 -101 97h1c-17 4 -30 5 -42 5c-183 0 -362 -228 -456 -448c-48 -113 -72 -223 -70 -308l4 -1c72 190 209 386 290 423c7 3 14 0 17 -6s1 -14 -6 -17c-83 -38 -238 -270 -297 -466c10 -41 28 -74 56 -93
c6 -3 7 -12 3 -17c-4 -6 -10 -9 -12 -7c-27 19 -47 43 -60 72c-9 -38 -13 -74 -12 -104c1 -64 26 -107 70 -126c14 -6 29 -8 44 -8c62 0 127 44 174 86z" />
    <glyph glyph-name="P" unicode="P" horiz-adv-x="323" 
d="M815 1139c61 -22 93 -65 93 -126c0 -19 -3 -40 -8 -59c-74 -270 -346 -468 -573 -524c-33 -7 -66 -11 -97 -11h-15c-52 -168 -111 -344 -163 -513c-2 -4 -8 -8 -12 -8h-4c-6 2 -9 10 -9 15l161 507c-33 6 -60 19 -78 39c-12 14 -24 36 -24 67c0 17 5 41 14 66
c3 5 10 9 16 7c7 -2 10 -9 8 -16c-8 -21 -13 -43 -13 -58c0 -20 5 -37 17 -50c14 -14 37 -24 68 -29l148 464c2 6 10 9 15 9c6 -3 11 -10 9 -16l-146 -459c30 -1 63 3 100 11c215 50 482 244 552 505c5 19 7 36 7 53c0 50 -24 83 -73 101c-24 9 -53 13 -85 13
c-216 0 -594 -181 -697 -423c-2 -7 -10 -10 -17 -7c-8 2 -10 10 -8 17c58 129 197 259 378 346c123 60 248 92 343 92c35 0 67 -4 93 -13z" />
    <glyph glyph-name="Q" unicode="Q" horiz-adv-x="1057" 
d="M1341 -158c6 0 12 -5 12 -13c0 -6 -6 -12 -12 -12c-249 0 -454 39 -614 117c-48 -44 -97 -79 -148 -104c-68 -32 -137 -49 -205 -49c-55 0 -108 12 -153 32c-104 54 -186 170 -186 328c0 86 23 186 75 299c143 307 422 499 611 499c27 0 54 -4 77 -13
c24 -8 43 -23 60 -43c53 -9 94 -37 124 -82c31 -50 49 -121 49 -202c0 -117 -34 -255 -99 -386c-50 -101 -113 -189 -184 -260c157 -73 358 -111 593 -111zM722 -35h3c59 58 126 144 184 260c62 126 98 262 98 374c0 74 -17 141 -46 188c-19 30 -47 52 -81 65
c13 -28 19 -63 19 -101c0 -42 -10 -98 -24 -148c-3 -5 -11 -9 -17 -9c-6 3 -11 10 -9 16c18 54 26 102 26 143c0 43 -9 79 -30 106c-12 2 -17 2 -21 2l-11 -1c-233 -12 -412 -210 -406 -450c3 -149 80 -285 217 -385h-1c28 -21 61 -41 99 -60zM568 -147c39 20 86 48 134 93
c-33 18 -65 37 -94 59c-143 104 -223 248 -227 404c-7 255 186 464 437 477c-11 7 -21 13 -29 16c-20 8 -44 12 -66 12c-74 0 -166 -32 -258 -93c-139 -93 -257 -231 -331 -391c-52 -110 -74 -207 -74 -289c0 -152 73 -257 172 -305c43 -20 90 -31 141 -31
c64 0 130 16 195 48z" />
    <glyph glyph-name="R" unicode="R" horiz-adv-x="636" 
d="M1053 -109c7 0 12 -6 13 -13h-1c0 -6 -6 -12 -12 -12h-4c-280 0 -451 120 -631 248l-28 19c-15 10 -36 21 -55 29c-50 -27 -96 -48 -136 -66l-114 -358c-2 -4 -7 -8 -12 -8h-2c-7 2 -12 9 -10 15l107 338c-54 -22 -95 -32 -125 -32c-17 0 -30 4 -36 12c-5 6 -15 26 14 56
c33 36 103 75 186 85l171 538c2 7 8 10 15 8s11 -9 9 -15l-168 -529c33 0 67 -4 99 -15c69 37 151 85 249 146c319 202 362 317 357 367c-9 50 -67 77 -112 91c-55 17 -118 23 -185 23c-216 0 -473 -68 -551 -163c-4 -5 -12 -6 -17 -1c-5 4 -6 13 -2 18
c88 106 352 171 568 171c71 0 140 -8 193 -23c100 -29 127 -77 132 -111c14 -96 -123 -237 -369 -394c-83 -52 -164 -100 -232 -137c16 -8 28 -16 41 -24l28 -20c172 -121 352 -243 616 -243h4zM26 80v-2c7 -8 51 -8 151 36l21 62c-46 -8 -90 -25 -120 -43
c-37 -23 -53 -48 -52 -53zM211 133l3 -3c18 8 37 18 58 29c7 4 21 10 29 14c-24 5 -44 8 -61 8c-3 0 -5 0 -15 -2z" />
    <glyph glyph-name="S" unicode="S" horiz-adv-x="783" 
d="M1043 795c58 -19 76 -50 80 -72c9 -51 -33 -113 -125 -186h1c-6 -4 -14 -3 -19 2v-1c-5 6 -4 14 2 18c107 84 119 138 116 161c-6 29 -37 45 -62 53c-26 8 -56 11 -91 11c-216 0 -640 -118 -843 -323c-47 -47 -66 -88 -57 -124c22 -77 192 -120 341 -157
c13 -3 27 -6 40 -10c112 28 239 47 363 56c7 0 13 -2 13 -6c2 -11 -4 -21 -11 -21c-106 -7 -207 -20 -304 -41v-4c105 -29 187 -68 201 -120c-1 -54 -71 -124 -227 -203c-267 -138 -458 -186 -577 -186c-54 0 -92 8 -115 24c-23 15 -35 45 -36 71c13 91 162 218 384 322
c78 36 162 68 251 92v4c-159 39 -319 86 -348 173c-10 44 11 93 65 147c208 210 639 332 863 332c37 0 70 -5 95 -12zM427 140h-2c-100 -25 -207 -62 -297 -104c-243 -118 -364 -241 -369 -301c-1 -21 7 -36 24 -48c21 -13 55 -21 100 -21c118 0 311 52 567 184
c181 94 215 149 212 178c-6 50 -117 83 -235 112z" />
    <glyph glyph-name="T" unicode="T" horiz-adv-x="502" 
d="M1180 836c2 -7 -3 -13 -10 -15l-9 -3c-48 -15 -317 -94 -559 -173l-98 -32l-240 -992c-1 -6 -6 -11 -12 -11v-1c-9 2 -15 9 -13 15l237 979c-381 -130 -447 -178 -457 -194c6 -3 23 -9 72 -9c18 0 44 1 71 3c7 0 13 -5 14 -13h-1c0 -7 -5 -13 -11 -13
c-28 -2 -51 -2 -71 -2c-77 0 -97 12 -100 29c-4 23 -11 65 584 261c260 85 526 163 578 178l9 3c6 2 13 -3 16 -10z" />
    <glyph glyph-name="U" unicode="U" horiz-adv-x="781" 
d="M968 1011c5 0 11 -3 13 -7c4 -7 2 -27 -23 -92c-20 -49 -49 -114 -83 -183c-9 -20 -20 -42 -33 -68c-141 -350 -273 -720 -273 -843c0 -14 2 -27 7 -35c3 -7 2 -15 -4 -19c-7 -3 -15 -1 -18 5c-4 7 -10 18 -10 46c0 64 30 216 180 614l-4 2c-36 -65 -79 -139 -123 -207
c-199 -315 -367 -486 -487 -486h-10v-1c-38 3 -66 21 -84 53c-10 21 -16 50 -16 80c0 209 222 617 304 763c4 6 12 8 19 5c6 -3 7 -11 5 -18c-154 -268 -304 -589 -304 -748c0 -27 6 -51 16 -70c12 -25 33 -36 63 -39c49 -4 112 30 183 96c185 173 399 546 535 818
c74 184 135 324 136 326c2 4 6 8 11 8z" />
    <glyph glyph-name="V" unicode="V" horiz-adv-x="293" 
d="M912 1016c3 -6 2 -15 -4 -18c-628 -387 -786 -956 -845 -1170c-18 -63 -24 -82 -34 -89c-2 -1 -4 -1 -8 -1h-5c-9 3 -16 6 -16 61c0 63 11 193 44 467c23 191 50 383 61 464c3 21 5 36 5 39c2 5 8 11 14 11c5 -3 13 -9 12 -15c-45 -316 -106 -804 -110 -960l4 -1l9 30
c59 217 219 792 855 1185c7 4 15 3 18 -3z" />
    <glyph glyph-name="W" unicode="W" horiz-adv-x="682" 
d="M827 912c14 4 26 7 36 7c17 0 32 -7 41 -19c8 -10 12 -26 12 -44c0 -105 -113 -312 -216 -481c-70 -118 -151 -238 -219 -330c-114 -152 -134 -149 -146 -147c-6 1 -15 7 -20 23c-3 10 -4 24 -4 39c0 68 23 194 53 319l-4 2c-28 -63 -58 -129 -89 -190
c-175 -368 -224 -405 -246 -405c-4 0 -6 0 -7 1c-12 3 -18 13 -18 36c0 47 25 149 77 358c58 232 141 554 141 732c0 57 -9 99 -29 118c-12 11 -29 14 -55 6c-6 -2 -13 1 -16 8c-2 7 2 14 8 17c12 4 24 6 35 6c17 0 31 -6 44 -19c25 -23 37 -73 37 -140
c0 -166 -63 -433 -140 -734c-37 -149 -79 -318 -76 -362c63 44 277 493 385 750c28 100 55 177 67 188c3 4 9 6 14 4c15 -5 10 -24 5 -39c-10 -32 -32 -89 -62 -160c-14 -49 -29 -112 -44 -174c-42 -179 -55 -281 -55 -324c0 -15 2 -25 5 -34c70 38 479 630 542 883
c6 21 8 37 8 49c0 21 -6 29 -9 32c-11 9 -32 4 -48 -1c-5 -1 -13 4 -16 9c-1 6 3 14 9 16z" />
    <glyph glyph-name="X" unicode="X" horiz-adv-x="440" 
d="M723 750c5 5 11 7 15 3c7 -5 7 -14 4 -19l-428 -486c17 -203 82 -401 332 -486c7 -2 11 -9 8 -16c-2 -5 -7 -8 -12 -8h-4c-253 85 -326 284 -348 484l-267 -305c-3 -3 -6 -5 -9 -5c-5 0 -7 1 -9 3h1c-5 5 -6 13 -1 18l282 322c-4 53 -5 106 -6 156v31
c-1 134 -4 253 -56 297c-17 13 -39 20 -63 20c-10 0 -27 -2 -45 -6c-7 0 -16 4 -17 10c-2 7 3 14 10 16c19 4 36 6 51 6c31 0 58 -10 79 -26c63 -53 66 -177 67 -317h-1c0 -13 1 -26 1 -39c1 -38 2 -82 4 -121z" />
    <glyph glyph-name="Y" unicode="Y" horiz-adv-x="627" 
d="M622 623c-16 -46 -60 -165 -109 -290c-15 -37 -34 -80 -52 -123c54 7 113 13 177 13c6 0 12 -7 12 -14s-6 -12 -12 -12c-64 0 -127 -5 -190 -16c-77 -172 -176 -370 -285 -529c-140 -207 -273 -309 -392 -309c-19 0 -36 2 -50 5c-50 13 -78 60 -78 129c0 14 1 27 3 41
c19 155 154 393 412 549c-10 37 -13 78 -13 118c0 83 12 171 23 233c27 150 72 296 105 339v-1c4 5 12 6 18 2h-1c5 -4 7 -12 3 -18v1c-44 -57 -124 -358 -124 -556c0 -35 4 -69 12 -103c78 44 165 79 262 104c85 134 173 324 223 438c33 73 52 114 61 125c8 12 16 13 22 10
c10 -5 15 -8 -27 -136zM-65 -567c175 131 350 451 482 743c-18 -3 -40 -8 -57 -12c-68 -104 -137 -174 -203 -181c-36 -4 -64 12 -83 44l-8 15c-246 -151 -376 -380 -395 -528c-2 -14 -3 -29 -3 -35c0 -40 11 -92 59 -106c14 -4 28 -5 43 -5c52 0 108 21 165 65zM318 149
l-3 3c-84 -24 -158 -57 -227 -96l8 -16c13 -25 32 -34 58 -32c52 6 108 61 164 141zM428 204l2 1c63 141 114 274 149 373l-4 2c-60 -133 -125 -270 -196 -385c14 3 34 7 49 9z" />
    <glyph glyph-name="Z" unicode="Z" horiz-adv-x="541" 
d="M613 2c6 0 12 -6 12 -13s-5 -13 -12 -13c-252 -11 -482 -47 -684 -80l-33 -25c-25 -16 -47 -25 -62 -25c-6 0 -11 1 -12 2c-17 11 -15 21 -14 25c2 8 7 23 113 46c104 80 275 246 440 421l-294 -62l1 1c-9 0 -14 5 -15 11c-2 6 3 12 10 14h-1l331 70
c199 211 381 421 415 477c-72 5 -425 -56 -758 -136c-7 -2 -13 3 -15 10c-2 6 5 12 10 15c227 54 625 136 749 136c17 0 30 -1 36 -5h-1c4 -3 7 -8 8 -12c2 -8 3 -19 -114 -157c-73 -86 -167 -192 -268 -299l-18 -20l307 63c7 2 14 -3 16 -10s-3 -13 -10 -15l-345 -72
c-173 -182 -324 -329 -431 -418c181 27 501 74 639 71z" />
    <glyph glyph-name="d" unicode="d" horiz-adv-x="194" 
d="M258 693c6 -2 9 -11 9 -16l-200 -716c-2 -4 -8 -9 -13 -9c-2 0 -3 1 -4 1l1 -1c-7 2 -11 8 -9 14c0 0 1 10 4 20c5 23 17 72 26 115c-40 -29 -72 -40 -94 -35c-12 4 -22 14 -26 28c-14 47 34 122 76 154h-1c34 26 54 20 64 13s18 -18 23 -38l128 460c2 8 9 11 16 10z
M81 140v2c5 26 7 44 7 58c0 32 -9 38 -10 39c-2 2 -3 2 -6 2c-8 0 -18 -5 -29 -13c-37 -29 -76 -94 -67 -128c2 -7 5 -8 9 -9s32 -4 96 49z" />
    <glyph glyph-name="fi" unicode="&#xfb01;" horiz-adv-x="290" 
d="M307 199h-1c-4 -4 -14 -15 -24 -28l-11 -15c-61 -78 -103 -125 -125 -126v1c-7 0 -14 2 -17 7c-4 6 -6 17 -6 29c0 30 10 79 24 128l-136 -23c0 -1 -1 -5 -1 -6c22 -24 37 -47 43 -74c2 -9 3 -21 3 -36c0 -123 -120 -270 -125 -276c-3 -3 -7 -5 -10 -5s-4 0 -5 1
c-5 2 -9 7 -8 13c6 77 35 217 71 362l-21 13c-4 3 -8 9 -8 14c2 3 6 9 10 11l31 5c59 222 132 445 166 470c8 6 13 6 16 5c5 -1 13 -5 16 -17c14 -50 -51 -259 -140 -345l-10 -37l-19 -70l135 23l17 54c2 7 9 11 16 8c7 -2 11 -9 8 -16c-26 -82 -50 -181 -48 -212
c26 16 70 70 96 104l8 11v-1c36 47 41 53 50 53c6 0 12 -6 12 -13c0 -5 -3 -10 -7 -12zM28 86v1c-4 18 -12 33 -25 47c-28 -107 -51 -212 -62 -293l3 -1c35 54 87 143 87 216c0 10 -1 20 -3 30zM165 627l-4 1c-20 -36 -55 -131 -89 -246l4 -2c52 81 84 198 89 247zM204 334
h1c-8 -2 -24 -3 -18 7l3 6c2 4 5 9 9 10c8 2 24 0 25 -6c-6 -11 -12 -15 -20 -17z" />
    <glyph glyph-name="fl" unicode="&#xfb02;" horiz-adv-x="328" 
d="M347 219h-1c4 -4 8 -10 6 -12c-12 -16 -36 -56 -61 -99c-100 -171 -153 -251 -193 -251c-6 0 -12 3 -15 10c-7 9 -20 27 65 328l-138 -23c0 -1 -1 -5 -1 -6c23 -24 38 -47 44 -74c2 -9 3 -21 3 -36c0 -123 -120 -270 -125 -276c-3 -3 -7 -5 -10 -5s-4 0 -5 1
c-5 2 -9 7 -8 13c6 77 35 217 71 362l-21 13c-4 3 -8 9 -8 14c2 3 6 9 10 11l31 5c59 222 132 445 166 470c8 6 13 6 16 5c5 -1 13 -5 16 -17c14 -50 -51 -259 -140 -345l-10 -37l-19 -70l136 23l34 118c48 160 99 317 122 390l13 41c2 5 12 9 17 9c6 -3 11 -10 9 -16
c-125 -379 -250 -805 -248 -882c41 24 128 173 166 238c26 46 47 81 60 97v-1c4 5 12 6 18 2zM28 86v1c-4 18 -12 33 -26 47c-27 -107 -50 -212 -61 -293l3 -1c35 54 87 143 87 216c0 10 -1 20 -3 30zM165 627l-4 1c-20 -36 -55 -131 -89 -246l4 -2c52 81 84 198 89 247z
" />
    <glyph glyph-name="dotlessi" unicode="&#x131;" horiz-adv-x="137" 
d="M153 199h-1c-4 -4 -14 -15 -24 -28l-11 -15c-61 -78 -103 -125 -125 -126v1c-7 0 -15 2 -18 7c-4 6 -6 16 -6 28c0 50 30 148 50 211c2 7 9 11 16 8c7 -2 11 -9 8 -16c-26 -82 -50 -181 -48 -212c26 16 69 70 96 104l8 11v-1c36 47 41 53 50 53c6 0 12 -6 12 -13
c0 -5 -3 -10 -7 -12z" />
    <glyph glyph-name="zero" unicode="0" horiz-adv-x="579" 
d="M567 762c44 -20 72 -65 78 -133c0 -6 1 -15 1 -36c0 -225 -195 -609 -371 -741c-37 -24 -81 -41 -116 -41c-22 0 -42 5 -59 13c-61 31 -94 92 -99 181c-9 188 115 444 268 566c39 77 96 148 158 181c27 15 55 22 81 22c19 0 40 -4 59 -12zM260 -127
c172 118 361 500 361 720c0 10 -1 24 -2 33c-5 57 -27 97 -62 112c-17 8 -34 11 -49 11c-21 0 -45 -6 -69 -19c-44 -24 -84 -67 -118 -118l3 -3c43 23 86 35 125 35c33 0 69 -10 102 -26c5 -3 8 -11 5 -17c-3 -7 -11 -9 -17 -6c-31 16 -61 24 -91 24c-40 0 -85 -14 -130 -43
l-29 -20c-26 -53 -45 -109 -54 -161c-2 -7 -8 -12 -14 -10c-9 1 -14 8 -13 15c6 33 16 68 30 103l-3 3c-121 -128 -215 -343 -208 -500c3 -54 20 -127 85 -159c14 -7 30 -11 47 -11c31 0 64 12 101 37z" />
    <glyph glyph-name="one" unicode="1" horiz-adv-x="238" 
d="M322 771c3 -3 5 -8 4 -13l-299 -957c-2 -6 -7 -9 -12 -9h-4c-7 2 -12 10 -9 16l290 927l-164 -90c-7 -3 -15 -1 -18 5c-4 6 0 15 5 19l193 103c4 2 10 2 14 -1z" />
    <glyph glyph-name="two" unicode="2" horiz-adv-x="301" 
d="M356 758c15 -11 49 -41 49 -105c0 -47 -19 -112 -74 -200c-189 -299 -306 -483 -396 -590c120 -6 238 -19 321 -31c7 -1 13 -7 12 -15c-1 -6 -9 -11 -16 -11c-90 12 -223 27 -339 32c-34 -36 -63 -57 -88 -66c-11 -3 -22 -5 -33 -5c-15 0 -30 7 -39 16
c-7 11 -11 28 -5 42c10 21 39 43 92 42c20 0 43 -1 64 -2c82 91 209 293 405 602c45 72 70 139 70 188c0 37 -12 64 -38 82c-18 12 -41 18 -64 18c-64 0 -147 -42 -204 -120c-4 -5 -12 -7 -18 -2c-5 3 -5 12 -3 17c63 84 154 130 225 130c30 0 57 -7 79 -22zM-182 -202
c18 5 38 18 63 43h-24c-6 0 -12 1 -18 1c-41 0 -61 -15 -67 -28c-3 -4 -3 -10 3 -18c4 -4 16 -7 43 2z" />
    <glyph glyph-name="three" unicode="3" horiz-adv-x="603" 
d="M578 786c7 -11 11 -26 11 -42c0 -81 -105 -205 -296 -346l1 -3c26 4 58 8 90 8c53 0 105 -11 131 -49c9 -14 14 -32 14 -53c0 -65 -60 -173 -163 -303c-113 -133 -252 -212 -338 -212c-25 0 -46 6 -61 17c-12 9 -27 27 -27 62c0 37 18 94 78 178c4 6 12 7 18 2
c6 -4 7 -12 2 -18c-48 -67 -73 -125 -73 -162c0 -19 5 -32 17 -42c10 -8 25 -11 44 -11c74 0 209 67 320 201c116 143 158 239 158 287c0 18 -4 30 -11 39c-19 29 -61 39 -108 39c-56 0 -121 -16 -154 -25c-6 -2 -13 1 -15 7s-1 13 4 17c323 225 363 354 337 394
c-11 16 -34 26 -67 26c-51 0 -133 -27 -220 -79c-6 -2 -14 -2 -17 4c-4 6 -2 15 4 18c88 54 173 83 234 83c41 0 72 -12 87 -37z" />
    <glyph glyph-name="four" unicode="4" horiz-adv-x="564" 
d="M652 801c7 -3 11 -11 8 -17l-357 -1015c-2 -5 -7 -8 -12 -8c-4 0 -4 1 -5 1l1 -1c-7 3 -10 10 -8 16l226 645l-454 -162h-4c-4 0 -7 2 -10 5v-1c-3 5 -3 11 0 15l339 461c4 6 12 7 19 2c5 -3 5 -13 2 -18l-315 -426c136 48 286 103 423 151c2 1 6 0 9 -1
c40 113 82 232 122 344c3 6 10 11 16 9z" />
    <glyph glyph-name="five" unicode="5" horiz-adv-x="614" 
d="M629 766c7 1 13 -4 14 -12c1 -7 -5 -13 -12 -14l-304 -22l-141 -368c49 24 136 58 211 58c35 0 68 -8 93 -29c29 -26 45 -65 45 -119c0 -46 -12 -103 -30 -163c-54 -161 -167 -279 -297 -296c-6 -1 -19 -1 -34 -1c-70 0 -137 32 -171 82c-2 6 -2 14 4 18c6 3 14 1 18 -4
c29 -42 88 -71 149 -71c10 0 20 1 30 2c123 15 227 119 276 277c20 62 30 114 30 157c0 45 -12 78 -35 97c-21 18 -47 25 -78 25c-97 0 -226 -69 -228 -70c-5 -2 -11 -1 -14 2c-4 3 -6 9 -4 13l156 406c2 6 6 8 11 9z" />
    <glyph glyph-name="six" unicode="6" horiz-adv-x="633" 
d="M557 799c4 4 12 5 17 2c4 -5 6 -14 2 -19v1l-10 -11l-27 -28c-89 -95 -332 -367 -450 -594c-38 -76 -63 -156 -63 -200c0 -39 13 -65 37 -79c14 -7 31 -11 51 -11c105 0 283 101 377 246c39 58 59 122 59 172c0 33 -10 61 -28 76c-13 9 -28 16 -47 16
c-65 0 -184 -67 -349 -235c-5 -3 -13 -4 -17 0c-4 3 -3 12 -1 17c151 155 284 243 368 243c23 0 44 -7 61 -20c25 -21 37 -56 37 -98c0 -54 -23 -124 -61 -185c-96 -142 -279 -257 -397 -257c-25 0 -48 6 -65 14c-26 16 -50 46 -50 101c0 47 17 115 64 211
c114 235 363 500 456 599z" />
    <glyph glyph-name="seven" unicode="7" horiz-adv-x="382" 
d="M467 766c4 1 8 -2 12 -6v1c3 -4 3 -9 1 -13l-202 -425c33 1 71 4 104 5c6 0 12 -2 12 -4c2 -11 -4 -21 -11 -22l-119 -5l-239 -500c-2 -4 -6 -7 -11 -7h-4c-6 4 -9 12 -8 18l234 487l-116 -6v1c-8 0 -13 6 -14 12c0 7 5 13 13 13l130 7l198 415l-272 -28
c-7 -1 -13 4 -14 11s4 14 11 14z" />
    <glyph glyph-name="eight" unicode="8" horiz-adv-x="545" 
d="M660 690c3 -10 4 -23 4 -38c0 -141 -184 -359 -284 -443c37 -51 64 -105 64 -167c0 -17 -1 -32 -4 -45c-18 -78 -63 -144 -123 -181c-35 -21 -76 -32 -123 -32c-26 0 -51 3 -74 9c-66 16 -105 52 -116 106c-2 10 -3 22 -3 34c0 127 130 312 230 427
c-29 46 -49 93 -49 143c0 33 9 69 29 106c61 101 165 164 287 164c11 0 22 0 33 -1c71 -6 114 -34 129 -82zM363 231h4c110 91 272 302 272 421c0 12 -1 22 -4 31c-11 36 -48 58 -107 63c-17 2 -25 2 -30 2c-112 0 -209 -58 -264 -152c-18 -33 -27 -66 -27 -94
c0 -40 16 -80 42 -120c35 40 66 68 83 81c4 4 13 3 17 -3c4 -5 3 -13 -2 -17c-22 -16 -51 -45 -84 -82c23 -33 43 -58 60 -79zM415 2c3 13 4 25 4 39c0 58 -27 110 -66 161l-39 51l-11 14l-13 16c-17 21 -32 40 -44 57c-98 -113 -220 -289 -220 -405c0 -9 1 -19 4 -31v1
c8 -43 43 -73 95 -87c24 -7 47 -10 70 -10c39 0 77 11 109 30c53 32 95 93 111 164z" />
    <glyph glyph-name="nine" unicode="9" horiz-adv-x="627" 
d="M718 813c7 -2 12 -9 10 -16c-123 -552 -311 -912 -514 -1006c-28 -12 -62 -20 -93 -20c-39 0 -79 13 -114 32c-5 3 -8 12 -4 18c3 6 12 6 18 4c31 -18 65 -28 99 -28c28 0 56 6 84 18c160 68 309 319 425 705l-4 2c-79 -152 -195 -287 -348 -287c-34 0 -61 9 -77 28
c-17 18 -25 42 -25 72c0 76 55 195 133 294c86 106 186 175 265 175c7 0 12 -6 12 -13c0 -6 -5 -12 -12 -12c-163 0 -373 -301 -373 -444c0 -25 7 -43 18 -56c12 -13 31 -19 59 -19c223 0 374 351 426 542c3 6 9 13 15 11z" />
    <glyph glyph-name="caron" unicode="&#x2c7;" horiz-adv-x="201" 
d="M46 673c-4 0 -7 1 -8 4l-32 61c-3 5 0 13 8 18c6 4 14 4 17 -2l25 -51l97 60c8 4 15 3 17 -3c3 -5 0 -14 -8 -18l-111 -69h-5z" />
    <glyph glyph-name="ampersand" unicode="&#x26;" horiz-adv-x="484" 
d="M316 -260c-6 0 -11 3 -13 6c-8 16 -27 61 -48 121c-72 -69 -155 -123 -234 -123c-55 0 -91 15 -105 46c-5 11 -8 24 -8 37c0 95 121 260 250 428c-7 48 -11 96 -11 143c0 85 18 166 55 219c33 45 84 70 146 70c18 0 41 -2 62 -6c16 -4 27 -15 31 -25
c13 -53 -74 -174 -217 -357l-38 -49c18 -123 49 -245 80 -338c79 84 144 182 172 228c5 8 13 9 19 6c7 -4 7 -12 5 -18c-38 -61 -106 -159 -188 -243c21 -59 41 -104 53 -127c3 -6 1 -14 -5 -17c-2 -1 -5 -1 -6 -1zM164 214l-4 2c-127 -165 -254 -345 -221 -415
c10 -22 37 -32 82 -32c76 0 156 56 226 123c-31 92 -63 209 -83 322zM349 663c-55 0 -98 -24 -127 -62c-35 -49 -49 -123 -49 -205c0 -26 3 -64 8 -112l23 30v-1c106 137 228 293 213 334c-1 2 -2 6 -12 8c-23 6 -42 8 -56 8z" />
    <glyph glyph-name="parenleft" unicode="(" horiz-adv-x="472" 
d="M89 -355c-5 0 -11 2 -12 7c-44 109 -76 239 -76 381c0 256 116 565 442 869c7 6 18 16 21 21v-1c5 5 13 6 19 2h-1c5 -5 7 -12 1 -17l-24 -24c-319 -297 -432 -600 -432 -851c0 -138 31 -265 74 -371c3 -6 -1 -13 -8 -16h-4z" />
    <glyph glyph-name="parenright" unicode=")" horiz-adv-x="475" 
d="M400 894c5 0 10 -3 12 -8c42 -109 74 -238 74 -382c0 -255 -115 -565 -441 -868l-22 -21c-4 -5 -12 -6 -18 -2h1c-5 5 -6 12 -2 17c3 5 9 10 18 18c2 2 10 9 10 9c327 298 428 594 428 848c0 140 -30 266 -72 372c-3 6 2 14 10 17h2z" />
    <glyph glyph-name="bracketleft" unicode="[" horiz-adv-x="461" 
d="M182 -341h-152c-6 0 -11 5 -12 11c-12 44 -17 93 -17 145c0 394 284 999 305 1042c2 4 7 7 12 7h188c6 0 12 -6 12 -13c0 -6 -6 -12 -12 -12h-180c-36 -78 -300 -658 -300 -1027c0 -45 4 -87 14 -128h142c6 0 12 -5 12 -13c0 -6 -6 -12 -12 -12z" />
    <glyph glyph-name="bracketright" unicode="]" horiz-adv-x="457" 
d="M337 847h152c4 0 11 -6 13 -10c10 -42 16 -92 16 -145c0 -402 -291 -1014 -305 -1043c-2 -4 -6 -7 -12 -7h-187c-7 0 -13 6 -13 12c0 8 6 13 13 13h179c37 77 299 653 299 1026c0 47 -4 90 -13 129h-142c-7 0 -13 6 -13 12c0 7 6 13 13 13z" />
    <glyph glyph-name="asterisk" unicode="*" horiz-adv-x="250" 
d="M222 720c3 -7 1 -15 -5 -18l-100 -55l45 -74c3 -7 2 -14 -5 -18c-1 -1 -3 -1 -6 -1c-4 0 -9 1 -11 5l-45 73l-72 -68c-2 -2 -5 -3 -8 -3s-7 1 -9 4c-5 5 -4 12 1 17l73 68l-73 57c-6 4 -7 12 -2 18v-1c4 5 12 7 18 3h-1l69 -53l20 78c3 5 10 12 16 10c8 -2 12 -9 10 -15
l-18 -69l85 47c7 2 15 1 18 -5z" />
    <glyph glyph-name="tilde" unicode="&#x2dc;" horiz-adv-x="308" 
d="M220 684c-28 0 -54 15 -77 29l-7 4c-25 18 -46 29 -63 29c-15 0 -31 -9 -48 -31c-4 -6 -12 -7 -18 -2c-5 3 -5 13 -2 18c22 28 47 40 67 40c28 0 54 -17 79 -32c25 -16 49 -30 69 -30c15 0 30 7 46 22c4 5 12 5 17 0s5 -12 0 -17c-22 -22 -44 -30 -63 -30z" />
    <glyph glyph-name="circumflex" unicode="&#x2c6;" horiz-adv-x="234" 
d="M129 773c4 0 6 -2 8 -5l32 -61c3 -5 0 -13 -8 -18c-6 -4 -14 -4 -17 2l-25 51l-97 -60c-8 -4 -15 -3 -17 3c-4 5 0 14 8 18l111 69c1 1 3 1 5 1z" />
    <glyph glyph-name="period" unicode="." horiz-adv-x="112" 
d="M30 47h-1c16 3 53 5 45 -13c-10 -23 -19 -27 -36 -31c-15 -3 -45 -5 -33 14l4 9c4 7 12 19 21 21z" />
    <glyph glyph-name="comma" unicode="," horiz-adv-x="114" 
d="M5 -55l54 81c8 12 19 3 19 3c13 -10 15 -13 4 -24l-64 -70c-9 -9 -21 -1 -13 10z" />
    <glyph glyph-name="slash" unicode="/" horiz-adv-x="226" 
d="M15 -235h-4l1 -1c-7 2 -12 9 -10 17l202 821c3 5 10 11 15 9c7 -2 12 -8 10 -15l-202 -823c-1 -4 -6 -8 -12 -8z" />
    <glyph glyph-name="at" unicode="@" horiz-adv-x="639" 
d="M303 -42c-40 0 -78 9 -107 21c-87 43 -144 130 -144 226c0 17 2 37 5 54c37 159 161 243 268 243c51 0 93 -19 121 -53c24 -29 37 -69 37 -117c0 -106 -66 -220 -165 -220c-6 0 -14 4 -18 13c-2 11 0 35 7 63l-3 3c-20 -21 -44 -35 -71 -35c-17 0 -30 9 -34 26
c-11 36 23 101 64 125c12 8 25 11 37 11c14 0 27 -4 41 -14l4 10l3 7v-1c1 1 1 2 1 3c1 1 1 2 1 3l6 8c4 2 10 3 14 0c7 -6 5 -14 4 -18v1l-9 -24c-15 -45 -42 -130 -42 -156c80 6 135 107 135 195c0 41 -12 77 -31 102c-23 27 -60 43 -102 43c-100 0 -212 -69 -243 -223
c-4 -21 -5 -36 -5 -48c0 -89 49 -166 130 -203c27 -13 61 -20 97 -20c87 0 191 44 289 169c4 6 12 7 17 3c6 -5 8 -12 3 -18v1c-104 -133 -216 -180 -310 -180zM300 293c-6 0 -16 -3 -24 -8c-33 -22 -58 -77 -52 -97v1c2 -7 3 -8 9 -8c38 0 73 48 98 99c-11 8 -21 13 -31 13
z" />
    <glyph glyph-name="exclam" unicode="!" horiz-adv-x="184" 
d="M61 43h-2v-1c-7 1 -12 7 -11 14c56 534 211 783 218 793c3 6 11 7 17 4c6 -4 7 -12 4 -18v1c-2 -2 -156 -266 -213 -783c-2 -5 -7 -10 -13 -10zM76 -129h-1c16 3 53 5 45 -13c-10 -23 -19 -27 -36 -31h1c-15 -3 -43 -3 -34 14l4 9c4 7 12 19 21 21z" />
    <glyph glyph-name="question" unicode="?" horiz-adv-x="375" 
d="M29 -171h-1c16 3 54 5 46 -13c-11 -23 -20 -27 -37 -31h1c-15 -3 -43 -3 -34 14l4 9c4 7 12 19 21 21zM47 -31h-1c-7 1 -13 8 -11 14c43 211 177 319 284 406c55 43 104 83 134 132c47 74 74 143 74 193c0 23 -6 44 -16 60c-18 24 -46 40 -81 40c-6 0 -17 -1 -29 -4
c-82 -17 -182 -102 -218 -236c-3 -5 -9 -11 -15 -11c-5 3 -11 9 -11 15c40 141 150 240 238 258c11 2 24 3 34 3c43 0 81 -19 103 -50c9 -14 20 -39 20 -75c0 -46 -23 -120 -77 -209c-28 -44 -80 -87 -133 -129l-8 -7c-102 -83 -236 -202 -274 -391c-1 -5 -7 -9 -13 -9z" />
    <glyph glyph-name="percent" unicode="%" horiz-adv-x="434" 
d="M226 -108c-11 0 -18 2 -23 4c-21 12 -36 37 -38 67c-3 62 37 146 87 189c6 25 24 48 48 61c20 13 45 14 63 6c13 -6 28 -21 31 -50c3 -78 -60 -218 -125 -263c-16 -10 -31 -14 -43 -14zM90 561c-11 0 -18 2 -23 5c-21 12 -35 35 -37 66c-4 62 36 145 86 189
c6 26 24 49 48 62c22 11 45 14 63 5c13 -5 28 -19 31 -50c7 -78 -59 -217 -125 -262c-16 -11 -30 -15 -43 -15zM14 -169h-4c-7 3 -10 10 -8 16c124 353 256 721 380 1074c3 6 11 11 16 8c6 -2 10 -10 9 -16l-381 -1074c-2 -5 -7 -8 -12 -8zM185 826c-12 0 -26 -5 -38 -13
c-48 -33 -94 -120 -91 -180c1 -22 8 -38 22 -44c11 -5 24 -3 40 7c53 36 113 156 114 228l-3 1c-4 -7 -12 -9 -19 -6c-8 5 -18 7 -25 7zM320 156c-11 0 -25 -5 -37 -13c-48 -32 -94 -119 -91 -178c1 -23 9 -39 22 -46c11 -5 24 -3 40 9c53 37 113 156 114 226l-3 1
c-4 -7 -12 -9 -19 -6c-8 5 -18 7 -26 7zM185 851c12 0 25 -3 37 -10c2 -1 5 -4 6 -6l4 1c-2 15 -7 25 -15 29c-11 4 -25 3 -40 -5l-13 -8l1 -3c6 1 13 2 20 2zM320 182c12 0 27 -5 38 -10c1 -1 6 -7 6 -7l4 1c-3 15 -8 25 -15 29c-11 5 -26 3 -41 -4l-12 -8l1 -3
c6 1 12 2 19 2z" />
    <glyph glyph-name="grave" unicode="`" horiz-adv-x="149" 
d="M91 681c9 -12 -7 -22 -18 -12l-64 70c-11 11 -6 16 7 26c0 0 12 10 21 -3z" />
    <glyph glyph-name="acute" unicode="&#xb4;" horiz-adv-x="152" 
d="M89 761c13 -11 18 -18 0 -30l-67 -59c-11 -7 -25 3 -16 13l63 75c9 12 20 1 20 1z" />
    <glyph glyph-name="dieresis" unicode="&#xa8;" horiz-adv-x="241" 
d="M30 764h-1c16 3 53 5 45 -13c-10 -23 -19 -27 -36 -31c-15 -3 -45 -5 -33 14l4 9c4 7 12 19 21 21zM164 764h-1c16 3 53 5 45 -13c-10 -23 -19 -27 -36 -31c-15 -3 -45 -5 -33 14l4 9c4 7 12 19 21 21z" />
    <glyph glyph-name="ring" unicode="&#x2da;" horiz-adv-x="158" 
d="M79 766c26 0 42 -22 36 -48c-10 -26 -38 -49 -64 -49c-27 0 -42 21 -35 47c7 27 35 50 63 50zM55 681c20 0 41 15 46 35c7 21 -6 38 -27 38c-20 0 -40 -16 -46 -36c-6 -21 6 -37 27 -37z" />
    <glyph glyph-name="Agrave" unicode="&#xc0;" horiz-adv-x="332" 
d="M429 520c8 1 15 -4 16 -13h-1c0 -6 -6 -12 -12 -14c-19 -3 -73 -37 -156 -98c-64 -200 -102 -387 -102 -496c0 -23 2 -44 7 -63c0 -5 -5 -13 -10 -16c-5 0 -12 5 -15 10c-5 18 -7 42 -7 68c0 109 34 283 91 472c-61 -47 -139 -109 -222 -177
c-134 -252 -216 -465 -217 -468c-2 -5 -7 -8 -12 -8c-2 0 -3 0 -2 -1c-8 3 -12 10 -10 17c1 4 70 185 184 408l-3 3c-49 -40 -101 -85 -156 -131h1c-2 -1 -6 -2 -9 -2s-7 1 -9 4c-5 5 -4 13 1 17l28 24c60 51 121 101 183 150c107 205 262 444 425 607c4 2 13 4 17 1
c5 -4 6 -12 4 -17c-56 -105 -110 -235 -152 -360c68 49 118 81 138 83zM55 261l4 -3c70 57 137 111 195 154c35 105 76 212 122 310l-4 3c-119 -133 -226 -302 -317 -464zM492 857c8 -12 -7 -21 -18 -12l-65 70c-11 11 -6 16 7 26c0 0 12 10 22 -3z" />
    <glyph glyph-name="Aacute" unicode="&#xc1;" horiz-adv-x="332" 
d="M430 520c7 1 14 -4 15 -13h-1c0 -6 -6 -12 -11 -14c-20 -3 -74 -37 -157 -98c-64 -200 -102 -387 -102 -496c0 -23 2 -44 7 -63c0 -5 -5 -13 -10 -16c-5 0 -12 5 -15 10c-5 18 -7 42 -7 68c0 109 34 283 91 472c-61 -47 -139 -109 -222 -177
c-134 -252 -216 -465 -217 -468c-2 -5 -7 -8 -12 -8c-2 0 -3 0 -2 -1c-8 3 -12 10 -10 17c1 4 71 185 184 408l-3 3c-49 -40 -101 -85 -156 -131h1c-2 -1 -6 -2 -9 -2s-7 1 -9 4c-5 5 -4 13 1 17l28 24c60 51 121 101 183 150c107 205 262 444 425 607c5 2 13 4 17 1
c5 -4 6 -12 4 -17c-56 -105 -110 -235 -152 -360c68 49 118 81 139 83zM55 261l4 -3c70 57 137 111 195 154c35 105 76 212 122 310l-4 3c-119 -133 -226 -302 -317 -464zM449 951c12 -11 17 -18 0 -30l-68 -59c-11 -7 -25 3 -16 13l64 75c9 13 20 1 20 1z" />
    <glyph glyph-name="Acircumflex" unicode="&#xc2;" horiz-adv-x="332" 
d="M429 520c7 1 15 -4 16 -13h-1c0 -6 -7 -12 -12 -14c-19 -3 -73 -37 -156 -98c-64 -200 -102 -387 -102 -496c0 -23 2 -44 7 -63c0 -5 -5 -13 -10 -16c-5 0 -12 5 -15 10c-5 18 -7 42 -7 68c0 109 34 283 91 472c-61 -47 -139 -109 -222 -177
c-134 -252 -216 -465 -217 -468c-2 -5 -7 -8 -12 -8c-2 0 -3 0 -2 -1c-8 3 -12 10 -10 17c1 4 70 185 184 408l-3 3c-49 -40 -101 -85 -156 -131h1c-2 -1 -6 -2 -9 -2s-7 1 -9 4c-5 5 -4 13 1 17l28 24c60 51 121 101 182 150c108 205 263 444 426 607c4 2 12 4 17 1
c5 -4 6 -12 4 -17c-56 -105 -110 -235 -153 -360c69 49 119 81 139 83zM55 261l4 -3c70 57 137 111 195 154c34 105 76 212 122 310l-4 3c-119 -133 -226 -302 -317 -464zM467 938c4 0 6 -2 8 -5l32 -61c3 -5 0 -13 -8 -18c-6 -4 -14 -4 -17 2l-25 51l-97 -60
c-8 -4 -15 -3 -17 3c-4 5 0 14 8 18l111 69c1 1 3 1 5 1z" />
    <glyph glyph-name="Atilde" unicode="&#xc3;" horiz-adv-x="332" 
d="M429 520c7 1 14 -4 15 -13h-1c0 -6 -6 -12 -11 -14c-19 -3 -73 -37 -156 -98c-64 -200 -102 -387 -102 -496c0 -23 2 -44 7 -63c0 -5 -5 -13 -10 -16c-5 0 -13 5 -16 10c-5 18 -7 42 -7 68c0 109 35 283 92 472c-61 -47 -139 -109 -222 -177
c-134 -252 -216 -465 -217 -468c-2 -5 -7 -8 -12 -8c-2 0 -3 0 -2 -1c-8 3 -12 10 -10 17c1 4 70 185 184 408l-3 3c-49 -40 -102 -85 -156 -131h1c-2 -1 -6 -2 -9 -2s-7 1 -9 4c-5 5 -4 13 1 17l28 24c60 51 121 101 182 150c108 205 263 444 426 607c4 2 12 4 16 1
c5 -4 6 -12 4 -17c-55 -105 -109 -235 -152 -360c69 49 119 81 139 83zM55 261l4 -3c70 57 137 111 195 154c34 105 76 212 122 310l-4 3c-119 -133 -227 -302 -317 -464zM505 869c-28 0 -55 15 -77 29l-7 4c-25 18 -46 29 -63 29c-15 0 -31 -9 -48 -31c-5 -6 -13 -7 -19 -2
c-5 3 -5 13 -2 18c23 28 48 41 68 41c28 0 54 -18 78 -33c26 -16 50 -30 70 -30c15 0 30 7 46 22c4 5 12 5 17 0s5 -12 0 -17c-22 -22 -44 -30 -63 -30z" />
    <glyph glyph-name="Adieresis" unicode="&#xc4;" horiz-adv-x="332" 
d="M429 520c7 1 14 -4 16 -13h-2c0 -6 -6 -12 -11 -14c-19 -3 -73 -37 -156 -98c-64 -200 -102 -387 -102 -496c0 -23 2 -44 7 -63c0 -5 -5 -13 -10 -16c-5 0 -12 5 -15 10c-5 18 -8 42 -8 68c0 109 35 283 92 472c-61 -47 -139 -109 -222 -177
c-134 -252 -216 -465 -217 -468c-2 -5 -7 -8 -12 -8c-2 0 -3 0 -2 -1c-8 3 -12 10 -10 17c1 4 70 185 184 408l-3 3c-49 -40 -102 -85 -156 -131h1c-2 -1 -6 -2 -9 -2s-7 1 -9 4c-5 5 -4 13 1 17l28 24c60 51 121 101 182 150c108 205 263 444 426 607c4 2 12 4 16 1
c5 -4 7 -12 4 -17c-55 -105 -109 -235 -152 -360c69 49 119 81 139 83zM55 261l4 -3c70 57 137 111 195 154c34 105 76 212 122 310l-4 3c-119 -133 -227 -302 -317 -464zM353 922h-1c16 3 53 5 45 -13c-10 -23 -19 -27 -36 -31c-15 -3 -45 -5 -33 14l4 9c4 7 12 19 21 21z
M487 922h-1c16 3 53 5 45 -13c-10 -23 -19 -27 -36 -31c-15 -3 -45 -5 -33 14l4 9c4 7 12 19 21 21z" />
    <glyph glyph-name="Aring" unicode="&#xc5;" horiz-adv-x="332" 
d="M429 520c8 1 15 -4 16 -13h-1c0 -6 -6 -12 -12 -14c-19 -3 -73 -37 -156 -98c-64 -200 -102 -387 -102 -496c0 -23 2 -44 7 -63c0 -5 -5 -13 -10 -16c-5 0 -12 5 -15 10c-5 18 -7 42 -7 68c0 109 34 283 91 472c-61 -47 -139 -109 -222 -177
c-134 -252 -216 -465 -217 -468c-2 -5 -7 -8 -12 -8c-2 0 -3 0 -2 -1c-8 3 -12 10 -10 17c1 4 70 185 184 408l-3 3c-49 -40 -101 -85 -156 -131h1c-2 -1 -6 -2 -9 -2s-7 1 -9 4c-5 5 -4 13 1 17l28 24c60 51 121 101 183 150c107 205 262 444 425 607c4 2 12 4 17 1
c5 -4 6 -12 4 -17c-56 -105 -110 -235 -152 -360c68 49 118 81 138 83zM55 261l4 -3c70 57 137 111 195 154c34 105 76 212 122 310l-4 3c-119 -133 -226 -302 -317 -464zM467 947c26 0 41 -22 35 -48c-9 -26 -37 -49 -63 -49c-28 0 -43 21 -36 47c7 27 36 50 64 50z
M443 862c20 0 41 15 46 35c6 21 -6 38 -27 38c-20 0 -41 -16 -47 -36c-6 -21 6 -37 28 -37z" />
    <glyph glyph-name="AE" unicode="&#xc6;" horiz-adv-x="862" 
d="M1313 969c7 -3 11 -10 8 -17s-10 -11 -16 -8c-30 8 -290 -43 -550 -99c0 -5 0 -10 -1 -13c0 -1 -6 -14 -15 -36c-32 -76 -111 -260 -187 -435l345 92c5 0 13 -5 16 -10c0 -5 -5 -12 -10 -15l-364 -98c-54 -120 -105 -234 -140 -305c-53 -105 -38 -134 -30 -141
c19 -18 120 -7 417 175c7 2 16 2 19 -4s2 -14 -4 -17c-204 -126 -332 -186 -404 -186c-20 0 -34 5 -44 14c-13 11 -19 25 -19 44c0 30 14 72 42 126c33 66 82 174 132 286l-138 -36h-2c-5 0 -11 5 -13 9c0 5 5 13 10 16l156 41c91 208 187 436 208 487
c-100 -22 -202 -46 -286 -66l1 1h-4c-4 0 -7 1 -10 3c-52 -103 -101 -220 -141 -340c69 49 119 81 139 83c7 1 14 -4 15 -13h-1c0 -6 -6 -12 -11 -14c-19 -3 -73 -37 -156 -98c-64 -200 -103 -387 -103 -496c0 -23 2 -44 7 -63c0 -5 -5 -13 -10 -16c-5 0 -12 5 -15 10
c-5 18 -7 42 -7 68c0 109 34 283 92 472c-62 -47 -139 -109 -223 -177c-134 -252 -215 -465 -216 -468c-2 -5 -7 -8 -12 -8h-2c-8 3 -12 9 -10 16c1 4 70 185 184 408l-3 3c-49 -40 -102 -85 -156 -131h1c-2 -1 -6 -2 -9 -2s-7 1 -9 4c-5 5 -4 13 1 17l28 24
c59 51 121 101 182 150c108 205 263 444 426 607c4 2 12 4 16 1c3 -2 5 -9 4 -15c154 36 819 189 872 170zM53 261l5 -3c70 57 136 111 195 154c34 105 75 212 122 310l-4 3c-119 -133 -227 -302 -318 -464z" />
    <glyph glyph-name="Egrave" unicode="&#xc8;" horiz-adv-x="530" 
d="M979 969c7 -3 11 -10 8 -17s-10 -11 -16 -8c-30 8 -290 -43 -550 -99c0 -5 0 -10 -1 -13c0 -1 -6 -14 -15 -36c-32 -76 -111 -260 -187 -435l345 92c5 0 13 -5 16 -10c0 -5 -5 -12 -10 -15l-364 -98c-54 -120 -105 -234 -140 -305c-53 -105 -39 -134 -30 -141
c19 -18 120 -7 417 175c6 2 16 2 19 -4s2 -14 -4 -17c-204 -126 -332 -186 -404 -186c-20 0 -34 5 -45 14c-12 11 -18 25 -18 44c0 30 13 72 42 126c33 66 82 174 132 286l-138 -36h-2c-5 0 -12 5 -14 9c0 5 5 13 11 16l156 41c91 208 187 436 208 487
c-100 -22 -202 -46 -286 -66l1 1h-4c-6 0 -11 5 -12 11c-2 5 5 11 10 14c159 37 822 189 875 170zM539 984c8 -12 -7 -21 -18 -12l-65 70c-11 11 -6 16 7 26c0 0 13 10 22 -3z" />
    <glyph glyph-name="Eacute" unicode="&#xc9;" horiz-adv-x="530" 
d="M979 969c7 -3 11 -10 8 -17s-10 -11 -16 -8c-30 8 -290 -43 -550 -99c0 -5 0 -10 -1 -13c0 -1 -6 -14 -15 -36c-32 -76 -111 -260 -187 -435l345 92c5 0 13 -5 16 -10c0 -5 -5 -12 -10 -15l-364 -98c-54 -120 -105 -234 -140 -305c-53 -105 -39 -134 -30 -141
c19 -18 120 -7 417 175c6 2 16 2 19 -4s2 -14 -4 -17c-204 -126 -332 -186 -404 -186c-20 0 -34 5 -45 14c-12 11 -18 25 -18 44c0 30 13 72 42 126c33 66 82 174 132 286l-138 -36h-2c-5 0 -12 5 -14 9c0 5 5 13 11 16l156 41c91 208 187 436 208 487
c-100 -22 -202 -46 -286 -66l1 1h-4c-6 0 -11 5 -12 11c-2 5 5 11 10 14c159 37 822 189 875 170zM476 1045c12 -11 17 -18 0 -30l-68 -59c-11 -8 -25 3 -16 13l63 75c9 12 21 1 21 1z" />
    <glyph glyph-name="Ecircumflex" unicode="&#xca;" horiz-adv-x="530" 
d="M979 969c7 -3 11 -10 8 -17s-10 -11 -16 -8c-30 8 -290 -43 -550 -99c0 -5 0 -10 -1 -13c0 -1 -6 -14 -15 -36c-32 -76 -111 -260 -187 -435l345 92c5 0 13 -5 16 -10c0 -5 -5 -12 -10 -15l-364 -98c-54 -120 -105 -234 -140 -305c-53 -105 -39 -134 -30 -141
c19 -18 120 -7 417 175c6 2 16 2 19 -4s2 -14 -4 -17c-204 -126 -332 -186 -404 -186c-20 0 -34 5 -45 14c-12 11 -18 25 -18 44c0 30 13 72 42 126c33 66 82 174 132 286l-138 -36h-2c-5 0 -12 5 -14 9c0 5 5 13 11 16l156 41c91 208 187 436 208 487
c-100 -22 -202 -46 -286 -66l1 1h-4c-6 0 -11 5 -12 11c-2 5 5 11 10 14c159 37 822 189 875 170zM539 1053c4 0 6 -2 8 -5l32 -61c3 -5 0 -13 -8 -18c-6 -4 -14 -4 -17 2l-25 51l-97 -60c-8 -4 -15 -3 -17 3c-4 5 0 14 8 18l111 69c1 1 3 1 5 1z" />
    <glyph glyph-name="Edieresis" unicode="&#xcb;" horiz-adv-x="530" 
d="M979 969c7 -3 11 -10 8 -17s-10 -11 -16 -8c-30 8 -290 -43 -550 -99c0 -5 0 -10 -1 -13c0 -1 -6 -14 -15 -36c-32 -76 -111 -260 -187 -435l345 92c5 0 13 -5 16 -10c0 -5 -5 -12 -10 -15l-364 -98c-54 -120 -105 -234 -140 -305c-53 -105 -39 -134 -30 -141
c19 -18 120 -7 417 175c6 2 16 2 19 -4s2 -14 -4 -17c-204 -126 -332 -186 -404 -186c-20 0 -34 5 -45 14c-12 11 -18 25 -18 44c0 30 13 72 42 126c33 66 82 174 132 286l-138 -36h-2c-5 0 -12 5 -14 9c0 5 5 13 11 16l156 41c91 208 187 436 208 487
c-100 -22 -202 -46 -286 -66l1 1h-4c-6 0 -11 5 -12 11c-2 5 5 11 10 14c159 37 822 189 875 170zM611 1039h-1c17 3 54 5 46 -13c-10 -23 -19 -27 -36 -31c-16 -3 -46 -5 -34 14l4 9c4 7 12 19 21 21zM478 1039h-1c16 3 53 5 45 -13c-10 -23 -19 -27 -36 -31
c-15 -3 -46 -5 -34 14l4 9c4 7 13 19 22 21z" />
    <glyph glyph-name="Iacute" unicode="&#xcd;" horiz-adv-x="390" 
d="M594 770c7 3 15 1 18 -5c3 -7 1 -15 -5 -18l-249 -135c-69 -264 -169 -656 -189 -765l192 119c6 2 15 2 19 -4c3 -6 1 -14 -4 -18l-214 -132l-3 -3l-3 -1c-43 -26 -92 -58 -135 -84c-2 -1 -5 -1 -7 -1c-4 0 -9 1 -11 5c-3 6 -1 14 4 18l134 84c3 28 20 114 93 400
c37 150 77 305 93 365l-252 -137c-2 -1 -4 -1 -7 -1c-4 0 -9 2 -11 6c-3 6 0 14 5 17zM365 793c13 -11 18 -18 0 -30l-67 -59c-11 -7 -25 3 -16 13l63 75c9 12 20 1 20 1z" />
    <glyph glyph-name="Igrave" unicode="&#xcc;" horiz-adv-x="390" 
d="M594 770c7 3 15 1 18 -5c3 -7 1 -15 -5 -18l-249 -135c-69 -264 -169 -656 -189 -765l192 119c6 2 15 2 19 -4c3 -6 1 -14 -4 -18l-214 -132l-3 -3l-3 -1c-43 -26 -92 -58 -135 -84c-2 -1 -5 -1 -7 -1c-4 0 -9 1 -11 5c-3 6 -1 14 4 18l134 84c3 28 20 114 93 400
c37 150 77 305 93 365l-252 -137c-2 -1 -4 -1 -7 -1c-4 0 -9 2 -11 6c-3 6 0 14 5 17zM353 729c8 -12 -7 -21 -18 -12l-64 70c-11 11 -6 16 7 27c0 0 12 10 21 -3z" />
    <glyph glyph-name="Icircumflex" unicode="&#xce;" horiz-adv-x="390" 
d="M594 770c7 3 15 1 18 -5c3 -7 1 -15 -5 -18l-249 -135c-69 -264 -169 -656 -189 -765l192 119c6 2 15 2 19 -4c3 -6 1 -14 -4 -18l-214 -132l-3 -3l-3 -1c-43 -26 -92 -58 -135 -84c-2 -1 -5 -1 -7 -1c-4 0 -9 1 -11 5c-3 6 -1 14 4 18l134 84c3 28 20 114 93 400
c37 150 77 305 93 365l-252 -137c-2 -1 -4 -1 -7 -1c-4 0 -9 2 -11 6c-3 6 0 14 5 17zM357 822c4 0 6 -2 8 -5l33 -62c3 -5 0 -13 -8 -18c-6 -4 -14 -4 -18 2l-25 51l-96 -60c-8 -4 -15 -3 -17 3c-4 5 0 14 8 18l110 70c1 1 3 1 5 1z" />
    <glyph glyph-name="Idieresis" unicode="&#xcf;" horiz-adv-x="390" 
d="M594 770c7 3 15 1 18 -5c3 -7 1 -15 -5 -18l-249 -135c-69 -264 -169 -656 -189 -765l192 119c6 2 15 2 19 -4c3 -6 1 -14 -4 -18l-214 -132l-3 -3l-3 -1c-43 -26 -92 -58 -135 -84c-2 -1 -5 -1 -7 -1c-4 0 -9 1 -11 5c-3 6 -1 14 4 18l134 84c3 28 20 114 93 400
c37 150 77 305 93 365l-252 -137c-2 -1 -4 -1 -7 -1c-4 0 -9 2 -11 6c-3 6 0 14 5 17zM378 768h-1c16 3 53 5 45 -13c-10 -23 -19 -27 -36 -31c-16 -3 -46 -5 -34 14l4 9c4 7 12 19 22 21zM244 768h-1c16 3 53 5 45 -13c-10 -23 -19 -27 -36 -31c-15 -3 -46 -5 -34 14l4 9
c5 7 13 19 22 21z" />
    <glyph glyph-name="Eth" unicode="&#xd0;" horiz-adv-x="774" 
d="M952 801c72 -43 113 -100 120 -169c11 -89 -83 -201 -250 -306c-150 -91 -351 -173 -512 -206l-76 -229c-2 -4 -8 -8 -12 -8h-5l1 -1c-6 3 -10 10 -9 16l72 217c-39 -7 -78 -11 -114 -11c-49 0 -94 10 -123 26c-31 22 -48 56 -43 99c5 45 36 86 91 120
c78 50 193 79 301 94l92 278c4 6 11 10 17 8s9 -11 9 -16l-90 -266c43 5 85 7 122 7c48 0 88 -4 109 -12c7 -2 11 -9 8 -16c-2 -7 -9 -11 -16 -8c-20 7 -55 11 -97 11c-35 0 -83 -3 -136 -10l-91 -270c152 34 337 106 488 199c160 99 247 202 239 281
c-7 61 -44 111 -109 150c-112 67 -284 92 -443 92c-148 0 -288 -22 -361 -52c-7 -3 -14 0 -17 7c-3 6 2 13 7 16c76 30 222 53 371 53c165 0 342 -26 457 -94zM59 152c23 -15 60 -22 106 -22c38 0 81 5 126 13l92 272c-102 -16 -208 -43 -277 -87c-47 -31 -75 -65 -79 -103
c-3 -33 7 -58 32 -73z" />
    <glyph glyph-name="Ntilde" unicode="&#xd1;" horiz-adv-x="601" 
d="M857 1264c11 -22 17 -51 17 -87c0 -124 -62 -307 -106 -421c-85 -220 -209 -465 -315 -621c-80 -117 -140 -174 -187 -174h-5c-16 2 -30 11 -41 26c-19 27 -26 76 -26 139c0 166 54 431 109 658l-4 2c-96 -217 -273 -652 -273 -812c0 -7 -6 -12 -12 -12
c-7 0 -13 5 -13 12c0 117 90 371 165 562c48 120 92 223 114 275c53 115 59 124 69 124c6 0 12 -6 12 -13s-1 -12 -4 -25l-9 -36c-87 -354 -130 -601 -130 -739c0 -57 8 -98 23 -120c6 -8 14 -14 21 -16c12 -1 62 5 169 164c185 271 418 802 418 1026c0 31 -5 57 -14 75
c-2 6 -1 14 5 17s14 2 17 -4zM660 943c-28 0 -54 16 -77 30l-7 4c-25 18 -46 29 -63 29c-15 0 -31 -9 -48 -31c-4 -6 -12 -7 -18 -2c-5 3 -5 13 -2 18c22 28 47 40 67 40c28 0 54 -17 79 -32c25 -16 49 -30 69 -30c15 0 30 7 46 22c4 5 12 5 17 0s5 -12 0 -17
c-22 -23 -44 -31 -63 -31z" />
    <glyph glyph-name="Ograve" unicode="&#xd2;" horiz-adv-x="648" 
d="M617 988c59 -12 102 -54 120 -117c5 -24 10 -57 10 -89c0 -253 -217 -669 -416 -853c-66 -58 -135 -93 -190 -93c-20 0 -38 4 -53 10c-55 22 -85 73 -87 148c-1 45 8 97 24 150c-5 23 -7 48 -7 75c0 96 32 214 71 310c99 228 287 463 483 463c15 0 30 -1 45 -4zM315 -53
c194 173 407 587 407 834c0 32 -3 60 -10 84c-17 53 -50 87 -101 97h1c-17 4 -30 5 -42 5c-183 0 -362 -228 -456 -448c-48 -113 -72 -223 -70 -308l4 -1c72 190 209 386 290 423c7 3 14 0 17 -6s1 -14 -6 -17c-83 -38 -238 -270 -297 -466c10 -41 28 -74 56 -93
c6 -3 7 -12 3 -17c-4 -6 -10 -9 -12 -7c-27 19 -47 43 -60 72c-9 -38 -13 -74 -12 -104c1 -64 26 -107 70 -126c14 -6 29 -8 44 -8c62 0 127 44 174 86zM575 1068c8 -12 -7 -21 -18 -12l-65 71c-11 11 -6 16 7 26c0 0 12 10 21 -3z" />
    <glyph glyph-name="Oacute" unicode="&#xd3;" horiz-adv-x="648" 
d="M617 988c59 -12 102 -54 120 -117c5 -24 10 -57 10 -89c0 -253 -217 -669 -416 -853c-66 -58 -135 -93 -190 -93c-20 0 -38 4 -53 10c-55 22 -85 73 -87 148c-1 45 8 97 24 150c-5 23 -7 48 -7 75c0 96 32 214 71 310c99 228 287 463 483 463c15 0 30 -1 45 -4zM315 -53
c194 173 407 587 407 834c0 32 -3 60 -10 84c-17 53 -50 87 -101 97h1c-17 4 -30 5 -42 5c-183 0 -362 -228 -456 -448c-48 -113 -72 -223 -70 -308l4 -1c72 190 209 386 290 423c7 3 14 0 17 -6s1 -14 -6 -17c-83 -38 -238 -270 -297 -466c10 -41 28 -74 56 -93
c6 -3 7 -12 3 -17c-4 -6 -10 -9 -12 -7c-27 19 -47 43 -60 72c-9 -38 -13 -74 -12 -104c1 -64 26 -107 70 -126c14 -6 29 -8 44 -8c62 0 127 44 174 86zM467 1092c12 -11 17 -18 0 -30l-68 -59c-11 -7 -25 3 -16 13l64 75c9 13 20 1 20 1z" />
    <glyph glyph-name="Ocircumflex" unicode="&#xd4;" horiz-adv-x="648" 
d="M617 988c59 -12 102 -54 120 -117c5 -24 10 -57 10 -89c0 -253 -217 -669 -416 -853c-66 -58 -135 -93 -190 -93c-20 0 -38 4 -53 10c-55 22 -85 73 -87 148c-1 45 8 97 24 150c-5 23 -7 48 -7 75c0 96 32 214 71 310c99 228 287 463 483 463c15 0 30 -1 45 -4zM315 -53
c194 173 407 587 407 834c0 32 -3 60 -10 84c-17 53 -50 87 -101 97h1c-17 4 -30 5 -42 5c-183 0 -362 -228 -456 -448c-48 -113 -72 -223 -70 -308l4 -1c72 190 209 386 290 423c7 3 14 0 17 -6s1 -14 -6 -17c-83 -38 -238 -270 -297 -466c10 -41 28 -74 56 -93
c6 -3 7 -12 3 -17c-4 -6 -10 -9 -12 -7c-27 19 -47 43 -60 72c-9 -38 -13 -74 -12 -104c1 -64 26 -107 70 -126c14 -6 29 -8 44 -8c62 0 127 44 174 86zM626 1156c4 0 6 -2 8 -5l32 -62c3 -5 0 -13 -8 -18c-6 -4 -14 -4 -17 2l-25 52l-97 -61c-8 -4 -15 -3 -17 3
c-4 5 0 14 8 18l111 70c1 1 3 1 5 1z" />
    <glyph glyph-name="Otilde" unicode="&#xd5;" horiz-adv-x="648" 
d="M617 988c59 -12 102 -54 120 -117c5 -24 10 -57 10 -89c0 -253 -217 -669 -416 -853c-66 -58 -135 -93 -190 -93c-20 0 -38 4 -53 10c-55 22 -85 73 -87 148c-1 45 8 97 24 150c-5 23 -7 48 -7 75c0 96 32 214 71 310c99 228 287 463 483 463c15 0 30 -1 45 -4zM315 -53
c194 173 407 587 407 834c0 32 -3 60 -10 84c-17 53 -50 87 -101 97h1c-17 4 -30 5 -42 5c-183 0 -362 -228 -456 -448c-48 -113 -72 -223 -70 -308l4 -1c72 190 209 386 290 423c7 3 14 0 17 -6s1 -14 -6 -17c-83 -38 -238 -270 -297 -466c10 -41 28 -74 56 -93
c6 -3 7 -12 3 -17c-4 -6 -10 -9 -12 -7c-27 19 -47 43 -60 72c-9 -38 -13 -74 -12 -104c1 -64 26 -107 70 -126c14 -6 29 -8 44 -8c62 0 127 44 174 86zM648 1047c-28 0 -54 15 -76 29l-7 4c-26 18 -47 30 -64 30c-15 0 -31 -9 -48 -32c-4 -6 -12 -7 -18 -2
c-5 3 -5 13 -2 18c22 29 47 41 67 41c28 0 55 -17 79 -32c25 -17 49 -31 69 -31c15 0 30 7 46 22c4 5 13 5 18 0s5 -12 0 -17c-23 -22 -45 -30 -64 -30z" />
    <glyph glyph-name="Odieresis" unicode="&#xd6;" horiz-adv-x="648" 
d="M617 988c59 -12 102 -54 120 -117c5 -24 10 -57 10 -89c0 -253 -217 -669 -416 -853c-66 -58 -135 -93 -190 -93c-20 0 -38 4 -53 10c-55 22 -85 73 -87 148c-1 45 8 97 24 150c-5 23 -7 48 -7 75c0 96 32 214 71 310c99 228 287 463 483 463c15 0 30 -1 45 -4zM315 -53
c194 173 407 587 407 834c0 32 -3 60 -10 84c-17 53 -50 87 -101 97h1c-17 4 -30 5 -42 5c-183 0 -362 -228 -456 -448c-48 -113 -72 -223 -70 -308l4 -1c72 190 209 386 290 423c7 3 14 0 17 -6s1 -14 -6 -17c-83 -38 -238 -270 -297 -466c10 -41 28 -74 56 -93
c6 -3 7 -12 3 -17c-4 -6 -10 -9 -12 -7c-27 19 -47 43 -60 72c-9 -38 -13 -74 -12 -104c1 -64 26 -107 70 -126c14 -6 29 -8 44 -8c62 0 127 44 174 86zM505 1116h-1c16 3 54 5 45 -13c-10 -24 -19 -28 -36 -32c-15 -3 -45 -5 -33 14l4 9c4 8 12 20 21 22zM639 1116h-1
c16 3 53 5 45 -13c-10 -24 -19 -28 -36 -32c-15 -3 -45 -5 -33 14l4 9c4 8 12 20 21 22z" />
    <glyph glyph-name="Oslash" unicode="&#xd8;" horiz-adv-x="648" 
d="M89 529c87 206 246 411 419 455l-8 -28c-150 -51 -305 -252 -386 -437c-48 -113 -72 -223 -70 -308l4 -1c72 190 209 386 290 423c7 3 14 0 17 -6s1 -14 -6 -17c-83 -38 -238 -270 -297 -466c10 -41 28 -74 56 -93c6 -3 7 -12 3 -17c-4 -6 -10 -9 -12 -7
c-27 19 -47 43 -60 72c-9 -38 -13 -74 -12 -104c1 -63 27 -107 70 -126c12 -5 29 -8 43 -8c27 0 52 8 77 20c-3 -12 -4 -20 -7 -31c-22 -8 -47 -14 -69 -14c-20 0 -38 4 -53 10c-55 22 -85 73 -87 148c-1 45 8 97 24 150c-5 23 -7 48 -7 75c0 97 31 213 71 310zM315 -53
c194 173 407 587 407 834c0 32 -3 60 -10 84c-17 53 -50 87 -101 97c-18 2 -35 5 -42 5s-18 0 -32 -3c2 10 6 17 8 26c24 3 48 2 72 -2c57 -13 102 -56 120 -117c5 -24 10 -57 10 -89c0 -253 -217 -669 -416 -853c-28 -25 -55 -46 -81 -60c3 13 7 23 11 36
c22 15 40 30 54 42zM224 -111l280 1062c9 3 20 7 28 8l-276 -1051c-9 -7 -22 -14 -32 -19zM514 991l16 59c2 7 9 11 15 9c7 -2 13 -8 11 -15l-15 -50c-11 -1 -19 -2 -27 -4l1 1h-1zM216 -210h-4l1 -1c-7 2 -12 9 -10 16c3 14 8 27 11 41c9 3 20 8 30 14l-16 -62
c-1 -4 -6 -8 -12 -8z" />
    <glyph glyph-name="Ugrave" unicode="&#xd9;" horiz-adv-x="781" 
d="M968 1011c5 0 11 -3 13 -7c4 -7 2 -27 -23 -92c-20 -49 -49 -114 -83 -183c-9 -20 -20 -42 -33 -68c-141 -350 -273 -720 -273 -843c0 -14 2 -27 7 -35c3 -7 2 -15 -4 -19c-7 -3 -15 -1 -18 5c-4 7 -10 18 -10 46c0 64 30 216 180 614l-4 2c-36 -65 -79 -139 -123 -207
c-199 -315 -367 -486 -487 -486h-10v-1c-38 3 -66 21 -84 53c-10 21 -16 50 -16 80c0 209 222 617 304 763c4 6 12 8 19 5c6 -3 7 -11 5 -18c-154 -268 -304 -589 -304 -748c0 -27 6 -51 16 -70c12 -25 33 -36 63 -39c49 -4 112 30 183 96c185 173 399 546 535 818
c74 184 135 324 136 326c2 4 6 8 11 8zM597 740c8 -12 -7 -21 -18 -12l-64 70c-11 12 -6 17 7 27c0 0 12 10 21 -3z" />
    <glyph glyph-name="Uacute" unicode="&#xda;" horiz-adv-x="781" 
d="M968 1011c5 0 11 -3 13 -7c4 -7 2 -27 -23 -92c-20 -49 -49 -114 -83 -183c-9 -20 -20 -42 -33 -68c-141 -350 -273 -720 -273 -843c0 -14 2 -27 7 -35c3 -7 2 -15 -4 -19c-7 -3 -15 -1 -18 5c-4 7 -10 18 -10 46c0 64 30 216 180 614l-4 2c-36 -65 -79 -139 -123 -207
c-199 -315 -367 -486 -487 -486h-10v-1c-38 3 -66 21 -84 53c-10 21 -16 50 -16 80c0 209 222 617 304 763c4 6 12 8 19 5c6 -3 7 -11 5 -18c-154 -268 -304 -589 -304 -748c0 -27 6 -51 16 -70c12 -25 33 -36 63 -39c49 -4 112 30 183 96c185 173 399 546 535 818
c74 184 135 324 136 326c2 4 6 8 11 8zM604 797c13 -11 18 -18 0 -30l-67 -59c-11 -7 -25 3 -16 13l63 75c9 13 20 1 20 1z" />
    <glyph glyph-name="Ucircumflex" unicode="&#xdb;" horiz-adv-x="781" 
d="M968 1011c5 0 11 -3 13 -7c4 -7 2 -27 -23 -92c-20 -49 -49 -114 -83 -183c-9 -20 -20 -42 -33 -68c-141 -350 -273 -720 -273 -843c0 -14 2 -27 7 -35c3 -7 2 -15 -4 -19c-7 -3 -15 -1 -18 5c-4 7 -10 18 -10 46c0 64 30 216 180 614l-4 2c-36 -65 -79 -139 -123 -207
c-199 -315 -367 -486 -487 -486h-10v-1c-38 3 -66 21 -84 53c-10 21 -16 50 -16 80c0 209 222 617 304 763c4 6 12 8 19 5c6 -3 7 -11 5 -18c-154 -268 -304 -589 -304 -748c0 -27 6 -51 16 -70c12 -25 33 -36 63 -39c49 -4 112 30 183 96c185 173 399 546 535 818
c74 184 135 324 136 326c2 4 6 8 11 8zM629 821c4 0 6 -2 8 -5l32 -62c3 -5 0 -13 -8 -18c-6 -4 -14 -4 -17 2l-25 51l-97 -60c-8 -4 -15 -3 -17 3c-4 5 0 14 8 18l111 70c1 1 3 1 5 1z" />
    <glyph glyph-name="Udieresis" unicode="&#xdc;" horiz-adv-x="781" 
d="M968 1011c5 0 11 -3 13 -7c4 -7 2 -27 -23 -92c-20 -49 -49 -114 -83 -183c-9 -20 -20 -42 -33 -68c-141 -350 -273 -720 -273 -843c0 -14 2 -27 7 -35c3 -7 2 -15 -4 -19c-7 -3 -15 -1 -18 5c-4 7 -10 18 -10 46c0 64 30 216 180 614l-4 2c-36 -65 -79 -139 -123 -207
c-199 -315 -367 -486 -487 -486h-10v-1c-38 3 -66 21 -84 53c-10 21 -16 50 -16 80c0 209 222 617 304 763c4 6 12 8 19 5c6 -3 7 -11 5 -18c-154 -268 -304 -589 -304 -748c0 -27 6 -51 16 -70c12 -25 33 -36 63 -39c49 -4 112 30 183 96c185 173 399 546 535 818
c74 184 135 324 136 326c2 4 6 8 11 8zM663 760h-1c16 3 53 5 45 -13c-10 -23 -19 -27 -36 -31c-15 -3 -45 -5 -33 14l4 9c4 7 12 19 21 21zM529 760h-1c16 3 53 5 45 -13c-10 -23 -19 -27 -36 -31c-15 -3 -45 -5 -33 14l4 9c4 7 12 19 21 21z" />
    <glyph glyph-name="Yacute" unicode="&#xdd;" horiz-adv-x="627" 
d="M622 623c-16 -46 -60 -165 -109 -290c-15 -37 -34 -80 -52 -123c54 7 113 13 177 13c6 0 12 -7 12 -14s-6 -12 -12 -12c-64 0 -127 -5 -190 -16c-77 -172 -176 -370 -285 -529c-140 -207 -273 -309 -392 -309c-19 0 -36 2 -50 5c-50 13 -78 60 -78 129c0 14 1 27 3 41
c19 155 154 393 412 549c-10 37 -13 78 -13 118c0 83 12 171 23 233c27 150 72 296 105 339v-1c4 5 12 6 18 2h-1c5 -4 7 -12 3 -18v1c-44 -57 -124 -358 -124 -556c0 -35 4 -69 12 -103c78 44 165 79 262 104c85 134 173 324 223 438c33 73 52 114 61 125c8 12 16 13 22 10
c10 -5 15 -8 -27 -136zM-65 -567c175 131 350 451 482 743c-18 -3 -40 -8 -57 -12c-68 -104 -137 -174 -203 -181c-36 -4 -64 12 -83 44l-8 15c-246 -151 -376 -380 -395 -528c-2 -14 -3 -29 -3 -35c0 -40 11 -92 59 -106c14 -4 28 -5 43 -5c52 0 108 21 165 65zM318 149
l-3 3c-84 -24 -158 -57 -227 -96l8 -16c13 -25 32 -34 58 -32c52 6 108 61 164 141zM428 204l2 1c63 141 114 274 149 373l-4 2c-60 -133 -125 -270 -196 -385c14 3 34 7 49 9zM477 905c12 -11 17 -18 0 -30l-68 -59c-11 -7 -25 3 -16 13l64 75c9 12 20 1 20 1z" />
    <glyph glyph-name="agrave" unicode="&#xe0;" 
d="M230 222c7 -3 8 -11 6 -18c-9 -17 -76 -139 -141 -139c-6 0 -14 4 -18 14c-1 10 0 37 7 63l-3 3c-20 -21 -44 -35 -70 -35c-18 0 -31 9 -35 26c-10 35 27 99 64 125c12 7 27 12 38 12c13 0 26 -4 41 -16l8 19c1 3 1 4 1 5c3 5 5 7 6 8h-1c4 2 9 4 11 2c12 -7 9 -15 8 -19
l-9 -25c-15 -44 -43 -127 -43 -157c40 11 89 82 113 126c3 7 11 8 17 6zM11 135c37 0 72 48 98 99c-12 8 -22 13 -32 13c-6 0 -16 -3 -24 -8c-32 -21 -56 -75 -51 -98c1 -4 2 -6 9 -6zM126 345c6 -9 -5 -16 -14 -10l-52 58c-9 8 -5 13 5 20c0 0 9 8 16 -2z" />
    <glyph glyph-name="aacute" unicode="&#xe1;" 
d="M230 222c7 -3 8 -11 6 -18c-9 -17 -76 -139 -141 -139c-6 0 -14 4 -18 14c-1 10 0 37 7 63l-3 3c-20 -21 -44 -35 -70 -35c-18 0 -31 9 -35 26c-10 35 27 99 64 125c12 7 27 12 38 12c13 0 26 -4 41 -16l8 19c1 3 1 4 1 5c3 5 5 7 6 8h-1c4 2 9 4 11 2c12 -7 9 -15 8 -19
l-9 -25c-15 -44 -43 -127 -43 -157c40 11 89 82 113 126c3 7 11 8 17 6zM11 135c37 0 72 48 98 99c-12 8 -22 13 -32 13c-6 0 -16 -3 -24 -8c-32 -21 -56 -75 -51 -98c1 -4 2 -6 9 -6zM124 397c9 -8 13 -14 0 -22l-53 -47c-8 -5 -19 2 -12 9l50 59c7 9 15 1 15 1z" />
    <glyph glyph-name="acircumflex" unicode="&#xe2;" 
d="M230 222c7 -3 8 -11 6 -18c-9 -17 -76 -139 -141 -139c-6 0 -14 4 -18 14c-1 10 0 37 7 63l-3 3c-20 -21 -44 -35 -70 -35c-18 0 -31 9 -35 26c-10 35 27 99 64 125c12 7 27 12 38 12c13 0 26 -4 41 -16l8 19c1 3 1 4 1 5c3 5 5 7 6 8h-1c4 2 9 4 11 2c12 -7 9 -15 8 -19
l-9 -25c-15 -44 -43 -127 -43 -157c40 11 89 82 113 126c3 7 11 8 17 6zM11 135c37 0 72 48 98 99c-12 8 -22 13 -32 13c-6 0 -16 -3 -24 -8c-32 -21 -56 -75 -51 -98c1 -4 2 -6 9 -6zM129 399c1 0 3 -2 5 -4v1c5 -11 17 -34 23 -45c0 -3 -2 -9 -6 -13h1c-4 -3 -10 -1 -12 2
l-18 38l-71 -45c-5 -2 -11 -2 -12 2c-3 3 0 9 6 12l78 50c2 1 5 2 6 2z" />
    <glyph glyph-name="atilde" unicode="&#xe3;" 
d="M230 222c7 -3 8 -11 6 -18c-9 -17 -76 -139 -141 -139c-6 0 -14 4 -18 14c-1 10 0 37 7 63l-3 3c-20 -21 -44 -35 -70 -35c-18 0 -31 9 -35 26c-10 35 27 99 64 125c12 7 27 12 38 12c13 0 26 -4 41 -16l8 19c1 3 1 4 1 5c3 5 5 7 6 8h-1c4 2 9 4 11 2c12 -7 9 -15 8 -19
l-9 -25c-15 -44 -43 -127 -43 -157c40 11 89 82 113 126c3 7 11 8 17 6zM11 135c37 0 72 48 98 99c-12 8 -22 13 -32 13c-6 0 -16 -3 -24 -8c-32 -21 -56 -75 -51 -98c1 -4 2 -6 9 -6zM150 346c-19 0 -34 10 -48 18c-15 11 -28 18 -37 18c-10 0 -18 -5 -26 -17
c-2 -4 -8 -6 -11 -3c-3 2 -2 6 0 10v-1c13 17 25 23 37 23c14 0 31 -10 45 -18c14 -11 26 -18 39 -18c9 0 19 3 27 12c2 4 7 4 10 0c2 -2 1 -5 -2 -8c-12 -12 -24 -16 -34 -16z" />
    <glyph glyph-name="adieresis" unicode="&#xe4;" 
d="M230 222c7 -3 8 -11 6 -18c-9 -17 -76 -139 -141 -139c-6 0 -14 4 -18 14c-1 10 0 37 7 63l-3 3c-20 -21 -44 -35 -70 -35c-18 0 -31 9 -35 26c-10 35 27 99 64 125c12 7 27 12 38 12c13 0 26 -4 41 -16l8 19c1 3 1 4 1 5c3 5 5 7 6 8h-1c4 2 9 4 11 2c12 -7 9 -15 8 -19
l-9 -25c-15 -44 -43 -127 -43 -157c40 11 89 82 113 126c3 7 11 8 17 6zM11 135c37 0 72 48 98 99c-12 8 -22 13 -32 13c-6 0 -16 -3 -24 -8c-32 -21 -56 -75 -51 -98c1 -4 2 -6 9 -6zM58 360h-1c10 2 35 4 30 -8c-7 -15 -13 -18 -24 -20c-10 -3 -29 -4 -22 8l3 6
c3 5 5 12 14 14zM132 360h-1c11 2 35 3 30 -8c-5 -15 -13 -18 -26 -20c-9 -2 -27 -3 -19 8c0 1 2 4 2 5c3 5 7 13 14 15z" />
    <glyph glyph-name="aring" unicode="&#xe5;" 
d="M230 222c7 -3 8 -11 6 -18c-9 -17 -76 -139 -141 -139c-6 0 -14 4 -18 14c-1 10 0 37 7 63l-3 3c-20 -21 -44 -35 -70 -35c-18 0 -31 9 -35 26c-10 35 27 99 64 125c12 7 27 12 38 12c13 0 26 -4 41 -16l8 19c1 3 1 4 1 5c3 5 5 7 6 8h-1c4 2 9 4 11 2c12 -7 9 -15 8 -19
l-9 -25c-15 -44 -43 -127 -43 -157c40 11 89 82 113 126c3 7 11 8 17 6zM11 135c37 0 72 48 98 99c-12 8 -22 13 -32 13c-6 0 -16 -3 -24 -8c-32 -21 -56 -75 -51 -98c1 -4 2 -6 9 -6zM125 404c19 0 31 -17 26 -37c-6 -20 -27 -37 -48 -37c-20 0 -31 16 -26 35
c5 21 26 39 48 39zM107 338c14 0 31 12 35 27c4 17 -4 31 -21 31c-15 0 -32 -12 -36 -29c-5 -17 4 -29 22 -29z" />
    <glyph glyph-name="ae" unicode="&#xe6;" horiz-adv-x="362" 
d="M100 90c32 9 73 60 99 103c-6 -20 -8 -40 -5 -56c-27 -35 -64 -72 -99 -72c-6 0 -14 4 -18 14c-1 10 0 37 7 63l-3 3c-20 -21 -45 -35 -71 -35c-17 0 -30 9 -34 26c-10 35 26 99 64 125c12 7 27 12 38 12c13 0 26 -4 40 -16l8 19c1 3 1 4 1 5c3 5 5 7 6 8h-1
c4 2 9 4 12 2c12 -7 9 -15 8 -19l-9 -25c-16 -44 -43 -127 -43 -157zM212 216v1c0 -1 1 0 2 1l-5 2c0 -1 -1 -2 -1 -3l1 1l-5 -11l-5 -14zM363 309c4 -30 -43 -71 -124 -105c2 8 0 18 -8 22c-3 1 -10 1 -13 1c40 78 93 107 120 103c13 -1 23 -9 25 -21zM249 93
c-12 0 -19 2 -24 4c-15 8 -24 22 -27 38c11 15 21 31 28 43c-3 -10 -4 -18 -4 -25c0 -17 6 -29 15 -33c20 -9 70 15 126 98c4 5 12 7 18 4c6 -4 6 -12 4 -18c-52 -77 -103 -111 -136 -111zM233 198c-3 -8 -6 -14 -7 -20c5 8 8 15 11 20c0 1 1 3 2 4v2l-6 -3
c0 -1 -1 -3 -1 -4zM10 135c38 0 73 48 98 99c-11 8 -21 13 -31 13c-6 0 -16 -3 -24 -8c-33 -21 -56 -75 -52 -98c1 -4 2 -6 9 -6zM336 302l-4 4c-1 0 -5 -1 -13 -4c-17 -6 -40 -25 -62 -58l3 -3c56 30 73 53 76 61z" />
    <glyph glyph-name="ccedilla" unicode="&#xe7;" horiz-adv-x="176" 
d="M34 67h-4v-1c-20 1 -35 13 -46 31c-6 11 -8 25 -8 39c0 36 17 79 47 122c24 37 60 55 83 44c10 -5 16 -20 11 -39c-3 -6 -11 -11 -16 -8c-8 3 -11 11 -9 17c0 1 1 5 1 6c-8 2 -29 -4 -50 -35c-41 -59 -46 -110 -35 -135c5 -11 13 -15 24 -16c28 -2 80 30 141 125
c3 6 11 7 17 3c6 -3 6 -11 4 -17c-55 -87 -114 -136 -160 -136z" />
    <glyph glyph-name="egrave" unicode="&#xe8;" horiz-adv-x="149" 
d="M34 93c-11 0 -18 2 -23 4c-17 10 -29 30 -29 55c0 16 3 34 12 53l5 11c40 87 98 118 125 114c13 -1 22 -9 24 -21c4 -31 -44 -73 -129 -108c0 -1 -1 -3 -1 -4l1 1c-8 -19 -11 -34 -11 -45c0 -17 6 -29 15 -33c19 -9 70 15 125 98c4 5 12 7 18 4c6 -4 6 -12 4 -18
c-51 -77 -103 -111 -136 -111zM126 378c6 -10 -5 -17 -14 -11l-52 58c-9 8 -5 13 5 20c0 0 9 8 16 -2zM122 302l-4 4c-1 0 -5 -1 -13 -4c-18 -6 -41 -25 -63 -58l3 -3c57 30 74 53 77 61z" />
    <glyph glyph-name="eacute" unicode="&#xe9;" horiz-adv-x="149" 
d="M34 93c-11 0 -18 2 -23 4c-17 10 -29 30 -29 55c0 16 3 34 12 53l5 11c40 87 98 118 125 114c13 -1 22 -9 24 -21c4 -31 -44 -73 -129 -108c0 -1 -1 -3 -1 -4l1 1c-8 -19 -11 -34 -11 -45c0 -17 6 -29 15 -33c19 -9 70 15 125 98c4 5 12 7 18 4c6 -4 6 -12 4 -18
c-51 -77 -103 -111 -136 -111zM124 424c9 -8 13 -14 0 -22l-53 -47c-8 -5 -19 2 -12 9l50 59c7 9 15 1 15 1zM122 302l-4 4c-1 0 -5 -1 -13 -4c-18 -6 -41 -25 -63 -58l3 -3c57 30 74 53 77 61z" />
    <glyph glyph-name="ecircumflex" unicode="&#xea;" horiz-adv-x="149" 
d="M34 93c-11 0 -18 2 -23 4c-17 10 -29 30 -29 55c0 16 3 34 12 53l5 11c40 87 98 118 125 114c13 -1 22 -9 24 -21c4 -31 -44 -73 -129 -108c0 -1 -1 -3 -1 -4l1 1c-8 -19 -11 -34 -11 -45c0 -17 6 -29 15 -33c19 -9 70 15 125 98c4 5 12 7 18 4c6 -4 6 -12 4 -18
c-51 -77 -103 -111 -136 -111zM127 424c1 0 3 -2 5 -4v1c5 -11 17 -33 23 -44c0 -3 -2 -10 -6 -14h1c-4 -3 -10 -1 -12 2l-18 38l-71 -45c-5 -2 -11 -2 -12 2c-3 3 0 10 6 13l78 49c2 1 5 2 6 2zM122 302l-4 4c-1 0 -5 -1 -13 -4c-18 -6 -41 -25 -63 -58l3 -3
c57 30 74 53 77 61z" />
    <glyph glyph-name="edieresis" unicode="&#xeb;" horiz-adv-x="149" 
d="M34 93c-11 0 -18 2 -23 4c-17 10 -29 30 -29 55c0 16 3 34 12 53l5 11c40 87 98 118 125 114c13 -1 22 -9 24 -21c4 -31 -44 -73 -129 -108c0 -1 -1 -3 -1 -4l1 1c-8 -19 -11 -34 -11 -45c0 -17 6 -29 15 -33c19 -9 70 15 125 98c4 5 12 7 18 4c6 -4 6 -12 4 -18
c-51 -77 -103 -111 -136 -111zM59 390h-1c10 2 36 4 30 -8c-7 -16 -13 -19 -24 -21c-10 -3 -29 -4 -22 9l3 6c3 5 5 12 14 14zM133 390h-1c11 2 35 3 30 -8c-5 -16 -13 -19 -26 -21c-9 -2 -27 -3 -19 9c0 1 2 4 2 5c3 5 7 13 14 15zM122 302l-4 4c-1 0 -5 -1 -13 -4
c-18 -6 -41 -25 -63 -58l3 -3c57 30 74 53 77 61z" />
    <glyph glyph-name="igrave" unicode="&#xec;" horiz-adv-x="137" 
d="M153 199h-1c-4 -4 -14 -15 -24 -28l-11 -15c-61 -78 -103 -125 -125 -126v1c-7 0 -15 2 -18 7c-4 6 -6 16 -6 28c0 50 30 148 50 211c2 7 9 11 16 8c7 -2 11 -9 8 -16c-26 -82 -50 -181 -48 -212c26 16 69 70 96 104l8 11v-1c36 47 41 53 50 53c6 0 12 -6 12 -13
c0 -5 -3 -10 -7 -12zM87 334c6 -9 -6 -16 -15 -10l-51 58c-9 8 -5 13 5 20c0 0 9 8 16 -2z" />
    <glyph glyph-name="iacute" unicode="&#xed;" horiz-adv-x="137" 
d="M153 199h-1c-4 -4 -14 -15 -24 -28l-11 -15c-61 -78 -103 -125 -125 -126v1c-7 0 -15 2 -18 7c-4 6 -6 16 -6 28c0 50 30 148 50 211c2 7 9 11 16 8c7 -2 11 -9 8 -16c-26 -82 -50 -181 -48 -212c26 16 69 70 96 104l8 11v-1c36 47 41 53 50 53c6 0 12 -6 12 -13
c0 -5 -3 -10 -7 -12zM94 415c9 -8 13 -14 0 -22l-53 -47c-8 -5 -19 2 -12 9l49 59c8 9 16 1 16 1z" />
    <glyph glyph-name="icircumflex" unicode="&#xee;" horiz-adv-x="137" 
d="M153 199h-1c-4 -4 -14 -15 -24 -28l-11 -15c-61 -78 -103 -125 -125 -126v1c-7 0 -15 2 -18 7c-4 6 -6 16 -6 28c0 50 30 148 50 211c2 7 9 11 16 8c7 -2 11 -9 8 -16c-26 -82 -50 -181 -48 -212c26 16 69 70 96 104l8 11v-1c36 47 41 53 50 53c6 0 12 -6 12 -13
c0 -5 -3 -10 -7 -12zM96 402c1 0 3 -2 5 -4v1c5 -11 17 -34 23 -45c0 -3 -2 -9 -6 -13h1c-4 -3 -10 -1 -12 2l-18 38l-71 -45c-5 -2 -11 -2 -12 2c-3 3 0 9 6 12l78 50c2 1 5 2 6 2z" />
    <glyph glyph-name="idieresis" unicode="&#xef;" horiz-adv-x="137" 
d="M153 199h-1c-4 -4 -14 -15 -24 -28l-11 -15c-61 -78 -103 -125 -125 -126v1c-7 0 -15 2 -18 7c-4 6 -6 16 -6 28c0 50 30 148 50 211c2 7 9 11 16 8c7 -2 11 -9 8 -16c-26 -82 -50 -181 -48 -212c26 16 69 70 96 104l8 11v-1c36 47 41 53 50 53c6 0 12 -6 12 -13
c0 -5 -3 -10 -7 -12zM11 380h-1c10 2 35 4 30 -8c-7 -16 -13 -19 -24 -21c-10 -3 -29 -4 -22 8l3 6c3 6 5 13 14 15zM84 380h-1c12 2 36 3 31 -8c-5 -16 -13 -19 -26 -21c-10 -2 -28 -3 -20 8c0 1 2 4 2 5c3 6 7 14 14 16z" />
    <glyph glyph-name="ntilde" unicode="&#xf1;" horiz-adv-x="234" 
d="M251 221c5 -4 7 -12 5 -18c-22 -37 -87 -142 -130 -142c-5 0 -10 3 -12 6c-8 11 -3 29 21 99l4 13c14 42 36 103 32 124c-52 -6 -155 -177 -212 -298c-3 -4 -7 -7 -12 -7h-5c-6 3 -9 9 -7 16c28 91 61 188 89 279c3 6 10 10 16 8c7 -2 11 -9 9 -15l-37 -117l4 -1
c48 79 109 161 156 161c8 0 14 -4 19 -10v1c16 -21 -3 -82 -31 -161c-8 -22 -19 -54 -24 -71c28 22 69 78 98 128c3 6 11 8 17 5zM162 385c-19 0 -34 10 -47 18c-16 10 -29 17 -38 17c-10 0 -18 -5 -26 -16c-2 -4 -8 -6 -11 -3c-3 2 -2 6 0 9v-1c13 17 25 23 37 23
c14 0 32 -10 45 -18c14 -10 26 -17 39 -17c9 0 19 3 27 11c2 4 7 4 10 0c2 -1 1 -4 -2 -7c-12 -12 -24 -16 -34 -16z" />
    <glyph glyph-name="ograve" unicode="&#xf2;" horiz-adv-x="211" 
d="M215 221c6 0 12 -5 12 -13c0 -6 -6 -12 -12 -12c-29 0 -52 4 -71 10c-26 -46 -76 -90 -119 -90c-17 0 -28 6 -33 13c-7 8 -10 18 -10 31c0 53 65 155 122 156c21 0 34 -5 44 -14c9 -9 14 -21 14 -36c0 -12 -2 -24 -7 -36c17 -6 37 -9 60 -9zM25 141c32 0 73 38 97 77
c-8 6 -15 13 -21 22c-10 14 -12 32 -12 47c-37 -21 -81 -91 -81 -127c0 -6 2 -12 6 -18c1 -1 5 -1 11 -1zM138 385c6 -9 -5 -17 -14 -10l-52 57c-9 8 -5 13 5 20c0 0 9 8 16 -2zM137 266c0 8 -1 14 -3 16c-4 2 -9 5 -18 7c-1 -10 -1 -27 8 -38c0 0 8 -9 9 -10
c3 10 4 17 4 25z" />
    <glyph glyph-name="oacute" unicode="&#xf3;" horiz-adv-x="211" 
d="M215 221c6 0 12 -5 12 -13c0 -6 -6 -12 -12 -12c-29 0 -52 4 -71 10c-26 -46 -76 -90 -119 -90c-17 0 -28 6 -33 13c-7 8 -10 18 -10 31c0 53 65 155 122 156c21 0 34 -5 44 -14c9 -9 14 -21 14 -36c0 -12 -2 -24 -7 -36c17 -6 37 -9 60 -9zM25 141c32 0 73 38 97 77
c-8 6 -15 13 -21 22c-10 14 -12 32 -12 47c-37 -21 -81 -91 -81 -127c0 -6 2 -12 6 -18c1 -1 5 -1 11 -1zM124 429c9 -8 13 -14 0 -22l-53 -47c-8 -5 -19 2 -12 10l50 58c7 9 15 1 15 1zM137 266c0 8 -1 14 -3 16c-4 2 -9 5 -18 7c-1 -10 -1 -27 8 -38c0 0 8 -9 9 -10
c3 10 4 17 4 25z" />
    <glyph glyph-name="ocircumflex" unicode="&#xf4;" horiz-adv-x="211" 
d="M215 221c6 0 12 -5 12 -13c0 -6 -6 -12 -12 -12c-29 0 -52 4 -71 10c-26 -46 -76 -90 -119 -90c-17 0 -28 6 -33 13c-7 8 -10 18 -10 31c0 53 65 155 122 156c21 0 34 -5 44 -14c9 -9 14 -21 14 -36c0 -12 -2 -24 -7 -36c17 -6 37 -9 60 -9zM25 141c32 0 73 38 97 77
c-8 6 -15 13 -21 22c-10 14 -12 32 -12 47c-37 -21 -81 -91 -81 -127c0 -6 2 -12 6 -18c1 -1 5 -1 11 -1zM129 423c1 0 3 -2 5 -4v1c5 -11 17 -33 23 -44c0 -3 -2 -10 -6 -14h1c-4 -3 -10 -1 -12 2l-18 38l-71 -45c-5 -2 -11 -2 -12 2c-3 3 0 9 6 13l78 49c2 1 5 2 6 2z
M137 266c0 8 -1 14 -3 16c-4 2 -9 5 -18 7c-1 -10 -1 -27 8 -38c0 0 8 -9 9 -10c3 10 4 17 4 25z" />
    <glyph glyph-name="otilde" unicode="&#xf5;" horiz-adv-x="211" 
d="M215 221c6 0 12 -5 12 -13c0 -6 -6 -12 -12 -12c-29 0 -52 4 -71 10c-26 -46 -76 -90 -119 -90c-17 0 -28 6 -33 13c-7 8 -10 18 -10 31c0 53 65 155 122 156c21 0 34 -5 44 -14c9 -9 14 -21 14 -36c0 -12 -2 -24 -7 -36c17 -6 37 -9 60 -9zM25 141c32 0 73 38 97 77
c-8 6 -15 13 -21 22c-10 14 -12 32 -12 47c-37 -21 -81 -91 -81 -127c0 -6 2 -12 6 -18c1 -1 5 -1 11 -1zM147 363c-19 0 -34 11 -48 19c-15 10 -28 17 -37 17c-10 0 -18 -5 -26 -16c-2 -4 -8 -6 -11 -3c-3 2 -2 6 0 9v-1c13 17 25 23 37 23c14 0 31 -10 45 -18
c14 -10 26 -17 39 -17c9 0 19 3 27 11c2 4 7 4 10 0c2 -1 1 -4 -2 -7c-12 -13 -24 -17 -34 -17zM137 266c0 8 -1 14 -3 16c-4 2 -9 5 -18 7c-1 -10 -1 -27 8 -38c0 0 8 -9 9 -10c3 10 4 17 4 25z" />
    <glyph glyph-name="odieresis" unicode="&#xf6;" horiz-adv-x="211" 
d="M215 221c6 0 12 -5 12 -13c0 -6 -6 -12 -12 -12c-29 0 -52 4 -71 10c-26 -46 -76 -90 -119 -90c-17 0 -28 6 -33 13c-7 8 -10 18 -10 31c0 53 65 155 122 156c21 0 34 -5 44 -14c9 -9 14 -21 14 -36c0 -12 -2 -24 -7 -36c17 -6 37 -9 60 -9zM25 141c32 0 73 38 97 77
c-8 6 -15 13 -21 22c-10 14 -12 32 -12 47c-37 -21 -81 -91 -81 -127c0 -6 2 -12 6 -18c1 -1 5 -1 11 -1zM54 400h-1c10 2 35 4 30 -8c-7 -15 -13 -18 -24 -20c-10 -4 -29 -5 -22 8l3 6c3 5 5 12 14 14zM128 400h-1c11 2 35 3 30 -8c-5 -15 -13 -18 -26 -20
c-9 -2 -28 -4 -19 8c0 1 2 4 2 5c3 5 7 13 14 15zM137 266c0 8 -1 14 -3 16c-4 2 -9 5 -18 7c-1 -10 -1 -27 8 -38c0 0 8 -9 9 -10c3 10 4 17 4 25z" />
    <glyph glyph-name="oslash" unicode="&#xf8;" horiz-adv-x="211" 
d="M137 266c0 8 -1 13 -5 17c-2 0 -7 3 -9 4l7 26c5 -2 13 -7 18 -11c8 -9 14 -22 14 -36c0 -12 -2 -24 -7 -36c17 -6 37 -9 60 -9c6 0 12 -5 12 -13c0 -6 -6 -12 -12 -12c-29 0 -52 4 -71 10c-14 -26 -37 -53 -60 -69l12 47v-1c7 7 16 20 26 35l-13 11l9 36
c1 -6 3 -11 6 -15l9 -9c3 10 4 17 4 25zM25 141c9 0 17 2 27 7l-8 -30c-5 -1 -12 -2 -19 -2c-17 0 -28 6 -33 13c-7 8 -10 18 -10 31c0 51 58 141 112 154l-8 -28c-36 -24 -78 -91 -78 -126c0 -6 2 -12 6 -18c1 -1 5 -1 11 -1zM89 287c-1 -1 -2 -1 -3 -1l-1 -6l4 -1v8z
M40 17h-4l1 -1c-6 2 -10 10 -10 16l21 82c9 2 20 7 29 13l-25 -102c-1 -4 -6 -8 -12 -8zM99 233l3 -4l-10 -42c-11 -12 -23 -23 -34 -31c8 36 18 71 27 105c2 -9 7 -19 14 -28zM103 321l15 67c2 7 9 11 15 9c7 -2 12 -8 10 -15c-5 -22 -12 -43 -17 -64c-6 2 -13 3 -18 3h-5z
M120 286l-2 -1l-2 -10l4 -1c-1 5 -1 9 0 12z" />
    <glyph glyph-name="ugrave" unicode="&#xf9;" horiz-adv-x="249" 
d="M270 221c6 -3 7 -11 3 -17c-45 -72 -74 -98 -98 -90c-19 7 -26 39 -27 74c-50 -84 -94 -128 -126 -128c-7 0 -12 1 -16 3c-16 8 -25 28 -25 58c0 44 17 108 52 184c3 6 11 9 17 6c7 -2 10 -10 7 -17c-38 -83 -51 -142 -51 -174c0 -18 6 -30 12 -34c13 -6 65 28 135 168
c2 5 9 8 15 6s9 -8 9 -14h1c-4 -24 -5 -43 -5 -57c0 -26 3 -47 9 -51c0 0 20 1 70 79c3 6 12 8 18 4zM156 345c6 -9 -5 -16 -14 -10l-52 58c-9 8 -5 13 5 20c0 0 9 8 16 -2z" />
    <glyph glyph-name="uacute" unicode="&#xfa;" horiz-adv-x="249" 
d="M270 221c6 -3 7 -11 3 -17c-45 -72 -74 -98 -98 -90c-19 7 -26 39 -27 74c-50 -84 -94 -128 -126 -128c-7 0 -12 1 -16 3c-16 8 -25 28 -25 58c0 44 17 108 52 184c3 6 11 9 17 6c7 -2 10 -10 7 -17c-38 -83 -51 -142 -51 -174c0 -18 6 -30 12 -34c13 -6 65 28 135 168
c2 5 9 8 15 6s9 -8 9 -14h1c-4 -24 -5 -43 -5 -57c0 -26 3 -47 9 -51c0 0 20 1 70 79c3 6 12 8 18 4zM156 421c9 -8 13 -14 0 -22l-53 -47c-8 -5 -19 2 -12 9l50 59c7 9 15 1 15 1z" />
    <glyph glyph-name="ucircumflex" unicode="&#xfb;" horiz-adv-x="249" 
d="M270 221c6 -3 7 -11 3 -17c-45 -72 -74 -98 -98 -90c-19 7 -26 39 -27 74c-50 -84 -94 -128 -126 -128c-7 0 -12 1 -16 3c-16 8 -25 28 -25 58c0 44 17 108 52 184c3 6 11 9 17 6c7 -2 10 -10 7 -17c-38 -83 -51 -142 -51 -174c0 -18 6 -30 12 -34c13 -6 65 28 135 168
c2 5 9 8 15 6s9 -8 9 -14h1c-4 -24 -5 -43 -5 -57c0 -26 3 -47 9 -51c0 0 20 1 70 79c3 6 12 8 18 4zM151 428c1 0 3 -2 5 -4v1c5 -11 17 -33 23 -44c0 -3 -2 -9 -6 -14h1c-4 -3 -10 -1 -12 3l-18 37l-71 -45c-5 -2 -11 -2 -12 2c-3 3 0 10 6 13l78 49c2 1 5 2 6 2z" />
    <glyph glyph-name="udieresis" unicode="&#xfc;" horiz-adv-x="249" 
d="M79 386h-1c10 2 35 4 30 -8c-7 -16 -13 -19 -24 -21c-10 -3 -29 -4 -22 8l3 7c3 5 5 12 14 14zM153 386h-1c11 2 35 3 30 -8c-5 -16 -13 -19 -26 -21c-9 -2 -27 -3 -19 8c0 1 2 5 2 6c3 5 7 13 14 15zM270 221c6 -3 7 -11 3 -17c-45 -72 -74 -98 -98 -90
c-19 7 -26 39 -27 74c-50 -84 -94 -128 -126 -128c-7 0 -12 1 -16 3c-16 8 -25 28 -25 58c0 44 17 108 52 184c3 6 11 9 17 6c7 -2 10 -10 7 -17c-38 -83 -51 -142 -51 -174c0 -18 6 -30 12 -34c13 -6 65 28 135 168c2 5 9 8 15 6s9 -8 9 -14h1c-4 -24 -5 -43 -5 -57
c0 -26 3 -47 9 -51c0 0 20 1 70 79c3 6 12 8 18 4z" />
    <glyph glyph-name="yacute" unicode="&#xfd;" horiz-adv-x="257" 
d="M276 218c3 -6 1 -14 -6 -17c-36 -22 -97 -70 -164 -125c-16 -39 -35 -85 -54 -125c-90 -195 -170 -298 -234 -298c-8 0 -14 1 -18 2c-29 9 -38 28 -40 42c-9 84 173 265 324 392l28 72l-3 3c-42 -50 -85 -78 -112 -80c-14 -1 -24 5 -31 14c-13 21 -4 62 25 118
c3 7 11 8 17 6c7 -3 8 -11 6 -18c-33 -64 -27 -91 -26 -94h7c32 2 109 65 161 174c3 6 10 8 17 6c6 -3 9 -10 6 -17c0 -1 -22 -65 -54 -150c64 51 112 87 132 99c6 4 14 2 19 -4zM-193 -321c68 -19 169 155 251 349l-3 3c-137 -120 -276 -269 -269 -330c1 -8 4 -17 21 -22z
M126 386c9 -8 13 -14 0 -23l-52 -46c-8 -5 -20 2 -13 9l50 59c7 9 15 1 15 1z" />
    <glyph glyph-name="ydieresis" unicode="&#xff;" horiz-adv-x="257" 
d="M276 218c3 -6 1 -14 -6 -17c-36 -22 -97 -70 -164 -125c-16 -39 -35 -85 -54 -125c-90 -195 -170 -298 -234 -298c-8 0 -14 1 -18 2c-29 9 -38 28 -40 42c-9 84 173 265 324 392l28 72l-3 3c-42 -50 -85 -78 -112 -80c-14 -1 -24 5 -31 14c-13 21 -4 62 25 118
c3 7 11 8 17 6c7 -3 8 -11 6 -18c-33 -64 -27 -91 -26 -94h7c32 2 109 65 161 174c3 6 10 8 17 6c6 -3 9 -10 6 -17c0 -1 -22 -65 -54 -150c64 51 112 87 132 99c6 4 14 2 19 -4zM-193 -321c68 -19 169 155 251 349l-3 3c-137 -120 -276 -269 -269 -330c1 -8 4 -17 21 -22z
M30 353h-1c10 2 36 4 30 -8c-7 -15 -13 -18 -24 -20c-10 -3 -29 -4 -22 8l3 6c3 5 5 12 14 14zM104 353h-1c11 2 35 3 30 -8c-5 -15 -13 -18 -26 -20c-9 -2 -27 -3 -19 8c0 1 2 4 2 5c3 5 7 13 14 15z" />
    <glyph glyph-name="fraction" unicode="&#x2044;" horiz-adv-x="218" 
d="M-12 -27h-4l1 -1c-7 2 -12 9 -10 16l202 822c3 5 10 11 15 9c7 -2 12 -8 10 -16l-202 -822c-1 -4 -6 -8 -12 -8z" />
    <glyph glyph-name="scaron" unicode="&#x161;" horiz-adv-x="160" 
d="M161 222h1c7 2 13 -5 15 -11c0 -5 -6 -12 -11 -14c-46 -9 -94 -38 -129 -71c1 -7 2 -17 2 -32c0 -35 -14 -70 -71 -93l1 1c-1 0 -1 -1 -2 -1c-5 -2 -9 -3 -14 -3s-10 2 -13 5c-6 6 -8 15 -5 28c7 23 34 64 73 101c0 1 -1 4 -1 5v5c-4 20 -7 40 -7 59c0 46 28 97 123 132
c5 0 14 -3 16 -9c3 -5 -2 -13 -8 -16c-84 -30 -107 -67 -107 -107c0 -10 3 -27 7 -48c40 35 87 62 130 69zM-38 30l3 -3c40 17 49 44 48 75c-25 -29 -45 -57 -51 -72zM49 382c-3 0 -5 1 -6 2l-22 43c-2 3 3 10 11 16c1 1 3 -2 5 -5l18 -37l70 43c5 3 9 1 11 -2s0 -9 -5 -12
l-80 -49c1 1 -1 1 -2 1z" />
    <glyph glyph-name="Scaron" unicode="&#x160;" horiz-adv-x="783" 
d="M1043 795c58 -19 76 -50 80 -72c9 -51 -33 -113 -125 -186h1c-6 -4 -14 -3 -19 2v-1c-5 6 -4 14 2 18c107 84 119 138 116 161c-6 29 -37 45 -62 53c-26 8 -56 11 -91 11c-216 0 -640 -118 -843 -323c-47 -47 -66 -88 -57 -124c22 -77 192 -120 341 -157
c13 -3 27 -6 40 -10c112 28 239 47 363 56c7 0 13 -2 13 -6c2 -11 -4 -21 -11 -21c-106 -7 -207 -20 -304 -41v-4c105 -29 187 -68 201 -120c-1 -54 -71 -124 -227 -203c-267 -138 -458 -186 -577 -186c-54 0 -92 8 -115 24c-23 15 -35 45 -36 71c13 91 162 218 384 322
c78 36 162 68 251 92v4c-159 39 -319 86 -348 173c-10 44 11 93 65 147c208 210 639 332 863 332c37 0 70 -5 95 -12zM427 140h-2c-100 -25 -207 -62 -297 -104c-243 -118 -364 -241 -369 -301c-1 -21 7 -36 24 -48c21 -13 55 -21 100 -21c118 0 311 52 567 184
c181 94 215 149 212 178c-6 50 -117 83 -235 112zM549 849c-4 0 -7 1 -8 4l-32 61c-3 5 0 13 8 18c6 4 14 4 17 -2l25 -51l97 60c8 4 15 3 17 -3c3 -5 0 -14 -8 -18l-111 -69h-5z" />
    <glyph glyph-name="Ydieresis" unicode="&#x178;" horiz-adv-x="627" 
d="M622 623c-16 -46 -60 -165 -109 -290c-15 -37 -34 -80 -52 -123c54 7 113 13 177 13c6 0 12 -7 12 -14s-6 -12 -12 -12c-64 0 -127 -5 -190 -16c-77 -172 -176 -370 -285 -529c-140 -207 -273 -309 -392 -309c-19 0 -36 2 -50 5c-50 13 -78 60 -78 129c0 14 1 27 3 41
c19 155 154 393 412 549c-10 37 -13 78 -13 118c0 83 12 171 23 233c27 150 72 296 105 339v-1c4 5 12 6 18 2h-1c5 -4 7 -12 3 -18v1c-44 -57 -124 -358 -124 -556c0 -35 4 -69 12 -103c78 44 165 79 262 104c85 134 173 324 223 438c33 73 52 114 61 125c8 12 16 13 22 10
c10 -5 15 -8 -27 -136zM-65 -567c175 131 350 451 482 743c-18 -3 -40 -8 -57 -12c-68 -104 -137 -174 -203 -181c-36 -4 -64 12 -83 44l-8 15c-246 -151 -376 -380 -395 -528c-2 -14 -3 -29 -3 -35c0 -40 11 -92 59 -106c14 -4 28 -5 43 -5c52 0 108 21 165 65zM318 149
l-3 3c-84 -24 -158 -57 -227 -96l8 -16c13 -25 32 -34 58 -32c52 6 108 61 164 141zM428 204l2 1c63 141 114 274 149 373l-4 2c-60 -133 -125 -270 -196 -385c14 3 34 7 49 9zM483 837h-1c16 3 53 5 45 -13c-10 -24 -19 -28 -36 -32c-15 -3 -45 -5 -33 15l4 9
c4 7 12 19 21 21zM349 837h-1c16 3 53 5 45 -13c-10 -24 -19 -28 -36 -32c-15 -3 -45 -5 -33 15l4 9c4 7 12 19 21 21z" />
    <glyph glyph-name="zcaron" unicode="&#x17e;" horiz-adv-x="187" 
d="M169 153c6 0 12 -6 12 -13s-6 -12 -12 -12c-25 0 -59 -9 -94 -26c-9 -21 -19 -41 -28 -58c-66 -108 -197 -266 -280 -266h-6c-2 0 -3 1 -5 1v-1c-24 4 -37 19 -35 41c6 73 187 232 335 302c18 46 20 74 11 85c-7 8 -26 5 -50 -2c-5 -1 -13 2 -15 7s0 12 4 16
c103 68 130 125 126 147c-1 8 -6 15 -13 17c-29 8 -90 -14 -157 -83c-3 -4 -12 -3 -17 -1c-4 5 -5 13 0 18c79 83 147 100 181 91c15 -7 31 -23 33 -38c5 -40 -32 -90 -97 -143c10 -3 19 -9 25 -14c6 -9 10 -22 10 -35c0 -17 -3 -35 -8 -52c31 12 59 19 80 19zM24 58l14 26
c-136 -75 -288 -215 -292 -267c0 -7 0 -11 15 -13c63 -10 191 125 263 254zM55 482c-3 0 -5 1 -6 3l-27 50c-2 4 2 11 13 17c1 1 5 -1 8 -5v1l20 -43c24 16 53 34 79 50c6 2 12 1 14 -2c2 -4 0 -12 -7 -15c-28 -18 -60 -37 -87 -55c-1 -1 -4 -1 -7 -1z" />
    <glyph glyph-name="Zcaron" unicode="&#x17d;" horiz-adv-x="541" 
d="M613 2c6 0 12 -6 12 -13s-5 -13 -12 -13c-252 -11 -482 -47 -684 -80l-33 -25c-25 -16 -47 -25 -62 -25c-6 0 -11 1 -12 2c-17 11 -15 21 -14 25c2 8 7 23 113 46c104 80 275 246 440 421l-294 -62l1 1c-9 0 -14 5 -15 11c-2 6 3 12 10 14h-1l331 70
c199 211 381 421 415 477c-72 5 -425 -56 -758 -136c-7 -2 -13 3 -15 10c-2 6 5 12 10 15c227 54 625 136 749 136c17 0 30 -1 36 -5h-1c4 -3 7 -8 8 -12c2 -8 3 -19 -114 -157c-73 -86 -167 -192 -268 -299l-18 -20l307 63c7 2 14 -3 16 -10s-3 -13 -10 -15l-345 -72
c-173 -182 -324 -329 -431 -418c181 27 501 74 639 71zM409 899c-4 0 -7 1 -8 4l-33 62c-3 5 0 13 8 18c7 4 15 4 18 -2l25 -52l96 61c8 4 16 3 18 -3c3 -5 0 -14 -9 -18l-110 -70h-5z" />
    <glyph glyph-name="t.t1" unicode="&#xe012;" horiz-adv-x="84" 
d="M503 573c6 0 12 -6 12 -13s-6 -12 -12 -12c-127 0 -248 -13 -352 -30c-20 -44 -45 -89 -79 -134c-61 -215 -132 -463 -154 -580c-1 -6 -6 -10 -12 -10h-1c-8 1 -14 8 -12 14c25 132 119 457 188 696c-157 -32 -255 -69 -261 -72c-2 -1 -2 0 -4 0c-5 0 -10 3 -12 7
c-3 7 1 14 7 17c2 1 106 42 279 76l17 62c10 32 18 60 25 86c32 106 50 108 57 109c8 1 15 -3 19 -9c2 -5 4 -16 4 -32c0 -45 -14 -121 -47 -203c101 17 216 28 338 28zM132 588l-14 -51c4 1 10 3 16 3c39 88 54 170 54 207l-4 1c-6 -13 -14 -34 -26 -74zM107 485l13 26
c-2 0 -7 0 -11 -2l-6 -22z" />
    <glyph glyph-name="t.t2" unicode="&#xe013;" horiz-adv-x="173" 
d="M243 441c7 0 13 -6 14 -13h-1c0 -6 -6 -12 -12 -12c-50 0 -106 -2 -169 -8c-59 -208 -81 -360 -72 -390c36 8 91 93 123 143c15 23 28 42 38 56v-1c4 6 12 8 15 5c7 -6 10 -15 5 -21v1c-7 -7 -18 -26 -31 -46l-6 -9c-55 -87 -103 -152 -146 -152c-7 0 -12 3 -17 8
c-6 8 -8 22 -8 42c0 76 34 227 72 362c-100 -9 -196 -25 -288 -47l1 1c-8 0 -14 4 -16 10c0 6 4 14 10 15c96 23 198 39 300 47c2 9 6 19 8 28l16 48c2 7 10 10 15 10c6 -3 11 -11 9 -17l-13 -42l-7 -24c52 4 108 6 160 6z" />
    <glyph glyph-name="florin" unicode="&#x192;" horiz-adv-x="153" 
d="M154 223h1c6 2 13 -4 14 -12c2 -6 -4 -12 -10 -13l-148 -27c0 -1 -1 -4 -1 -5c22 -24 37 -47 43 -74c2 -9 3 -21 3 -36c0 -123 -120 -270 -125 -276c-3 -3 -7 -5 -10 -5s-4 0 -5 1c-5 2 -9 7 -8 13c6 77 35 217 72 362l-22 13c-4 3 -8 9 -8 14c2 3 6 9 10 11l32 5
c58 222 131 445 165 470c8 6 13 6 16 5c5 -1 14 -5 17 -17c14 -50 -52 -259 -141 -345l-10 -37l-19 -70zM165 627l-4 1c-20 -36 -54 -131 -89 -246l4 -2c52 81 84 198 89 247zM28 86v1c-4 18 -12 33 -25 47c-27 -107 -51 -212 -62 -293l3 -1c36 54 87 143 87 216
c0 10 -1 20 -3 30z" />
    <glyph glyph-name="colon" unicode=":" horiz-adv-x="221" 
d="M86 314h-1c16 3 54 5 46 -13c-11 -23 -20 -27 -37 -31c-15 -3 -45 -5 -33 14l4 9c4 7 12 19 21 21zM86 64h-1c16 3 54 5 46 -13c-11 -23 -20 -27 -37 -31c-15 -3 -45 -5 -33 14l4 9c4 7 12 19 21 21z" />
    <glyph glyph-name="semicolon" unicode=";" horiz-adv-x="259" 
d="M86 314h-1c16 3 54 5 46 -13c-11 -23 -20 -27 -37 -31c-15 -3 -45 -5 -33 14l4 9c4 7 12 19 21 21zM61 -22l54 81c8 12 20 3 20 3c13 -10 15 -13 4 -24l-65 -70c-9 -8 -21 -1 -13 10z" />
    <glyph glyph-name="a" unicode="a" 
d="M230 222c7 -3 8 -11 6 -18c-9 -17 -76 -139 -141 -139c-6 0 -14 4 -18 14c-1 10 0 37 7 63l-3 3c-20 -21 -44 -35 -70 -35c-18 0 -31 9 -35 26c-10 35 27 99 64 125c12 7 27 12 38 12c13 0 26 -4 41 -16l8 19c1 3 1 4 1 5c3 5 5 7 6 8h-1c4 2 9 4 11 2c12 -7 9 -15 8 -19
l-9 -25c-15 -44 -43 -127 -43 -157c40 11 89 82 113 126c3 7 11 8 17 6zM11 135c37 0 72 48 98 99c-12 8 -22 13 -32 13c-6 0 -16 -3 -24 -8c-32 -21 -56 -75 -51 -98c1 -4 2 -6 9 -6z" />
    <glyph glyph-name="quotedbl" unicode="&#x22;" horiz-adv-x="225" 
d="M5 462l54 82c8 12 19 3 19 3c13 -10 15 -13 4 -24l-64 -71c-9 -8 -21 -1 -13 10zM128 462l54 82c8 12 19 3 19 3c13 -10 15 -13 4 -24l-64 -71c-9 -8 -22 -1 -13 10z" />
    <glyph glyph-name="quotesingle" unicode="'" horiz-adv-x="173" 
d="M14 465l54 82c8 12 19 3 19 3c13 -10 16 -13 4 -24l-64 -71c-9 -8 -21 -1 -13 10z" />
    <glyph glyph-name="hyphen" unicode="-" horiz-adv-x="365" 
d="M97 197l-1 4c1 7 7 12 14 12l194 -2c6 0 11 -6 11 -13c0 -6 -6 -12 -12 -12l-188 2c-9 -1 -16 3 -18 9z" />
    <glyph glyph-name="plus" unicode="+" horiz-adv-x="388" 
d="M229 307h3c6 -3 11 -11 9 -16l-24 -79l87 -1c6 0 11 -6 11 -13c0 -6 -6 -12 -12 -12l-93 1l-25 -82c-2 -7 -10 -9 -16 -8c-6 2 -10 10 -10 15l24 75l-68 1c-9 -1 -16 3 -18 9l-1 4c1 7 7 12 14 12l80 -1l26 85c1 6 7 10 13 10z" />
    <glyph glyph-name="equal" unicode="=" horiz-adv-x="436" 
d="M97 197l-1 4c1 7 7 12 14 12l194 -2c6 0 11 -6 11 -13c0 -6 -6 -12 -12 -12l-188 2c-9 -1 -16 3 -18 9zM130 283l-1 4c1 7 7 12 14 12l195 -2c6 0 11 -6 11 -13c0 -6 -6 -12 -12 -12l-189 2c-9 -1 -16 3 -18 9z" />
    <glyph glyph-name="b" unicode="b" horiz-adv-x="188" 
d="M142 311c28 -13 30 -34 28 -45c-6 -50 -102 -117 -175 -154c-12 -29 -23 -62 -30 -85c-2 -4 -8 -8 -12 -8h-4l1 -1c-7 3 -11 9 -9 16l170 583c2 7 9 10 16 9c6 -2 9 -11 9 -16l-104 -357l4 -2c18 28 38 50 59 59c16 8 33 8 47 1zM145 270v1c0 4 0 10 -13 17
c-8 3 -10 3 -12 3c-3 0 -8 -1 -14 -4c-33 -14 -67 -76 -96 -139c63 38 131 91 135 122z" />
    <glyph glyph-name="c" unicode="c" horiz-adv-x="176" 
d="M34 67h-4v-1c-20 1 -35 13 -46 31c-6 11 -8 25 -8 39c0 36 17 79 47 122c24 37 60 55 83 44c10 -5 16 -20 11 -39c-3 -6 -11 -11 -16 -8c-8 3 -11 11 -9 17c0 1 1 5 1 6c-8 2 -29 -4 -50 -35c-41 -59 -46 -110 -35 -135c5 -11 13 -15 24 -16c28 -2 80 30 141 125
c3 6 11 7 17 3c6 -3 6 -11 4 -17c-55 -87 -114 -136 -160 -136z" />
    </font>
</defs>
</svg>
