<?xml version="1.0" standalone="no"?>
<!DOCTYPE svg PUBLIC "-//W3C//DTD SVG 1.1//EN" "http://www.w3.org/Graphics/SVG/1.1/DTD/svg11.dtd" >
<svg xmlns="http://www.w3.org/2000/svg" xmlns:xlink="http://www.w3.org/1999/xlink" version="1.1">
<metadata>
Created by FontForge 20170910 at Wed Sep 12 19:44:12 2018
 By Jimmy Wärting
</metadata>
<defs>
<font id="Icon2-Regular" horiz-adv-x="250" >
  <font-face 
    font-family="Icon2"
    font-weight="400"
    font-stretch="normal"
    units-per-em="1000"
    panose-1="2 0 5 3 0 0 0 0 0 0"
    ascent="800"
    descent="-200"
    cap-height="656"
    bbox="33 -57 1189 666"
    underline-thickness="50"
    underline-position="-150"
    unicode-range="U+000D-00A0"
  />
<missing-glyph horiz-adv-x="364" 
d="M33 0v666h265v-666h-265zM66 33h199v600h-199v-600z" />
    <glyph glyph-name=".notdef" horiz-adv-x="364" 
d="M33 0v666h265v-666h-265zM66 33h199v600h-199v-600z" />
    <glyph glyph-name=".null" 
 />
    <glyph glyph-name=".null" 
 />
    <glyph glyph-name="nonmarkingreturn" horiz-adv-x="333" 
 />
    <glyph glyph-name="CR" unicode="&#xd;" 
 />
    <glyph glyph-name="space" unicode=" " 
 />
    <glyph glyph-name="A" unicode="A" horiz-adv-x="841" 
d="M491 -44v299h299v-299h-299zM53 -44v299h299v-299h-299zM275 352v299h299v-299h-299z" />
    <glyph glyph-name="B" unicode="B" horiz-adv-x="670" 
d="M167 129q4 4 169 4h165v-35h-338v13q0 14 4 18zM167 212q4 4 169 4h165v-35h-338v13q0 14 4 18zM167 295q4 4 169 4h165v-35h-338v13q0 14 4 18zM167 378q4 4 169 4h165v-35h-338v13q0 14 4 18zM163 471v42l81 -2l82 -1v-36l-82 -2zM418 453v137h-309l1 -292l2 -292
l221 -2l221 -1v450h-136zM80 651q8 3 183 3l175 1q60 -61 182 -181l-2 -253q-2 -176 -4 -216.5t-9 -47.5t-45 -8.5t-222 -3.5q-73 -1 -164 -1q-66 0 -82.5 2t-25.5 9l-16 13v331q0 229 1.5 281t9.5 58q9 9 19 13z" />
    <glyph glyph-name="C" unicode="C" horiz-adv-x="624" 
d="M447 404q-8 8 -21 8q-9 0 -14 -5q-3 -3 -7 -32q-12 -126 -14 -180q-1 -10 -2 -30t-2 -34.5t-2 -22.5q-2 -17 -2 -42q0 -44 21 -44q17 0 21.5 11.5t7.5 60.5q6 101 8 125q11 149 11 168q0 10 -5 17zM332 403q-6 9 -20 9t-20 -9q-3 -6 -3 -109v-81q1 -169 7 -184
q3 -7 14 -7h2h2q15 0 17.5 25t3.5 165v1v81q0 103 -3 109zM213 406q-4 5 -16 5q-14 0 -20 -7q-6 -6 -6 -21q0 -11 3 -44q3 -43 11 -158l8 -115q2 -26 8 -35t20 -9q12 0 16 7.5t4 31.5q0 21 -3 62q-2 29 -5 85q-3 61 -9.5 127.5t-10.5 70.5zM82 446v14h460v-11
q-1 -5 -18 -185.5t-24 -234.5q-2 -27 -8 -41t-21 -25l-15 -11h-288l-14 11q-26 20 -30 66q-1 10 -4 37.5t-3 32.5q-4 39 -9 92.5t-12 116.5t-9 87q-5 35 -5 51zM380 552v44h-136v-44h136zM209 633l10 11h93q93 0 99 -5q17 -13 17 -49v-7q0 -22 7 -26.5t44 -4.5h8q53 0 67 -8
q15 -9 15 -23q0 -16 -22 -31q-8 -5 -46 -6.5t-190 -1.5q-226 0 -235 5q-20 11 -20 29q0 14 11 24q8 7 17.5 8.5t50.5 2.5q48 1 53.5 5.5t8.5 40.5q1 24 12 36z" />
    <glyph glyph-name="D" unicode="D" horiz-adv-x="792" 
d="M164 331q8 8 72 8h45l109 -2v-90h-230l-2 37v11q0 29 6 36zM64 440q7 9 35.5 10.5t159.5 1.5h183v-48q-56 0 -168.5 -2t-169.5 -2v-216l169 -2l169 -1v-49h-180q-116 0 -150.5 2t-44.5 9q-11 7 -13 26.5t-2 120.5q0 88 2 115t10 35zM685 188v209h-104v-209h104zM387 624
q17 17 48 17q33 0 73 -19l37 -18l31 18q30 18 65 18q38 0 53 -21q10 -13 10 -20q0 -8 -7 -19q-6 -12 -16.5 -17.5t-37.5 -10.5q-43 -9 -52.5 -18.5t-9.5 -43.5v-38h65q47 0 58.5 -2.5t21.5 -15.5t12.5 -36t2.5 -117v-51q0 -69 -9.5 -83.5t-53.5 -14.5h-30h-67v-35
q0 -69 69 -69q32 0 49 -18q13 -14 13 -23q0 -5 -3 -14q-3 -10 -8 -13t-15 -4.5t-42 -2.5h-18q-42 0 -56 9q-17 10 -29 10q-13 0 -26 -10q-14 -11 -76 -11q-50 0 -59 9q-8 8 -8 21q0 19 14 33t47 14q34 1 53 16l18 16l-1 231l-2 233l-18 14q-22 15 -52 17q-59 6 -59 39
q0 14 15 30z" />
    <glyph glyph-name="E" unicode="E" horiz-adv-x="757" 
d="M50 133v323h657v-323h-657z" />
    <glyph glyph-name="F" unicode="F" horiz-adv-x="919" 
d="M628 527q26 13 37 13t37 -13q50 -25 50 -80q0 -38 -27 -63t-62 -25q-34 0 -59 25t-30 47q-1 4 -1 12q0 24 15.5 48t39.5 36zM803 351l-2 232h-683l-3 -229q-1 -63 -1 -163q0 -72 1 -72q8 0 99 111q86 105 113.5 134t40.5 29q14 0 82 -66t78 -66q12 0 36 21q22 19 36 19
q16 0 38.5 -19.5t72.5 -73.5q86 -93 90 -91q3 3 3 130q0 67 -1 104zM62 636q12 13 413 13q367 0 381 -12q13 -15 13 -335q0 -319 -13 -334q-15 -13 -397 -13t-397 13q-12 12 -12 333t12 335z" />
    <glyph glyph-name="G" unicode="G" horiz-adv-x="927" 
d="M121 526q14 7 49 8.5t168 1.5q151 0 190.5 -3.5t39.5 -16.5q0 -7 -12 -21l-11 -13h-198q-183 -1 -206 -7q-16 -6 -28 -23q-8 -11 -9.5 -42.5t-1.5 -165.5t1.5 -165.5t9.5 -42.5q9 -13 13.5 -17.5t28 -8t57.5 -4t112 -0.5h20h196l19 18q16 16 20.5 36.5t4.5 73.5
q0 35 2.5 43.5t16.5 22.5q19 19 24 15q6 -5 6 -81q0 -91 -7 -108q-18 -44 -61 -64q-14 -7 -50 -8.5t-175 -1.5q-152 0 -180.5 1.5t-46.5 10.5q-25 14 -43 39l-19 27v211q0 140 1.5 179t7.5 49q21 39 61 57zM798 655q0 1 2 1q8 0 39 -31q32 -32 32 -38q0 -4 -3 -7
q-8 -10 -8 -15q0 -6 -227 -228q-227 -221 -237 -221h-2q-14 0 -50 -21q-36 -20 -44 -20q-4 0 -7 3t-3 6q0 8 21 44q21 39 21 50q0 9 42.5 54.5t178.5 183.5q226 227 232 230q10 4 13 9z" />
    <glyph glyph-name="H" unicode="H" horiz-adv-x="702" 
d="M59 633q-3 5 -3 8q0 2 2 2q11 0 98 -51q21 -12 67 -39t113.5 -65.5t109.5 -63.5q203 -117 203 -122t-294 -174.5t-297 -166.5t96 169q101 169 101 176q0 13 -196 327z" />
    <glyph glyph-name="I" unicode="I" horiz-adv-x="719" 
d="M405 511q246 143 256 145q8 0 -5 -20q-29 -45 -113 -189t-84 -149q0 -10 97.5 -169t97.5 -172q0 -1 -1 -1h-1q-21 8 -310 175.5t-289 171.5q0 6 52 35q12 6 55.5 31.5t116.5 67.5t128 74z" />
    <glyph glyph-name="J" unicode="J" horiz-adv-x="806" 
d="M361 343v152h87v-152h151v-86h-151v-152h-87v152h-152v86h152zM543 587q-38 19 -57.5 23t-69.5 6h-19q-57 0 -90 -11q-135 -49 -194 -174q-16 -33 -19.5 -52.5t-3.5 -79.5q0 -61 4 -79t24 -59q50 -104 156 -153q33 -16 52 -19t78 -3t78 3t52 19q107 50 157 153
q20 40 23.5 58t3.5 80q0 60 -3.5 79.5t-19.5 53.5q-50 104 -152 155zM311 643q33 9 84 9q81 0 133 -19q67 -25 125 -83.5t84 -125.5q18 -45 18 -124t-18 -124q-26 -67 -81 -122t-123 -83q-57 -24 -129 -24q-56 0 -102 15q-106 34 -174 119.5t-75 193.5q-1 9 -1 27q0 44 5 69
q20 95 90.5 170.5t163.5 101.5z" />
    <glyph glyph-name="K" unicode="K" horiz-adv-x="783" 
d="M208 255v90h374v-90h-374zM502 586q-60 23 -105 23q-12 0 -50 -4q-110 -15 -186.5 -104.5t-76.5 -201.5q0 -15 4 -45q19 -119 108 -190.5t201 -71.5q130 0 222 96q81 87 81 194q0 30 -4 55q-12 86 -64.5 153t-129.5 96zM305 633q38 10 88 10t85 -10q88 -26 150.5 -88.5
t88.5 -148.5q15 -48 15 -108q0 -78 -25 -133q-41 -89 -121 -141q-88 -58 -192 -58q-133 0 -232.5 92t-108.5 235q0 6 -0.5 16.5t-0.5 14.5q0 42 13 82q25 86 90 150t150 87z" />
    <glyph glyph-name="L" unicode="L" horiz-adv-x="794" 
d="M326 210q-17 13 -19 13q-2 -2 -38 -20q-33 -18 -33 -22q0 -1 6 -9q53 -61 131 -71l29 -4l-3 16q-3 15 -7 44q-2 20 -5.5 24.5t-20.5 9.5q-20 5 -40 19zM590 238q0 3 -17.5 6.5t-37 5.5t-21.5 3h-2q-9 0 -21 -20q-16 -22 -32 -29q-17 -9 -14 -21q1 -2 3.5 -21t6 -36
t6.5 -17q9 0 33.5 15.5t42.5 32.5t35.5 43.5t17.5 37.5zM442 339q-12 14 -36 17q-2 0 -5.5 0.5t-4.5 0.5q-55 0 -55 -58q0 -25 15.5 -40t41.5 -15q25 0 41 16q17 17 17 41q0 22 -14 38zM269 389q-30 28 -32 28q-10 0 -30 -46q-10 -25 -10 -82q0 -39 6 -45q2 -2 5 -2
q7 0 38 14q26 13 30.5 18t4.5 22q2 25 8 43l8 22zM544 441q-20 20 -26 20q-7 0 -25 -35l-17 -36l14 -20q13 -18 19 -40q4 -15 9.5 -18.5t32.5 -7.5q32 -5 38 -5q11 0 11 10q0 2 -2 18q-4 28 -19.5 61.5t-34.5 52.5zM456 494q-8 8 -54 8q-36 0 -55 -6q-64 -18 -64 -31
q0 -7 26 -35l29 -29l25 9q18 6 36 6h6q2 0 4 -0.5t3 -0.5q8 0 13 6.5t17 30.5q15 32 15 39q0 2 -1 3zM322 641h2q10 0 34 -24q25 -27 41 -27q14 0 38 27l22 27l24 -6q24 -6 30.5 -13.5t9.5 -33.5q2 -20 5.5 -27.5t12.5 -11.5q7 -5 15 -5q9 0 32 8l34 11l19 -19
q18 -17 18 -29q0 -10 -9 -33q-8 -21 -8 -26q0 -6 6 -16q7 -13 36 -17q27 -4 35 -10t15 -27l7 -23l-27 -25q-27 -24 -27 -39q0 -14 27 -40l28 -26l-9 -27q-6 -20 -10 -25t-18 -7q-3 -1 -16.5 -3t-18.5 -3q-10 -1 -19.5 -11.5t-9.5 -19.5q0 -2 2 -6q5 -6 12 -32l7 -27
q-14 -13 -42 -41l-32 13q-24 9 -30 9t-16 -6q-11 -6 -14 -12.5t-5 -26.5q-3 -26 -9.5 -33.5t-30.5 -13.5l-24 -6l-22 27q-25 28 -39 28q-15 0 -40 -28l-23 -27l-22 6q-24 6 -30.5 13.5t-9.5 33.5q-2 20 -5 26.5t-14 12.5q-10 6 -17 6q-6 0 -30 -9l-31 -13q-28 28 -42 41
l7 27q7 26 12 32q2 2 2 5q0 8 -10 19t-20 13q-5 1 -18.5 3.5t-15.5 2.5q-14 2 -18.5 7.5t-10.5 24.5l-8 27l27 26q27 26 27 40q0 15 -27 39l-27 25l7 23q7 21 15 27t35 10q29 4 36 17q6 10 6 16q0 5 -8 26q-9 23 -9 33q0 12 18 29l19 19q46 -16 70 -23l13 12q13 11 17 43
q3 24 10 30t39 13z" />
    <glyph glyph-name="M" unicode="M" horiz-adv-x="873" 
d="M468 271q64 64 68 64t4 -33q0 -46 -26 -75t-71 -32q-3 0 -6.5 -0.5t-5.5 -0.5q-23 0 -23 7q0 10 60 70zM388 393q24 13 55 13q25 0 25 -7q0 -8 -61.5 -70.5t-68.5 -62.5h-1q-4 4 -4 34q0 64 55 93zM626 429q36 36 40 36q11 0 66.5 -55t77.5 -88q11 -17 11 -21
q0 -3 -7 -17q-11 -21 -56 -67.5t-78 -72.5q-74 -56 -148 -81q-42 -13 -94 -13q-51 0 -95 13q-30 9 -40.5 14t-10.5 11q0 7 22 29l29 29l28 -11q28 -11 66 -11q37 0 62 9q26 9 55.5 36.5t42.5 55.5q16 32 16 78q0 37 -12 64l-11 25zM391 548q15 3 36 3q88 0 146 -29l17 -10
l-58 -58l-29 11q-28 11 -66 11q-35 0 -61 -9t-56 -37t-43 -56q-16 -32 -16 -78q0 -37 12 -64l12 -26l-37 -36q-33 -33 -40 -33q-3 0 -11 5q-32 21 -88 82.5t-56 75.5q0 9 29 45t61 66q116 110 248 137zM422 316q325 327 334 327t15.5 -6.5t6.5 -15.5t-325.5 -337
t-334.5 -328t-15.5 7t-6.5 16t326 337z" />
    <glyph glyph-name="N" unicode="N" horiz-adv-x="833" 
d="M361 199q9 11 24 11t15 -11q0 -10 -25 -11l-25 -1zM253 204q4 6 24 6q16 0 16 -2q1 -1 -6 -9q-11 -11 -24 -11q-12 0 -12 9q0 4 2 7zM180 223q4 4 11 4q11 0 18 -7t7 -50q0 -31 -3 -39.5t-17 -22.5l-20 -19v65q0 65 4 69zM253 255q4 6 49 6q41 0 41 -4q0 -2 -5 -7
q-11 -12 -46 -12q-41 0 -41 11q0 2 2 6zM250 303q0 9 74 9q70 0 70 -6q0 -1 -2 -3q-7 -8 -75 -8q-67 0 -67 8zM522 139l48 48h-43q-43 0 -51 -9q-10 -12 -10 -61q0 -18 3 -21h1q9 0 52 43zM634 472q84 84 88 84q5 0 18 -15q11 -11 13 -27t2 -87v-99l-17 -17
q-11 -11 -20 -13.5t-39 -2.5h-43v-98q-116 -120 -173 -180l-123 1q-123 1 -133 11q-6 6 -5.5 9t8.5 10q9 9 60 9h54l102 -1v59q0 38 2.5 51.5t10.5 26.5q15 23 37.5 31.5t67.5 8.5h52v53q0 47 -5.5 65t-22.5 28l-18 10zM204 509h-4q-22 0 -22 -19q0 -5 1 -7q6 -16 20 -16
q9 0 15 6.5t6 16.5q0 18 -16 19zM142 502q-7 8 -19 8q-13 0 -20 -10q-2 -6 -2 -8q0 -10 7.5 -18t16.5 -8q1 0 2.5 0.5t2.5 0.5q16 5 16 23q0 7 -4 12zM88 556q15 5 287 5h275q-58 -57 -172 -171h-134l-135 -1l-16 -19q-17 -18 -17 -47v-28h-45q-29 0 -38.5 2.5t-19.5 11.5
q-12 12 -16.5 29.5t-4.5 62.5q0 5 0.5 19.5t0.5 23.5q2 56 4 71.5t9 23.5q9 11 22 17zM213 608q11 7 42 8.5t151 1.5q132 0 157.5 -1.5t38.5 -10.5q20 -13 20 -17q0 -7 -42.5 -9t-176.5 -2q-216 0 -216 7q0 2 1 3q10 10 25 20zM409 314q342 344 352 344t16 -12l1 -1v-1
q0 -10 -56.5 -69.5t-282.5 -285.5l-345 -346l-13 13l-13 15z" />
    <glyph glyph-name="O" unicode="O" horiz-adv-x="738" 
d="M318 634q18 8 52 8q35 0 51 -8q22 -11 28 -30.5t6 -80.5q0 -72 3 -72q4 0 67 36q61 35 75 35q5 0 8 -1q35 -6 65 -67q11 -21 11 -37q0 -15 -10 -31q-8 -12 -69 -47q-62 -35 -62 -38q0 -4 53 -33q56 -32 69 -42.5t18 -27.5q3 -11 3 -16q0 -7 -12 -34q-13 -26 -34 -49
q-18 -19 -34 -19q-21 0 -83 36q-63 36 -65 36q-3 0 -3 -72q0 -79 -14.5 -99t-70.5 -20t-70.5 20t-14.5 99q0 72 -2 72q-3 0 -66 -36q-62 -35 -85 -35q-26 0 -53 46q-24 42 -24 60q0 19 17.5 34.5t62.5 41.5q63 36 63 38q0 3 -61 37q-51 29 -64.5 41.5t-17.5 32.5q-1 3 -1 9
q0 12 19 45q34 57 64 57q16 0 79 -36t66 -36t3 72q0 61 6.5 81.5t26.5 29.5z" />
    <glyph glyph-name="P" unicode="P" horiz-adv-x="694" 
d="M479 145q12 4 95 4q61 0 61 -3q0 -2 -91 -93l-90 -91v82q0 67 3.5 81.5t21.5 19.5zM297 445q21 12 44 12q30 0 54 -18.5t31 -49.5q2 -12 2 -18q0 -36 -26 -61.5t-60 -25.5q-18 0 -36 9q-23 12 -37.5 34t-14.5 45q0 17 13.5 40t29.5 33zM418 489q-39 12 -76 12
q-110 0 -203 -98l-34 -35l15 -18q20 -25 52 -52t56 -39q58 -30 114 -30q52 0 116 31q35 17 78 60q38 37 38 48q0 8 -7.5 16.5t-29.5 29.5q-54 54 -119 75zM79 642q10 7 46.5 8t221.5 1t221.5 -1t46.5 -8q18 -11 22 -24q7 -22 7 -180v-40v-206h-85q-82 0 -103 -9
q-32 -14 -40.5 -39.5t-8.5 -103.5v-80h-155q-130 0 -155 3.5t-38 25.5q-7 10 -8 52.5t-1 263.5v58q0 194 3.5 230t22.5 47q2 1 3 2z" />
    <glyph glyph-name="Q" unicode="Q" horiz-adv-x="1112" 
d="M858 127q-16 9 -39 9q-20 0 -26 -8q-9 -12 -32.5 -51.5t-23.5 -43.5t21 -4q43 0 62 9q24 10 39 28.5t15 35.5q0 16 -16 25zM951 294q-8 10 -30 10q-15 0 -23 -7t-23 -33q-24 -39 -24 -43q0 -5 13 -5q29 0 52 14q16 10 27 26t11 28q0 6 -3 10zM859 383q6 8 60 8
q41 0 75 -6q30 -5 47.5 -20.5t17.5 -36.5q0 -24 -23 -59.5t-51 -55.5q-32 -22 -32 -31q0 -4 9 -12q10 -7 10 -31q0 -27 -13 -53q-14 -30 -52 -65t-76 -54q-32 -16 -51.5 -19.5t-90.5 -4.5h-28q-69 0 -69 4q0 39 27.5 98t67 115.5t78.5 108t67 83.5zM342 639q26 13 52 13
q63 0 100 -54q19 -29 19 -66q0 -26 -8 -45t-45 -81q-53 -89 -58 -89q-2 0 -38 36l-36 36l40 67q40 64 40 80q0 9 -12 9q-13 0 -124 -182q-69 -114 -90.5 -154.5t-21.5 -63.5q0 -16 11 -36q20 -40 73 -40q48 0 71 36q9 13 152.5 249.5t145.5 239.5l24 38h154q154 0 154 -5
q-2 -7 -36 -62l-36 -57q-32 0 -96.5 -2t-96.5 -2l-32 -52q-31 -53 -31 -56q0 -5 90 -5q91 0 91 -4q0 -6 -34 -61l-34 -56h-192l-69 -115q-66 -111 -93 -138q-47 -47 -120 -53q-2 0 -7 -0.5t-7 -0.5q-75 0 -131.5 58.5t-56.5 132.5q0 26 9 53q7 19 118.5 205t126.5 203
q9 11 34 24z" />
    <glyph glyph-name="R" unicode="R" horiz-adv-x="1083" 
d="M470 200q15 4 63 4q63 0 100 -6q36 -6 77.5 -37.5t69.5 -74.5q19 -29 23 -43t4 -49v-51h-529v47q0 33 4 47t22 42q59 93 166 121zM200 254q23 6 50 6q56 0 90 -18q31 -18 31 -20q0 -9 -29 -29q-26 -20 -58.5 -62.5t-41.5 -68.5l-7 -22h-180v41q0 27 5 41.5t23 41.5
q45 69 117 90zM723 239q33 28 105 28h11q78 -4 134 -57.5t56 -123.5v-39h-177l-23 46q-23 44 -71 89q-42 39 -42 47q0 3 7 10zM219 633q17 7 35 7q46 0 78 -41.5t32 -95.5q0 -42 -20 -76q-33 -57 -89 -57q-64 0 -96 70q-13 29 -13 69q0 33 9 55q8 19 28 40.5t36 28.5z
M779 630q22 15 49 15q29 0 55 -17t41 -47q15 -32 15 -66q0 -55 -32 -97.5t-78 -42.5q-5 0 -17 2q-43 9 -67.5 47t-24.5 86q0 80 59 120zM507 640q0 6 33 6q55 0 91.5 -41t41.5 -108v-14q0 -83 -56 -133q-37 -34 -80 -34q-58 0 -97 58q-30 43 -30 102q0 47 20 87.5t54 58.5
q23 12 23 18z" />
    <glyph glyph-name="S" unicode="S" horiz-adv-x="684" 
d="M470 42q-4 8 -4 9q0 3 5 3q2 0 18 -2q28 -4 30 -6q1 -1 1 -2q0 -8 -5.5 -28.5t-8.5 -24.5q-1 -1 -3.5 1t-6.5 7q-4 7 -10 7q-8 0 -31 -11q-31 -15 -56 -21q-21 -6 -60 -6q-53 0 -83 9q-29 8 -58 22.5t-29 19.5t8 5q11 0 22 -7q49 -32 131 -32q39 0 78 9.5t56 23.5
q13 10 6 24zM458 300q0 3 11.5 32.5t15.5 29.5h1q4 -2 13 -32.5t9 -40.5q0 -2 -1 -2q-6 0 -27.5 5.5t-21.5 7.5zM223 379q30 14 36 14h1q4 0 4 -6q0 -13 -24 -56q-20 -35 -20 -39q0 -3 36 -18q45 -19 45 -33q0 -2 -2 -4h-2q-7 0 -29.5 11t-35.5 21q-13 11 -17 11
q-2 0 -36 -41q-51 -67 -62 -67l-2 1q-3 3 34 51q24 31 52.5 78t28.5 56q0 1 -1 1q-10 0 -38.5 -10t-32.5 -15q-5 -8 -17 -8t-17 8q-5 7 -5 8q0 4 39 14q40 12 65 23zM195 422q13 5 17 5q8 0 8 -11q0 -12 -19 -21q-14 -6 -18 -6q-6 0 -16 7q-14 9 -14 14q0 6 15 7q17 0 27 5z
M494 428q-22 8 -26 1q-8 -13 -41.5 -100.5t-33.5 -93.5q0 -5 17 -7q1 0 3.5 -0.5t3.5 -0.5q9 0 17 16q9 18 10 19h1q8 0 41 -10q30 -9 36 -14t8 -22q2 -14 6 -19.5t15 -10.5q5 -2 9.5 -3.5t7.5 -1t3 1.5q0 8 -28.5 112.5t-31.5 113.5q-2 12 -17 19zM328 349q0 191 -7 191
q-10 0 -129 -41l-122 -41l-2 -193l-1 -194l21 7q8 2 131 43l109 36v192zM561 552q0 68 -7 68t-100.5 -31.5t-93.5 -35.5q0 -5 95 -36t99 -31h1q6 0 6 66zM447 602q116 40 124 40q7 0 7 -81v-81q18 -7 56 -21v-203q0 -203 -1 -203l-6 2q-6 2 -17 5.5t-21 6.5q-94 29 -145 45
l-102 32l-138 -45q-140 -46 -146 -46q-7 0 -7 117v92l2 208l26 8q29 10 34 18.5t5 49.5v18q0 68 5 68q3 0 106 -35l102 -35z" />
    <glyph glyph-name="T" unicode="T" horiz-adv-x="1242" 
d="M1117 328q-13 20 -29 20q-17 0 -30 -20q-9 -14 -9 -25q0 -14 10.5 -23t28.5 -9t28 8.5t10 22.5q0 12 -9 26zM894 529q-11 10 -74 12.5t-305 2.5q-260 0 -312 -2.5t-59 -13.5q-9 -18 -9 -226q0 -155 2.5 -183t16.5 -38q12 -9 77.5 -11.5t293.5 -2.5q263 0 310 2.5t58 16.5
q11 12 13.5 48t2.5 176q0 142 -2.5 175.5t-12.5 43.5zM50 579q14 13 42 41h421q420 0 433 -5q11 -5 117 -124.5t116 -139.5t10 -42q0 -26 -15 -50q-18 -28 -126 -145l-110 -119q-142 0 -426 -1.5t-426 -2.5l-18 22q-13 17 -15.5 58t-2.5 236v272z" />
    <glyph glyph-name="nbsp" unicode="&#xa0;" 
 />
  </font>
</defs>
</svg>
