<svg  
 xmlns="http://www.w3.org/2000/svg" xmlns:svg="http://www.w3.org/2000/svg"  viewBox="0 0 70 70">
 
 <g>
  <title>Layer 1</title>
  <path d="m11.35064,0.625c0.08998,1.84106 0.09225,5.64674 -0.17202,46.89248c-0.50421,5.17595 3.88218,11.42506 11.44408,11.63775c37.99858,0.0709 9.91272,-0.07089 46.68286,0.13361c-57.83676,-58.5457 0.10633,0.03546 -57.95491,-58.66385l-0.00001,0.00001z" fill="#fb7d7d" id="svg_2" stroke="#000000" stroke-dasharray="null" stroke-linecap="round" stroke-linejoin="null" stroke-opacity="0" stroke-width="0"/>
  <path d="m49.33639,7.89585c-2.84244,2.82171 -40.93635,40.72793 -42.36803,42.22924c-2.86334,3.00261 -4.8464,9.20266 -0.59052,13.42562c4.25589,4.22296 10.26938,2.37588 13.35338,-0.61865c3.084,-2.99452 29.20286,-29.08975 30.64922,-30.65176c1.44637,-1.562 6.58036,-5.95098 2.50545,-10.11175c-4.07492,-4.16077 -8.19043,1.01208 -9.88917,2.7117l-2.1534,2.1653" fill="none" id="svg_4" stroke="#ffffff" stroke-linecap="square" stroke-width="5"/></g>

</svg>